{"glyphs":{"0":{"ha":798,"x_min":-266,"x_max":530,"o":"m 313 517 q 286 640 313 598 q 214 682 258 682 q 145 656 182 682 q 68 576 108 630 q -23 401 9 498 q -56 211 -56 304 q -26 85 -56 130 q 52 40 5 40 q 123 71 83 40 q 204 163 163 102 q 285 332 256 239 q 313 517 313 425 m 292 751 q 466 689 401 751 q 530 521 530 627 q 470 301 530 414 q 310 109 410 188 q 136 9 233 47 q -37 -30 39 -30 q -203 39 -141 -30 q -266 222 -266 108 q -207 435 -266 330 q -40 623 -148 540 q 126 715 34 680 q 292 751 218 751 z "},"1":{"ha":798,"x_min":-159,"x_max":507,"o":"m 473 757 l 507 720 l 89 -7 l -159 -29 l 148 499 q 60 463 134 492 q -108 410 -14 434 l -123 472 q 204 587 63 519 q 473 757 346 655 z "},"2":{"ha":798,"x_min":-369,"x_max":488,"o":"m -108 142 l -121 165 q -93 172 -114 168 q -53 176 -72 176 q 94 155 6 176 q 215 134 182 134 q 324 171 281 134 q 401 307 367 207 l 454 300 q 299 53 393 135 q 97 -28 206 -28 q 19 -18 62 -28 q -106 26 -24 -7 q -176 49 -149 42 q -224 56 -203 56 q -235 55 -229 56 q -245 52 -241 53 q -277 -17 -260 1 q -324 -36 -293 -36 q -356 -27 -344 -35 q -369 0 -369 -18 q -283 92 -369 32 q -58 226 -197 152 q 20 267 -31 241 q 150 338 119 317 q 238 431 208 381 q 267 536 267 480 q 232 636 267 597 q 143 675 196 675 q 64 643 97 675 q 31 564 31 610 q 53 507 31 530 q 103 483 75 483 q 127 491 117 483 q 145 534 137 499 l 188 522 q 137 393 183 439 q 25 347 90 347 q -76 387 -36 347 q -116 488 -116 427 q -87 583 -116 536 q -5 669 -58 631 q 103 725 45 707 q 225 744 160 744 q 415 685 341 744 q 488 532 488 627 q 413 367 488 434 q 175 250 337 300 q 130 236 160 245 q -108 142 -37 186 z "},"3":{"ha":798,"x_min":-328,"x_max":533,"o":"m 198 360 l 207 387 q 342 341 283 384 q 401 222 401 299 q 283 38 401 112 q -8 -36 165 -36 q -238 22 -149 -36 q -328 176 -328 81 q -279 292 -328 243 q -165 340 -231 340 q -67 308 -111 340 q -1 201 -24 275 l -49 189 q -62 216 -56 212 q -79 220 -68 220 q -128 196 -107 220 q -149 134 -149 172 q -113 51 -149 85 q -22 18 -77 18 q 118 82 56 18 q 180 229 180 146 q 150 313 180 285 q 61 340 121 340 q 17 338 39 340 q -59 323 -5 336 l -37 394 l 11 394 q 254 441 176 394 q 332 578 332 488 q 306 656 332 627 q 241 686 280 686 q 182 663 205 686 q 159 600 159 639 q 172 558 159 573 q 203 543 184 543 q 219 549 213 543 q 231 587 226 555 l 276 579 q 232 460 276 503 q 129 417 187 417 q 40 453 76 417 q 3 543 3 490 q 93 688 3 628 q 304 748 183 748 q 469 702 406 748 q 533 578 533 655 q 443 429 533 484 q 198 360 352 375 z "},"4":{"ha":798,"x_min":-317,"x_max":602,"o":"m 528 854 l -145 283 l 125 287 l 357 691 l 602 718 l 351 292 l 500 297 l 458 227 l 313 231 l 184 -7 l -66 -29 l 90 231 q -79 225 16 230 q -317 204 -175 220 l 317 840 l 528 854 z "},"5":{"ha":798,"x_min":-275,"x_max":579,"o":"m 239 760 q 338 697 300 712 q 416 682 376 682 q 483 693 454 682 q 547 746 512 705 l 579 711 q 455 569 526 615 q 298 523 383 523 q 219 533 258 523 q 157 557 180 544 l 62 446 q 80 441 26 428 q 187 455 134 455 q 353 403 290 455 q 415 262 415 351 q 370 129 415 193 q 247 21 326 64 q 136 -21 197 -6 q 12 -36 76 -36 q -195 20 -115 -36 q -275 171 -275 76 q -228 289 -275 242 q -111 336 -181 336 q -8 299 -52 336 q 48 184 36 263 l 2 177 q -13 210 -5 205 q -32 216 -20 216 q -79 189 -58 216 q -100 121 -100 162 q -71 46 -100 75 q 8 18 -41 18 q 142 90 83 18 q 201 258 201 163 q 172 352 201 319 q 93 384 143 384 q 40 374 68 384 q -39 333 12 364 l -74 375 l 239 760 z "},"6":{"ha":798,"x_min":-224,"x_max":861,"o":"m 258 359 q 235 457 258 425 q 175 490 212 490 q 125 475 151 490 q 68 427 99 460 q -4 308 22 377 q -30 163 -30 239 q -3 61 -30 98 q 66 24 24 24 q 120 40 93 24 q 168 86 147 56 q 233 216 209 140 q 258 359 258 292 m 663 618 q 689 712 684 686 q 694 758 694 739 q 658 859 694 822 q 562 897 623 897 q 407 847 496 897 q 229 707 318 797 q 99 549 153 628 q 24 415 46 471 l -5 420 q 115 535 41 488 q 264 581 189 581 q 401 526 348 581 q 454 386 454 471 q 419 239 454 312 q 319 103 384 167 q 164 -1 250 39 q 5 -41 77 -41 q -162 30 -100 -41 q -224 216 -224 100 q -137 514 -224 368 q 108 773 -50 661 q 362 907 227 859 q 616 955 498 955 q 794 906 727 955 q 861 774 861 858 q 811 663 861 708 q 663 618 762 618 z "},"7":{"ha":798,"x_min":-313,"x_max":617,"o":"m -55 745 l 1 745 q -8 662 -3 692 q 2 688 -14 631 q 46 705 -7 677 q 160 733 100 733 q 298 700 211 733 q 425 667 385 667 q 494 684 463 667 q 570 751 526 701 l 617 723 q 290 271 441 488 q -9 -172 138 54 q -132 -177 -75 -172 q -313 -203 -190 -182 l 368 515 q 426 576 400 550 q 460 609 452 602 l 479 589 q 388 539 440 560 q 285 519 336 519 q 131 552 225 519 q 4 585 37 585 q -14 582 -4 585 q -31 574 -24 578 q -76 476 -54 508 q -127 444 -97 444 q -157 457 -146 444 q -168 489 -168 471 q -141 544 -168 513 q -76 608 -115 576 q -64 663 -69 632 q -55 745 -59 694 z "},"8":{"ha":798,"x_min":-239,"x_max":605,"o":"m 330 392 l 323 441 q 413 503 387 461 q 439 608 439 544 q 402 754 439 696 q 314 812 364 812 q 248 775 275 812 q 220 679 220 739 q 230 617 220 650 q 256 552 239 583 q 277 516 264 540 q 376 256 376 345 q 348 137 376 192 q 267 41 320 81 q 151 -18 217 3 q 22 -40 85 -40 q -166 27 -93 -40 q -239 199 -239 94 q -152 393 -239 312 q 54 492 -65 473 q 43 530 50 498 q 37 595 37 562 q 124 793 37 717 q 346 869 211 869 q 531 803 458 869 q 605 637 605 738 q 535 477 605 543 q 330 392 465 412 m 78 442 q -21 384 22 437 q -64 253 -64 332 q -22 86 -64 150 q 81 22 21 22 q 157 62 126 22 q 188 171 188 102 q 168 271 188 216 q 78 442 147 326 z "},"9":{"ha":798,"x_min":-698,"x_max":484,"o":"m -518 6 q -527 -52 -525 -37 q -528 -78 -528 -66 q -475 -213 -528 -161 q -335 -266 -421 -266 q -161 -204 -261 -266 q 31 -37 -61 -143 q 155 131 102 47 q 237 283 208 215 l 261 269 q 145 164 217 208 q 3 121 74 121 q -135 178 -83 121 q -187 326 -187 235 q -143 487 -187 406 q -21 633 -99 569 q 111 713 40 686 q 256 740 181 740 q 423 675 362 740 q 484 498 484 610 q 415 221 484 365 q 220 -47 345 77 q -73 -250 93 -176 q -395 -325 -239 -325 q -615 -276 -533 -325 q -698 -136 -698 -227 q -654 -34 -698 -73 q -518 6 -611 5 m 191 678 q 137 658 167 678 q 80 601 106 637 q 26 482 47 553 q 5 342 5 411 q 29 248 5 283 q 87 214 54 214 q 145 232 113 214 q 204 282 178 250 q 268 397 245 334 q 291 526 291 461 q 264 641 291 604 q 191 678 238 678 z "},"\u0000":{"ha":0,"x_min":0,"x_max":0,"o":""},"\u001d":{"ha":0,"x_min":0,"x_max":0,"o":""}," ":{"ha":399,"x_min":0,"x_max":0,"o":""},"!":{"ha":566,"x_min":-244,"x_max":317,"o":"m -131 195 q -50 162 -83 195 q -16 82 -16 129 q -50 2 -16 35 q -131 -31 -83 -31 q -210 3 -176 -31 q -244 82 -244 37 q -212 161 -244 127 q -134 195 -179 195 l -131 195 m -53 155 l -104 181 q -28 331 -59 257 q 26 487 2 405 q 49 562 35 514 q 93 693 78 664 q 142 752 113 730 q 205 773 171 773 q 284 741 251 773 q 317 664 317 709 q 191 467 317 595 q 157 431 169 444 q 42 301 91 365 q -53 155 -7 238 z "},"\"":{"ha":471,"x_min":37,"x_max":435,"o":"m 319 560 l 266 888 q 265 901 265 895 q 264 918 264 907 q 288 986 264 960 q 350 1012 311 1012 q 412 987 389 1012 q 435 920 435 962 q 433 891 435 909 q 433 890 433 890 l 380 560 l 319 560 m 91 560 l 38 888 q 37 901 37 895 q 37 918 37 907 q 59 986 37 961 q 121 1012 81 1012 q 184 987 161 1012 q 206 918 206 962 q 206 900 206 907 q 205 888 205 894 l 153 560 l 91 560 z "},"#":{"ha":1068,"x_min":19,"x_max":1050,"o":"m 633 562 l 490 562 l 441 423 l 585 423 l 633 562 m 653 1010 l 547 715 l 686 715 l 791 1010 l 958 1010 l 852 715 l 1050 715 l 995 562 l 798 562 l 749 425 l 958 425 l 903 270 l 695 270 l 591 -24 l 422 -24 l 528 270 l 389 270 l 285 -24 l 117 -24 l 222 270 l 19 270 l 73 425 l 277 425 l 326 562 l 109 562 l 165 715 l 380 715 l 486 1010 l 653 1010 z "},"$":{"ha":798,"x_min":-240,"x_max":559,"o":"m 149 272 l 20 26 q 26 25 15 28 q 49 22 38 22 q 149 67 104 22 q 195 165 195 113 q 180 227 195 199 q 149 272 166 254 m 317 695 q 321 692 330 691 q 304 694 313 694 q 227 654 262 694 q 191 561 191 614 q 200 516 191 538 q 208 495 209 495 l 317 695 m 401 851 l 454 829 l 404 738 q 510 687 461 729 q 559 579 559 645 q 519 483 559 520 q 415 445 478 445 q 379 449 396 445 q 319 476 361 453 q 376 537 366 514 q 387 590 387 560 q 376 647 387 624 q 367 670 366 670 l 249 454 q 359 317 332 368 q 386 210 386 267 q 289 37 386 107 q 49 -33 191 -33 q 12 -31 29 -33 q -7 -29 -6 -30 l -54 -121 l -111 -96 l -68 -18 q -185 46 -130 -6 q -240 165 -240 98 q -193 291 -240 241 q -74 341 -146 341 q -9 328 -37 341 q 54 265 19 315 q -38 218 -18 245 q -58 144 -58 191 q -45 88 -58 115 q -29 58 -33 60 l 107 313 q 30 413 53 370 q 6 505 6 456 q 93 682 6 615 q 314 749 179 749 q 348 747 326 749 q 347 747 357 746 l 401 851 z "},"%":{"ha":1260,"x_min":-162,"x_max":899,"o":"m 203 635 q 197 663 203 655 q 180 670 191 670 q 137 649 165 670 q 79 588 109 628 q 6 463 34 530 q -22 355 -22 395 q -16 332 -22 340 q 1 325 -9 325 q 41 341 16 325 q 89 387 65 357 q 170 522 137 447 q 203 635 203 597 m 645 627 l 49 -111 l 5 -80 l 431 510 q 470 549 500 560 q 411 538 440 538 q 357 547 383 538 q 351 541 331 556 q 344 569 343 578 q 345 551 345 560 q 317 453 345 505 q 241 357 289 401 q 138 293 196 315 q 17 270 79 270 q -114 313 -66 270 q -162 433 -162 357 q -135 542 -162 488 q -60 638 -108 595 q 46 702 -14 678 q 163 726 106 726 q 259 704 215 726 q 331 642 303 682 q 371 597 355 608 q 411 587 388 587 q 468 602 439 587 q 522 643 497 616 q 560 695 536 660 q 640 760 604 760 q 677 745 663 760 q 691 708 691 730 q 681 676 691 693 q 645 627 671 659 m 715 422 q 848 375 798 422 q 899 253 899 328 q 866 137 899 195 q 774 35 833 79 q 679 -16 731 1 q 571 -34 626 -34 q 441 10 488 -34 q 393 131 393 54 q 420 240 393 186 q 495 334 447 293 q 600 398 540 375 q 715 422 659 422 m 758 330 q 751 358 758 351 q 734 366 745 366 q 691 345 719 366 q 633 285 663 323 q 561 161 589 229 q 533 57 533 94 q 539 29 533 37 q 555 22 545 22 q 595 38 571 22 q 643 82 620 54 q 724 218 691 143 q 758 330 758 294 z "},"&":{"ha":1260,"x_min":-211,"x_max":932,"o":"m 49 386 q 0 329 31 379 q -31 218 -31 279 q 9 99 -31 145 q 109 52 50 52 q 161 58 138 52 q 178 60 184 64 q 87 181 127 96 q 46 367 46 265 q 47 390 46 378 q 47 403 47 402 q 48 410 47 406 q 49 386 49 414 m 216 441 q 255 288 222 365 q 325 176 287 212 q 379 248 331 181 q 427 312 409 289 q 543 430 490 393 q 654 466 597 466 q 744 433 707 466 q 780 351 780 400 q 750 282 780 312 q 681 253 721 253 q 619 278 645 253 q 593 339 593 303 q 601 375 593 358 q 606 389 609 393 q 614 382 621 380 q 600 384 607 384 q 424 223 552 384 q 359 142 376 163 q 459 77 392 106 q 597 48 526 48 q 775 100 699 48 q 884 259 850 153 l 932 251 q 773 35 895 111 q 493 -41 651 -41 q 340 -21 412 -41 q 224 30 269 -1 q 115 -25 172 -4 q 4 -45 58 -45 q -151 13 -90 -45 q -211 163 -211 71 q -141 328 -211 257 q 54 443 -71 398 q 177 672 79 574 q 389 769 275 769 q 470 738 437 769 q 503 661 503 707 q 431 534 503 585 q 216 441 360 483 m 216 491 q 298 549 258 500 q 339 659 339 597 q 332 691 339 681 q 313 702 324 702 q 251 633 285 702 q 216 491 217 565 z "},"'":{"ha":243,"x_min":37,"x_max":206,"o":"m 91 560 l 38 888 q 37 901 37 895 q 37 918 37 907 q 59 986 37 961 q 121 1012 81 1012 q 184 987 161 1012 q 206 918 206 962 q 206 900 206 907 q 205 888 205 894 l 153 560 l 91 560 z "},"(":{"ha":541,"x_min":-219,"x_max":652,"o":"m 644 991 l 652 942 q 348 719 482 849 q 115 425 214 588 q -70 16 -7 227 q -134 -397 -134 -194 q -134 -402 -134 -399 q -132 -455 -132 -419 l -178 -455 q -210 -296 -201 -368 q -219 -147 -219 -223 q -8 519 -219 236 q 644 991 203 802 z "},")":{"ha":541,"x_min":-700,"x_max":172,"o":"m 87 983 l 131 983 q 163 820 154 892 q 172 673 172 748 q -39 7 172 290 q -686 -464 -249 -275 l -700 -416 q -395 -192 -529 -323 q -162 101 -260 -61 q 24 513 -40 302 q 88 924 88 723 q 87 928 88 924 q 87 983 87 946 z "},"*":{"ha":694,"x_min":121,"x_max":635,"o":"m 354 753 l 168 816 q 134 840 146 823 q 121 879 121 857 q 143 936 121 909 q 193 962 165 962 q 220 956 208 962 q 244 937 233 949 l 377 788 l 354 753 m 373 758 l 257 601 q 231 579 246 587 q 200 571 216 571 q 147 597 172 571 q 123 653 123 624 q 135 687 123 672 q 165 709 147 701 l 348 789 l 373 758 m 377 778 l 491 618 q 499 598 496 609 q 503 576 503 587 q 478 525 503 545 q 419 505 453 505 q 376 522 393 505 q 357 565 360 538 l 338 762 l 377 778 m 357 787 l 547 846 q 559 849 554 848 q 568 850 564 850 q 617 827 598 850 q 635 771 635 804 q 619 720 635 740 q 574 701 602 701 q 562 701 566 701 q 555 703 558 701 l 362 744 l 357 787 m 344 768 l 345 965 q 365 1014 345 994 q 414 1034 384 1034 q 470 1016 447 1034 q 494 968 494 998 q 491 948 494 957 q 484 930 489 939 l 386 763 l 344 768 z "},"+":{"ha":1157,"x_min":152,"x_max":1005,"o":"m 656 848 l 656 491 l 1005 491 l 1005 338 l 656 338 l 656 -20 l 500 -20 l 500 338 l 152 338 l 152 491 l 500 491 l 500 848 l 656 848 z "},",":{"ha":399,"x_min":-467,"x_max":-56,"o":"m -467 -220 l -455 -168 q -261 -113 -328 -163 q -193 -47 -195 -63 q -176 -15 -160 -7 q -212 -23 -192 -23 q -276 5 -252 -23 q -301 75 -301 33 q -267 161 -301 127 q -180 195 -233 195 q -91 155 -126 195 q -56 54 -56 114 q -166 -137 -56 -58 q -467 -220 -276 -215 z "},"-":{"ha":656,"x_min":-208,"x_max":302,"o":"m -111 359 q 6 356 -41 357 q 92 355 54 355 q 209 357 121 355 q 302 359 245 357 l 209 205 q 147 205 180 205 q 1 208 39 208 q -93 207 -54 208 q -208 205 -132 207 l -111 359 z "},".":{"ha":399,"x_min":-302,"x_max":-60,"o":"m -182 211 q -96 175 -131 211 q -60 89 -60 139 q -96 4 -60 39 q -182 -31 -132 -31 q -267 4 -231 -31 q -302 89 -302 40 q -267 174 -302 138 q -182 211 -231 211 z "},"/":{"ha":386,"x_min":-264,"x_max":309,"o":"m 191 981 l 309 981 q 82 432 193 706 q -149 -153 -28 158 l -264 -153 l 191 981 z "},":":{"ha":399,"x_min":-300,"x_max":106,"o":"m -182 206 q -98 172 -133 206 q -63 89 -63 138 q -98 6 -63 40 q -182 -28 -134 -28 q -264 7 -229 -28 q -300 89 -300 42 q -264 171 -300 136 q -182 206 -229 206 m -12 504 q 72 470 37 504 q 106 386 106 435 q 71 303 106 337 q -12 269 36 269 q -94 304 -60 269 q -129 386 -129 340 q -94 468 -129 433 q -12 504 -60 504 z "},";":{"ha":399,"x_min":-467,"x_max":106,"o":"m -467 -220 l -455 -168 q -261 -113 -328 -163 q -193 -47 -195 -63 q -176 -15 -160 -7 q -212 -23 -192 -23 q -276 5 -252 -23 q -301 75 -301 33 q -267 161 -301 127 q -180 195 -233 195 q -91 155 -126 195 q -56 54 -56 114 q -166 -137 -56 -58 q -467 -220 -276 -215 m -12 504 q 72 470 37 504 q 106 386 106 435 q 71 303 106 337 q -12 269 36 269 q -94 304 -60 269 q -129 386 -129 340 q -94 468 -129 433 q -12 504 -60 504 z "},"<":{"ha":1157,"x_min":159,"x_max":998,"o":"m 998 659 l 398 414 l 998 169 l 998 1 l 159 346 l 159 481 l 998 828 l 998 659 z "},"=":{"ha":1157,"x_min":152,"x_max":1005,"o":"m 1005 351 l 1005 198 l 152 198 l 152 351 l 1005 351 m 1005 631 l 1005 477 l 152 477 l 152 631 l 1005 631 z "},">":{"ha":1157,"x_min":159,"x_max":998,"o":"m 998 481 l 998 346 l 159 1 l 159 169 l 759 414 l 159 659 l 159 828 l 998 481 z "},"?":{"ha":694,"x_min":-212,"x_max":446,"o":"m -98 197 q -18 163 -52 197 q 16 82 16 130 q -18 2 16 35 q -98 -31 -52 -31 q -178 3 -144 -31 q -212 82 -212 37 q -179 162 -212 128 q -98 197 -145 197 m -12 154 l -60 178 q 62 297 -14 247 l 69 302 q 209 423 178 378 q 239 526 239 469 q 201 631 239 588 q 109 674 162 674 q 40 645 66 674 q 14 570 14 616 q 31 509 14 530 q 74 487 48 487 q 109 503 95 487 q 123 549 123 519 l 123 576 l 169 576 q 173 545 172 552 q 173 528 173 538 q 127 400 173 452 q 14 348 81 348 q -82 389 -44 348 q -120 492 -120 431 q -91 593 -120 544 q -8 682 -62 642 q 96 735 39 716 q 210 755 154 755 q 379 697 312 755 q 446 547 446 639 q 382 396 446 457 q 149 269 319 335 l 140 265 q -12 154 31 224 z "},"@":{"ha":1369,"x_min":74,"x_max":1298,"o":"m 890 645 l 905 694 l 1063 694 l 939 250 l 938 246 q 928 191 928 209 q 938 153 928 165 q 964 141 947 141 q 1013 155 983 141 q 1070 189 1044 168 q 1179 333 1141 246 q 1217 525 1217 419 q 1094 815 1217 705 q 766 926 971 926 q 551 883 653 926 q 372 762 450 841 q 253 575 293 680 q 212 340 212 469 q 251 141 212 228 q 367 -11 290 54 q 528 -99 436 -68 q 726 -130 621 -130 q 938 -96 836 -130 q 1154 20 1040 -62 l 1204 -44 q 968 -173 1084 -134 q 726 -212 852 -212 q 485 -180 596 -212 q 292 -85 374 -147 q 130 110 186 -6 q 74 364 74 225 q 134 631 74 507 q 309 850 195 756 q 517 968 404 928 q 758 1008 631 1008 q 1150 874 1002 1008 q 1298 519 1298 741 q 1256 310 1298 408 q 1137 142 1215 212 q 1044 82 1093 102 q 946 62 995 62 q 829 103 871 62 q 785 155 786 144 q 719 99 773 136 q 596 63 665 63 q 437 132 496 63 q 378 314 378 201 q 413 471 378 395 q 513 610 448 547 q 620 681 562 656 q 737 705 677 705 q 849 668 806 705 q 890 645 892 631 m 827 524 q 806 600 827 573 q 754 627 786 627 q 687 600 718 627 q 621 507 655 573 q 564 370 583 437 q 544 249 544 302 q 564 172 544 199 q 612 145 583 145 q 680 170 648 145 q 746 253 711 195 q 805 391 783 316 q 827 524 827 465 z "},"A":{"ha":1311,"x_min":-429,"x_max":1204,"o":"m 928 840 q 690 673 820 783 q 459 444 561 563 l 579 444 q 715 644 635 544 q 918 865 794 744 l 928 840 m 1175 996 l 1204 956 q 819 461 954 690 q 684 90 684 231 q 692 45 684 57 q 714 33 700 33 q 867 125 764 33 q 1085 383 971 217 l 1127 355 q 865 57 994 160 q 633 -45 737 -45 q 519 -1 561 -45 q 477 119 477 43 q 501 261 477 182 q 552 392 525 340 l 412 392 q 65 62 211 162 q -215 -39 -81 -39 q -368 9 -308 -39 q -429 134 -429 58 q -396 228 -429 190 q -311 266 -363 266 q -244 239 -271 266 q -218 171 -218 212 q -238 110 -218 134 q -292 85 -258 85 q -298 86 -295 85 q -277 87 -302 87 q -246 56 -276 76 q -163 36 -216 36 q -57 59 -116 36 q 62 124 1 81 q 354 404 155 190 q 406 461 388 442 q 795 815 625 698 q 1175 996 965 932 z "},"B":{"ha":1389,"x_min":-305,"x_max":1093,"o":"m 1093 990 l 1093 941 l 1043 941 q 961 928 1002 941 q 914 912 920 916 q 1005 836 960 893 q 1050 707 1050 779 q 963 539 1050 603 q 736 462 877 475 l 747 486 l 746 486 q 925 431 858 486 q 991 282 991 376 q 961 167 991 223 q 876 67 930 111 q 730 -11 812 17 q 564 -39 648 -39 q 430 2 485 -39 q 376 104 376 42 q 411 189 376 153 q 494 224 446 224 q 552 213 527 224 q 609 161 577 201 q 550 101 565 125 q 536 57 536 77 q 546 28 536 37 q 578 19 555 19 q 636 38 606 19 q 695 92 667 56 q 752 194 731 138 q 772 302 772 250 q 741 402 772 368 q 648 437 709 437 q 614 435 640 437 q 566 434 603 434 l 589 485 q 781 573 712 503 q 849 733 849 642 q 837 799 849 770 q 814 836 825 828 q 633 547 777 806 q 533 369 570 434 q 266 64 416 167 q -66 -39 115 -39 q -237 9 -170 -39 q -305 134 -305 57 q -273 226 -305 189 q -191 263 -241 263 q -118 234 -147 263 q -88 163 -88 205 q -105 107 -88 132 q -139 76 -123 82 q -117 37 -138 56 q -53 18 -95 18 q 118 100 36 18 q 331 422 201 182 q 547 756 452 647 q 719 899 642 865 q 665 911 716 901 q 547 922 613 922 q 331 883 433 922 q 146 771 230 845 q 31 623 70 703 q -9 460 -9 543 q 24 360 -9 398 q 107 321 57 321 q 231 392 176 321 q 286 559 286 463 q 274 661 286 618 q 226 753 262 703 l 271 779 q 323 677 309 727 q 338 572 338 627 q 311 426 338 490 q 223 309 283 362 q 133 250 182 270 q 31 230 83 230 q -133 294 -68 230 q -198 456 -198 357 q -134 660 -198 561 q 49 833 -69 758 q 295 940 159 905 q 589 976 431 976 q 700 968 643 976 q 810 947 758 960 q 918 983 859 970 q 1034 996 976 996 q 1057 995 1048 996 q 1093 990 1066 995 z "},"C":{"ha":1003,"x_min":-140,"x_max":890,"o":"m 513 857 l 551 827 q 502 765 513 789 q 491 717 491 741 q 514 658 491 681 q 574 635 536 635 q 640 654 607 635 q 701 709 673 673 q 739 781 725 742 q 753 852 753 819 q 735 906 753 888 q 677 924 716 924 q 527 887 610 924 q 366 781 445 849 q 157 515 233 665 q 81 222 81 366 q 125 71 81 126 q 239 16 169 16 q 398 99 328 16 q 467 296 467 182 q 444 390 467 358 q 379 421 420 421 q 282 357 325 421 q 240 197 240 293 q 241 179 240 189 q 241 146 241 169 l 194 146 q 189 185 189 178 q 188 197 188 192 q 261 417 188 327 q 439 508 335 508 q 579 455 525 508 q 634 319 634 403 q 598 191 634 254 q 496 76 562 128 q 334 -17 422 16 q 161 -50 245 -50 q -59 31 22 -50 q -140 250 -140 112 q -63 514 -140 378 q 149 762 14 650 q 415 921 271 863 q 689 979 559 979 q 835 933 781 979 q 890 810 890 888 q 806 641 890 713 q 612 568 722 568 q 488 609 536 568 q 439 715 439 650 q 455 787 439 753 q 513 857 471 821 z "},"D":{"ha":1389,"x_min":-220,"x_max":1311,"o":"m 856 788 q 729 559 812 728 q 602 325 647 390 q 401 120 516 201 q 216 20 286 39 q 226 24 180 28 q 319 19 271 19 q 526 56 433 19 q 694 170 618 94 q 833 386 782 259 q 884 644 884 513 q 872 739 884 699 q 856 788 861 780 m 1311 1015 q 1107 954 1139 962 q 907 857 953 909 q 1028 698 980 795 q 1076 498 1076 601 q 1004 255 1076 371 q 810 67 933 138 q 602 -7 724 18 q 328 -33 479 -33 q 164 -23 272 -33 q 90 -16 112 -18 q 4 -30 43 -25 q -68 -34 -35 -34 q -178 -18 -136 -34 q -220 35 -220 -3 q -199 71 -220 60 q -147 83 -178 83 q -47 73 -111 83 q 110 43 18 63 q 248 134 177 58 q 405 369 318 210 q 441 441 416 392 q 619 734 536 631 q 706 825 662 786 q 771 878 749 865 q 682 914 747 895 q 545 932 616 932 q 356 891 448 932 q 193 777 263 850 q 93 628 129 711 q 58 465 58 546 q 89 353 58 392 q 174 313 120 313 q 311 392 249 313 q 373 578 373 471 q 362 662 373 618 q 322 773 352 706 l 369 789 q 412 671 401 719 q 423 578 423 624 q 402 456 423 515 q 342 350 381 398 q 236 261 297 293 q 114 230 176 230 q -60 301 9 230 q -130 475 -130 372 q -81 669 -130 574 q 56 833 -31 764 q 267 946 146 907 q 518 985 388 985 q 691 965 612 985 q 827 911 771 945 q 974 977 889 951 q 1311 1015 1059 1004 z "},"E":{"ha":978,"x_min":-231,"x_max":711,"o":"m 303 623 l 321 671 q 373 653 355 656 q 410 650 390 650 q 503 692 467 650 q 538 807 538 734 q 512 895 538 863 q 443 927 486 927 q 380 902 411 927 q 332 831 349 876 q 307 716 318 797 q 278 597 296 635 q 159 494 255 547 q 102 461 121 473 q 21 369 52 427 q -10 245 -10 311 q 52 83 -10 147 q 210 19 115 19 q 366 84 301 19 q 430 241 430 150 q 400 335 430 301 q 323 368 371 368 q 231 332 277 368 q 142 210 185 296 l 94 229 q 240 406 155 349 q 422 463 326 463 q 556 416 505 463 q 608 292 608 368 q 566 161 608 222 q 441 48 524 100 q 278 -24 366 0 q 96 -48 191 -48 q -141 18 -52 -48 q -231 193 -231 83 q -181 334 -231 273 q -16 454 -131 395 q -1 461 -11 457 q 62 528 53 488 q 75 604 66 545 q 96 704 84 663 q 126 781 107 745 q 170 848 145 818 q 310 946 222 909 q 486 984 398 984 q 648 937 586 984 q 711 808 711 889 q 629 656 711 716 q 429 596 547 596 q 375 601 401 596 q 303 623 349 606 z "},"F":{"ha":1235,"x_min":-194,"x_max":1384,"o":"m 1059 793 q 892 693 975 777 q 748 487 810 609 q 783 496 756 488 q 822 515 810 505 q 865 565 838 549 q 942 580 892 580 q 988 578 957 580 q 1090 573 1019 576 q 873 380 944 460 q 748 201 802 300 l 697 201 q 739 335 717 276 q 779 434 760 394 l 720 429 q 448 82 611 203 q 77 -39 284 -39 q -120 11 -45 -39 q -194 146 -194 60 q -163 235 -194 199 q -81 271 -132 271 q -7 242 -37 271 q 22 170 22 214 q -2 104 22 132 q -37 77 -26 77 q -3 39 -35 61 q 81 16 28 16 q 276 107 186 16 q 479 419 367 198 q 472 418 490 420 q 414 414 454 416 l 427 471 l 446 471 q 510 475 494 473 q 714 705 591 619 q 993 828 837 791 l 1015 798 q 869 805 938 803 q 739 808 800 808 q 346 786 500 808 q 96 718 192 764 q -22 628 21 681 q -64 526 -64 576 q -12 434 -64 473 q 122 395 40 395 q 259 422 190 395 q 372 492 329 450 q 414 551 399 521 q 429 612 429 582 q 423 651 429 631 q 400 713 418 671 l 443 735 q 474 663 467 691 q 481 603 481 634 q 464 507 481 554 q 414 420 446 459 q 286 323 361 357 q 127 288 212 288 q -52 352 14 288 q -119 524 -119 415 q -68 677 -119 604 q 74 810 -18 751 q 408 937 206 895 q 876 979 610 979 q 1033 975 940 979 q 1156 972 1126 972 l 1213 972 q 1341 952 1297 972 q 1384 885 1384 932 q 1332 811 1384 833 q 1182 789 1280 789 q 1131 790 1162 789 q 1059 793 1099 791 z "},"G":{"ha":1003,"x_min":-252,"x_max":956,"o":"m 398 787 q 474 734 426 756 q 582 712 523 712 q 737 759 675 712 q 799 865 799 806 q 777 917 799 899 q 710 935 754 935 q 550 892 638 935 q 398 787 463 849 m 421 1097 l 441 1051 q 354 996 378 1028 q 330 922 330 964 q 333 892 330 907 q 332 885 335 877 q 528 960 424 932 q 734 988 633 988 q 897 953 837 988 q 956 848 956 918 q 866 703 956 762 q 644 645 776 645 q 476 674 549 645 q 360 750 404 703 q 259 605 300 691 q 218 437 218 519 q 241 349 218 380 q 300 317 264 317 q 358 331 327 317 q 414 365 390 344 q 444 419 433 382 q 448 432 446 427 q 477 492 461 470 q 515 524 492 513 q 594 550 549 540 q 676 559 640 559 q 708 550 694 559 q 723 521 723 540 q 706 481 723 508 q 692 459 698 468 q 659 390 683 442 q 616 305 635 337 q 378 54 522 142 q 64 -34 235 -34 q -164 29 -76 -34 q -252 193 -252 92 q -215 300 -252 256 q -121 345 -177 345 q -48 318 -77 345 q -20 245 -20 290 q -45 174 -20 204 q -98 142 -71 144 q -100 135 -98 142 q -102 123 -102 128 q -59 50 -102 81 q 52 18 -16 18 q 256 105 159 18 q 387 274 353 192 q 326 252 393 280 q 195 224 259 224 q 47 283 104 224 q -9 436 -9 342 q 72 667 -9 554 q 286 859 154 781 q 282 881 286 863 q 278 918 278 900 q 311 1026 278 981 q 421 1097 344 1072 z "},"H":{"ha":1389,"x_min":-330,"x_max":1523,"o":"m 578 512 l 699 512 q 831 703 755 616 q 994 844 907 789 q 1182 934 1084 901 q 1354 968 1280 968 q 1477 941 1430 968 q 1523 861 1523 913 q 1500 798 1523 825 q 1442 771 1476 771 q 1382 792 1409 771 q 1337 851 1356 814 q 1310 889 1323 879 q 1278 899 1297 899 q 1142 817 1228 899 q 968 595 1055 734 q 849 352 892 471 q 806 146 806 232 q 820 82 806 104 q 854 60 834 60 q 960 127 894 60 q 1172 396 1027 194 l 1213 368 q 957 53 1057 142 q 764 -36 857 -36 q 643 18 686 -36 q 599 165 599 73 q 620 301 599 225 q 671 452 640 378 l 543 452 q 269 99 424 219 q -77 -22 115 -22 q -261 23 -191 -22 q -330 150 -330 68 q -297 241 -330 205 q -212 277 -264 277 q -144 249 -172 277 q -117 180 -117 221 q -132 120 -117 146 q -159 83 -146 93 q -121 53 -151 69 q -58 36 -92 36 q 17 61 -19 36 q 113 166 53 87 q 269 403 172 245 q 410 627 366 561 q 613 841 502 763 q 713 917 724 920 l 838 917 q 264 820 481 917 q 47 585 47 722 q 73 513 47 539 q 143 487 98 487 q 251 533 204 487 q 298 629 298 579 q 292 664 298 648 q 259 722 286 681 l 310 741 q 343 677 336 698 q 351 635 351 656 q 336 566 351 600 q 294 499 321 532 q 189 421 249 449 q 64 393 130 393 q -79 447 -22 393 q -136 581 -136 500 q 90 848 -136 746 q 702 968 315 951 q 833 971 757 970 q 927 975 910 972 q 990 985 952 979 q 1059 994 1046 994 q 1091 985 1075 994 q 1107 957 1107 975 q 1017 913 1105 916 q 1003 913 1008 913 q 937 905 965 911 q 884 887 909 899 q 756 780 821 858 q 578 512 691 702 z "},"I":{"ha":1003,"x_min":-326,"x_max":1248,"o":"m 1052 894 q 901 811 974 878 q 751 612 828 745 q 692 508 730 576 q 380 91 512 191 q 193 -7 300 30 q -5 -44 87 -44 q -238 13 -149 -44 q -326 167 -326 70 q -294 254 -326 219 q -212 290 -261 290 q -140 262 -168 290 q -112 191 -112 235 q -130 132 -112 157 q -165 102 -149 106 q -164 110 -163 113 q -164 102 -164 106 q -124 37 -164 64 q -18 9 -85 9 q 99 36 42 9 q 211 117 156 62 q 390 383 283 190 q 476 533 444 483 q 702 788 580 696 q 871 894 825 880 l 991 894 q 356 793 587 894 q 126 530 126 692 q 155 451 126 482 q 231 420 184 420 q 336 465 290 420 q 381 568 381 510 q 374 613 381 591 q 340 669 366 634 l 378 699 q 422 630 411 659 q 433 568 433 601 q 350 402 433 473 q 155 332 268 332 q 2 386 63 332 q -59 522 -59 439 q 188 824 -59 713 q 869 945 435 935 l 966 945 q 1029 947 1013 945 q 1055 950 1045 948 q 1087 959 1065 953 q 1187 977 1157 977 q 1230 966 1212 977 q 1248 933 1248 956 q 1226 895 1248 908 q 1175 882 1204 882 q 1132 885 1161 882 q 1052 894 1103 888 z "},"J":{"ha":1003,"x_min":-541,"x_max":1223,"o":"m 145 6 q -242 -93 -130 -33 q -355 -252 -355 -152 q -324 -332 -355 -302 q -239 -361 -293 -361 q -46 -266 -144 -361 q 145 6 52 -170 m 1027 894 q 920 847 970 882 q 813 743 869 812 q 414 79 715 622 l 431 109 q 597 198 496 127 q 781 387 698 270 l 823 359 q 623 152 734 231 q 393 43 512 73 q 94 -293 268 -171 q -271 -415 -81 -415 q -468 -369 -394 -415 q -541 -237 -541 -322 q -481 -99 -541 -151 q -295 -15 -421 -46 q -62 25 -224 3 q 174 60 100 47 q 262 215 202 108 q 631 752 492 629 q 777 852 694 808 q 857 894 861 895 l 966 894 q 330 792 561 894 q 100 530 100 691 q 130 452 100 484 q 205 420 161 420 q 310 465 265 420 q 355 568 355 509 q 348 613 355 591 q 312 670 340 634 l 353 698 q 397 630 387 659 q 408 568 408 601 q 325 402 408 473 q 131 332 243 332 q -23 386 38 332 q -84 522 -84 439 q 163 824 -84 713 q 844 945 410 935 l 942 945 q 1004 947 987 945 q 1029 950 1020 948 q 1063 959 1042 954 q 1161 977 1131 977 q 1204 967 1185 977 q 1223 933 1223 956 q 1201 895 1223 908 q 1149 882 1179 882 q 1106 885 1134 882 q 1027 894 1078 887 z "},"K":{"ha":1389,"x_min":-292,"x_max":1540,"o":"m -125 86 q -126 94 -125 100 q -127 86 -127 87 q -103 38 -127 58 q -39 19 -79 19 q 42 39 1 19 q 126 100 84 60 q 313 383 194 168 q 372 491 351 454 q 533 725 463 648 q 692 857 602 802 q 804 911 741 886 q 921 949 867 935 l 931 918 l 888 918 q 582 894 730 918 q 324 825 434 869 q 144 710 206 779 q 83 564 83 642 q 111 495 83 523 q 180 467 138 467 q 289 516 240 467 q 338 628 338 566 q 332 663 338 645 q 303 718 327 680 l 342 747 q 381 680 372 706 q 390 623 390 654 q 303 455 390 529 q 104 381 216 381 q -38 432 16 381 q -92 568 -92 484 q 115 838 -92 739 q 711 962 322 937 q 861 967 762 965 q 997 977 960 968 q 1070 992 1043 987 q 1111 997 1098 997 q 1146 986 1133 997 q 1160 956 1160 976 q 1140 924 1160 932 q 1089 917 1120 917 q 1057 918 1080 917 q 1021 920 1034 920 q 865 856 945 920 q 706 665 785 793 q 597 477 667 602 q 382 154 468 241 q 181 18 297 68 q -43 -33 66 -33 q -223 15 -155 -33 q -292 144 -292 62 q -260 228 -292 193 q -183 263 -227 263 q -106 236 -136 263 q -77 164 -77 208 q -95 111 -77 133 q -125 86 -114 88 m 1323 722 q 1374 818 1364 789 q 1384 873 1384 848 q 1375 917 1384 903 q 1358 931 1367 931 q 1329 920 1345 931 q 1293 881 1313 908 q 1234 790 1277 860 q 1157 680 1192 720 q 954 532 1069 580 q 777 483 840 484 q 820 430 774 484 q 866 307 866 376 q 835 183 866 265 q 804 68 804 102 q 810 56 804 62 q 827 51 816 51 q 964 138 871 51 q 1168 387 1058 225 l 1211 359 q 954 59 1065 151 q 741 -33 843 -33 q 630 3 671 -33 q 589 103 589 39 q 604 188 589 143 q 654 306 618 233 q 689 384 682 361 q 696 424 696 407 q 680 465 696 453 q 595 477 664 477 l 595 530 q 635 530 622 530 q 656 529 649 529 q 778 561 722 529 q 905 672 835 592 q 943 720 917 686 q 1097 881 1030 826 q 1229 957 1158 930 q 1373 984 1301 984 q 1494 953 1448 984 q 1540 865 1540 922 q 1491 766 1540 804 q 1323 722 1442 729 z "},"L":{"ha":900,"x_min":-532,"x_max":991,"o":"m 399 538 q 176 204 304 327 q -121 27 49 81 l -131 56 q -127 57 -143 56 q -97 58 -111 58 q 136 24 55 58 q 230 -53 218 -10 q 578 290 302 29 q 687 393 639 347 l 719 352 q 544 185 650 284 q 244 -119 315 -31 q 185 -231 242 -177 q 69 -284 127 -284 q 31 -273 47 -284 q 14 -241 14 -262 q 23 -216 14 -227 q 44 -197 31 -205 q 44 -191 44 -199 q 45 -168 45 -183 q -10 -43 45 -92 q -153 6 -65 6 q -268 -15 -174 6 q -433 -36 -362 -36 q -504 -23 -477 -36 q -532 22 -532 -9 q -501 65 -532 53 q -424 77 -471 77 q -321 73 -383 77 q -180 60 -259 69 q -23 184 -100 83 q 189 567 55 286 q 59 642 118 583 q 1 781 1 701 q 51 899 1 851 q 175 947 101 947 q 216 943 197 947 q 275 924 235 939 l 254 878 q 201 894 214 891 q 176 897 188 897 q 88 864 122 897 q 54 781 54 831 q 100 676 54 723 q 212 616 146 630 q 449 886 294 781 q 775 991 604 991 q 932 948 873 991 q 991 827 991 904 q 943 703 991 760 q 808 606 895 646 q 647 553 736 572 q 468 535 557 535 q 426 536 446 535 q 399 538 406 537 m 421 586 q 423 588 408 589 q 471 587 439 587 q 713 668 615 587 q 812 860 812 749 q 794 918 812 898 q 747 938 777 938 q 591 838 684 938 q 421 586 498 738 z "},"M":{"ha":1389,"x_min":-467,"x_max":1491,"o":"m 903 996 l 923 945 q 771 821 829 895 q 656 606 713 747 q 623 520 645 578 q 387 98 507 218 l 369 117 q 674 467 484 210 q 768 592 736 551 q 1083 889 928 793 q 1410 985 1238 985 q 1468 975 1444 985 q 1491 937 1491 965 q 1473 906 1491 918 q 1436 895 1455 895 q 1372 903 1411 895 q 1320 911 1333 911 q 1214 830 1276 911 q 1087 592 1152 749 q 1064 536 1079 574 q 885 195 966 298 q 756 72 827 123 q 719 33 685 21 l 623 33 q 933 114 804 33 q 1162 387 1062 195 l 1208 363 q 960 69 1102 158 q 616 -20 818 -20 q 587 -20 597 -20 q 572 -19 576 -20 q 524 -31 549 -26 q 473 -36 498 -36 q 430 -23 449 -36 q 412 11 412 -11 q 427 42 412 31 q 460 54 441 54 q 530 45 491 54 q 574 37 568 37 q 638 95 600 37 q 751 335 675 153 q 862 573 817 495 q 961 713 907 651 q 1093 839 1022 784 q 1230 928 1164 895 l 1237 902 q 1052 807 1155 883 q 845 602 949 731 q 728 450 805 553 q 466 134 563 229 q 347 32 404 73 q 220 -43 290 -9 l 182 -8 q 298 238 246 77 q 376 460 350 399 q 553 748 450 633 q 782 925 655 862 l 792 902 q 602 789 699 865 q 408 591 505 713 q 257 384 360 533 q 85 159 153 234 q -84 12 -1 61 q -249 -37 -167 -37 q -405 12 -342 -37 q -467 138 -467 60 q -436 228 -467 191 q -355 264 -404 264 q -283 236 -313 264 q -253 167 -253 208 q -272 112 -253 135 q -315 80 -291 89 q -314 83 -313 89 q -315 76 -315 77 q -290 50 -315 64 q -220 36 -265 36 q -105 66 -162 36 q 20 167 -47 97 q 227 433 93 241 q 294 526 271 495 q 574 833 437 726 q 903 996 711 940 z "},"N":{"ha":1260,"x_min":-408,"x_max":1409,"o":"m 649 983 l 599 869 q 595 832 596 846 q 594 807 594 819 q 645 576 594 736 q 669 496 662 524 q 700 363 691 420 q 709 254 709 307 l 709 343 q 972 784 819 597 q 1267 972 1126 972 q 1370 931 1330 972 q 1409 828 1409 891 q 1354 700 1409 753 q 1181 625 1298 647 l 1181 677 q 1249 707 1232 686 q 1267 760 1267 728 q 1244 817 1267 796 q 1181 837 1222 837 q 915 613 1064 837 q 602 -55 766 389 l 545 -55 q 553 8 551 -12 q 555 52 555 28 q 544 171 555 107 q 513 294 534 235 q 498 342 509 311 q 414 612 418 578 q 122 139 275 309 q -203 -30 -31 -30 q -349 18 -291 -30 q -408 140 -408 66 q -376 231 -408 193 q -298 269 -344 269 q -229 240 -256 269 q -201 170 -201 212 q -224 102 -201 130 q -286 75 -248 75 l -266 75 q -240 56 -266 73 q -171 39 -214 39 q 102 194 -33 39 q 402 714 236 349 q 401 723 402 714 q 401 737 401 732 q 451 917 401 851 q 591 983 500 983 l 649 983 z "},"O":{"ha":1132,"x_min":-155,"x_max":948,"o":"m 652 297 q 653 300 638 302 q 689 298 668 298 q 798 320 746 298 q 928 406 850 341 l 948 357 q 815 270 876 294 q 688 245 755 245 q 646 247 667 245 q 615 252 625 250 q 374 39 510 120 q 113 -41 239 -41 q -83 38 -10 -41 q -155 253 -155 118 q -75 532 -155 392 q 148 780 6 671 q 304 873 223 838 q 463 918 385 908 q 537 967 496 949 q 621 985 578 985 q 759 914 705 985 q 812 733 812 842 q 765 510 812 632 q 652 297 719 388 m 537 351 q 606 550 581 448 q 631 742 631 651 q 610 870 631 831 q 553 910 589 910 q 531 904 543 910 q 541 919 520 899 q 583 882 549 919 q 618 785 618 846 q 609 725 618 754 q 576 649 601 695 l 528 664 q 560 737 553 713 q 567 779 567 760 q 547 846 567 824 q 490 869 527 869 l 493 869 q 453 770 469 833 q 437 629 437 707 q 466 449 437 518 q 537 351 494 380 m 410 852 q 345 806 406 852 q 227 688 284 760 q 113 475 157 597 q 69 249 69 353 q 112 95 69 151 q 224 39 155 39 q 378 115 292 39 q 513 298 463 191 q 382 416 434 336 q 331 603 331 497 q 361 753 331 677 q 410 852 391 828 z "},"P":{"ha":1311,"x_min":-268,"x_max":1198,"o":"m 1146 1011 l 1154 966 q 1052 941 1076 949 q 1044 943 1027 933 q 1147 851 1095 921 q 1198 696 1198 781 q 1106 502 1198 581 q 879 424 1015 424 q 755 452 803 424 q 707 533 707 481 q 733 594 707 570 q 798 618 759 618 q 836 611 819 618 q 881 572 853 604 q 841 533 849 549 q 833 501 833 517 q 838 483 833 489 q 850 477 843 477 q 888 494 865 477 q 933 543 911 511 q 981 640 964 587 q 998 742 998 692 q 983 835 998 800 q 952 878 968 869 q 898 824 930 860 q 831 739 865 787 q 704 528 784 672 q 578 316 625 385 q 393 122 497 197 q 237 32 289 47 q 267 32 208 36 q 380 27 326 27 q 802 108 638 27 q 1088 384 966 189 l 1136 363 q 843 51 990 140 q 489 -39 696 -39 q 333 -30 423 -39 q 121 -3 243 -21 q 8 -30 60 -20 q -90 -39 -44 -39 q -215 -16 -163 -39 q -268 47 -268 7 q -247 83 -268 71 q -197 94 -226 94 q -132 89 -174 94 q -39 75 -91 84 q 34 62 -11 70 q 109 50 103 50 q 134 59 115 50 q 179 87 153 68 q 265 172 224 120 q 367 330 307 224 q 414 414 383 357 q 656 774 547 659 q 776 881 716 838 q 857 932 836 924 q 821 935 865 927 q 720 943 777 943 q 504 908 610 943 q 312 809 398 873 q 163 644 219 739 q 106 467 106 549 q 136 370 106 405 q 214 336 165 336 q 330 400 281 336 q 378 564 378 465 q 375 630 378 602 q 356 705 371 659 l 406 718 q 425 638 420 671 q 430 567 430 606 q 411 443 430 498 q 351 338 391 387 q 248 257 307 286 q 127 227 189 227 q -23 287 36 227 q -81 440 -81 347 q 8 679 -81 564 q 258 880 98 795 q 490 967 368 937 q 743 997 611 997 q 852 990 798 997 q 953 972 905 984 q 1036 998 990 988 q 1146 1011 1082 1008 z "},"Q":{"ha":1080,"x_min":-393,"x_max":899,"o":"m -55 53 q -26 35 -20 32 q -192 103 -141 103 q -237 91 -221 103 q -253 64 -253 79 q -234 41 -253 52 q -179 30 -216 30 q -116 38 -153 30 q -55 53 -79 45 m 219 109 q 290 100 229 107 q 401 92 351 92 q 645 157 539 92 q 861 389 750 222 l 899 358 q 596 35 754 145 q 288 -75 439 -75 q 147 -51 218 -75 q 3 19 76 -26 q -134 -18 -64 -5 q -269 -31 -204 -31 q -360 -14 -327 -31 q -393 41 -393 3 q -316 125 -393 94 q -134 157 -239 157 q -20 150 -83 157 q 129 127 43 142 q 487 374 355 221 q 620 689 620 526 q 570 847 620 787 q 441 906 521 906 q 282 830 350 906 q 215 650 215 753 q 256 523 215 572 q 358 475 297 475 q 461 518 413 475 q 534 652 509 561 l 581 637 q 461 449 554 518 q 258 380 368 380 q 107 437 167 380 q 47 583 47 494 q 98 744 47 667 q 240 882 148 821 q 382 951 309 928 q 532 975 455 975 q 751 900 665 975 q 837 708 837 825 q 666 384 837 541 q 219 109 495 228 z "},"R":{"ha":1389,"x_min":-298,"x_max":1208,"o":"m 1101 994 l 1101 943 l 1057 943 q 983 935 1015 943 q 960 932 952 927 q 1052 857 1006 915 q 1097 724 1097 798 q 994 538 1097 608 q 729 469 892 469 l 717 469 l 720 486 q 827 405 790 450 q 865 298 865 360 q 835 174 865 250 q 805 72 805 98 q 810 55 805 60 q 823 50 814 50 q 964 134 873 50 q 1167 385 1055 218 l 1208 357 q 962 61 1079 159 q 742 -37 845 -37 q 628 1 671 -37 q 585 104 585 40 q 596 176 585 139 q 639 275 607 212 l 640 275 q 686 403 686 368 q 670 446 686 431 q 621 462 653 462 l 577 462 l 608 520 q 646 517 637 517 q 659 516 654 516 q 820 585 751 516 q 889 750 889 654 q 876 813 889 785 q 848 852 863 841 q 752 736 808 817 q 583 446 696 656 l 583 444 q 325 100 447 196 q 139 -2 239 33 q -62 -37 40 -37 q -230 11 -162 -37 q -298 135 -298 59 q -266 224 -298 188 q -183 260 -233 260 q -110 232 -140 260 q -79 163 -79 204 q -97 107 -79 130 q -130 80 -114 85 l -130 79 q -110 34 -130 50 q -46 19 -91 19 q 117 93 37 19 q 296 344 197 166 q 340 422 311 370 q 606 812 490 699 q 688 877 644 847 q 745 914 731 907 q 698 924 744 914 q 602 934 652 934 q 359 891 475 934 q 159 771 243 848 q 58 641 92 709 q 24 501 24 572 q 52 409 24 440 q 132 378 79 378 q 279 461 217 378 q 340 676 340 544 q 338 714 340 696 q 329 766 336 732 l 375 781 q 389 719 387 740 q 391 676 391 698 q 373 538 391 600 q 317 427 355 477 q 198 324 267 359 q 50 288 128 288 q -107 346 -46 288 q -169 497 -169 404 q -93 703 -169 604 q 117 873 -17 802 q 352 959 224 930 q 621 988 479 988 q 748 983 688 988 q 857 967 808 977 q 942 989 897 981 q 1032 997 987 997 q 1077 994 1045 997 q 1101 994 1079 994 z "},"S":{"ha":978,"x_min":-275,"x_max":969,"o":"m 681 675 q 764 752 749 723 q 779 817 779 781 q 754 895 779 865 q 696 926 730 926 q 643 905 669 926 q 599 844 617 884 q 557 542 566 773 q 557 511 557 522 q 521 257 552 354 q 424 93 490 159 q 267 -8 362 29 q 71 -45 171 -45 q -176 28 -77 -45 q -275 218 -275 102 q -237 340 -275 292 q -136 389 -199 389 q -65 359 -93 389 q -37 286 -37 330 q -61 213 -37 241 q -114 183 -85 184 q -116 171 -114 182 q -119 150 -119 160 q -70 51 -119 91 q 58 11 -21 11 q 188 46 130 11 q 281 144 246 81 q 344 482 329 233 q 347 524 345 509 q 379 736 354 665 q 456 863 404 807 q 582 950 509 921 q 745 980 655 980 q 907 936 845 980 q 969 815 969 891 q 918 705 969 749 q 793 661 867 661 q 759 662 775 661 q 681 675 743 663 z "},"T":{"ha":1235,"x_min":-127,"x_max":1451,"o":"m 1128 793 q 961 694 1040 774 q 787 432 882 614 q 639 198 703 275 q 496 69 576 121 q 326 -11 418 18 q 143 -39 234 -39 q -53 11 21 -39 q -127 146 -127 60 q -96 234 -127 198 q -17 271 -64 271 q 59 242 29 271 q 88 170 88 214 q 65 104 88 132 q 31 77 42 77 q 64 38 34 60 q 147 16 95 16 q 338 101 249 16 q 537 399 427 186 q 655 589 602 522 q 777 704 708 655 q 912 778 836 746 q 1065 829 989 810 l 1080 798 q 935 805 1004 803 q 806 808 866 808 q 413 786 567 808 q 163 718 259 764 q 45 628 87 681 q 2 526 2 576 q 54 434 2 473 q 189 395 106 395 q 326 422 256 395 q 439 492 395 450 q 481 551 467 520 q 495 612 495 582 q 490 651 495 631 q 466 715 485 671 l 511 734 q 541 664 534 692 q 548 603 548 635 q 530 507 548 554 q 481 420 513 459 q 353 323 428 357 q 195 288 278 288 q 15 352 81 288 q -52 524 -52 415 q -2 677 -52 604 q 142 810 49 751 q 476 937 274 895 q 943 979 677 979 q 1100 975 1007 979 q 1222 972 1193 972 l 1279 972 q 1407 952 1364 972 q 1451 885 1451 932 q 1399 811 1451 833 q 1249 789 1347 789 q 1198 790 1228 789 q 1128 793 1168 791 z "},"U":{"ha":1311,"x_min":-122,"x_max":1145,"o":"m 907 936 l 1145 936 q 747 306 852 490 q 643 66 643 121 q 652 36 643 45 q 677 26 661 26 q 853 120 738 26 q 1090 387 968 214 l 1126 351 q 857 57 992 160 q 610 -45 722 -45 q 493 -6 536 -45 q 450 104 450 34 q 461 169 450 134 q 485 229 472 204 l 509 213 q 301 33 411 102 q 98 -36 192 -36 q -1 2 37 -36 q -39 102 -39 39 q 123 445 -39 204 q 175 522 157 495 q 303 736 268 665 q 339 846 339 808 q 318 899 339 880 q 258 918 298 918 q 173 896 218 918 q 85 831 127 873 q 18 731 41 787 q -6 619 -6 675 q 11 551 -6 575 q 54 528 28 528 q 123 558 87 528 q 193 663 158 589 l 237 646 q 137 505 197 551 q 12 459 78 459 q -85 499 -48 459 q -122 604 -122 538 q -78 746 -122 672 q 39 878 -35 819 q 175 954 101 926 q 322 981 250 981 q 471 936 416 981 q 526 810 526 890 q 324 404 526 715 l 306 375 q 184 170 209 224 q 159 82 159 115 q 168 55 159 64 q 192 45 176 45 q 285 85 223 45 q 418 193 347 124 q 774 715 530 304 q 907 936 855 852 z "},"V":{"ha":1003,"x_min":-256,"x_max":918,"o":"m 496 984 l 530 930 q 326 581 407 850 q 315 545 319 557 q 204 248 259 362 q 95 76 150 134 l 82 96 q 556 434 391 251 q 722 807 722 617 l 722 802 q 702 829 711 810 q 692 871 692 848 q 723 944 692 914 q 796 975 753 975 q 885 937 852 975 q 918 839 918 900 q 795 554 918 707 q 453 254 673 401 q 181 92 365 195 q -94 -64 -3 -10 l -132 -24 q 35 336 -37 63 q 62 435 53 400 q 189 696 104 578 q 381 892 273 815 l 393 872 q 235 817 349 854 q 68 757 120 779 q -70 666 -24 716 q -116 561 -116 616 q -99 505 -116 526 q -56 484 -81 484 q 2 513 -22 484 q 27 587 27 543 q 24 620 27 604 q 5 675 21 635 l 52 684 q 73 626 68 647 q 77 585 77 606 q 25 460 77 509 q -109 412 -28 412 q -214 453 -172 412 q -256 555 -256 494 q -175 716 -256 652 q 79 829 -94 781 q 159 850 106 837 q 496 984 385 910 z "},"W":{"ha":1389,"x_min":-281,"x_max":1282,"o":"m 361 -57 l 312 -17 q 405 214 367 54 q 411 239 409 231 l 413 249 q 510 557 456 434 l 535 536 q 311 255 437 380 q 41 49 185 130 q -37 -15 2 8 q -109 -39 -75 -39 q -136 -30 -125 -39 q -146 -4 -146 -21 q -108 47 -146 18 q -90 62 -94 58 q -9 297 -52 127 q 68 551 34 467 q 189 752 115 667 q 378 912 263 837 l 382 884 q 210 830 315 862 q 92 793 105 799 q -82 695 -24 749 q -141 583 -141 640 q -122 523 -141 545 q -71 501 -102 501 q -19 525 -41 501 q 3 583 3 549 q 1 611 3 595 q -8 668 -1 627 l 36 677 q 51 624 47 641 q 54 585 54 606 q 0 464 54 514 q -127 413 -53 413 q -238 456 -195 413 q -281 566 -281 498 q -201 729 -281 664 q 57 845 -121 794 q 137 866 82 852 q 477 981 340 918 l 509 931 q 291 568 387 852 l 286 551 q 172 264 227 376 q 115 151 118 153 q 282 298 163 176 q 498 583 401 420 q 526 631 507 597 q 713 880 619 800 q 806 944 760 920 q 879 969 852 969 q 912 958 899 969 q 924 926 924 947 q 886 865 924 897 q 787 803 848 833 q 748 718 770 779 q 699 548 726 656 q 596 233 654 366 q 545 109 538 101 q 932 414 770 228 q 1095 796 1095 600 q 1095 808 1095 801 q 1094 813 1094 815 q 1072 838 1083 819 q 1061 880 1061 857 q 1093 951 1061 922 q 1168 980 1124 980 q 1250 939 1218 980 q 1282 839 1282 898 q 1198 592 1282 723 q 958 330 1114 461 q 494 21 786 186 q 361 -57 410 -27 z "},"X":{"ha":1389,"x_min":-202,"x_max":1440,"o":"m 809 737 q 1040 904 909 834 q 1287 973 1171 973 q 1398 945 1356 973 q 1440 863 1440 916 q 1409 789 1440 819 q 1333 759 1377 759 q 1282 771 1308 759 q 1219 817 1256 783 q 1242 852 1238 843 q 1245 869 1245 861 q 1234 894 1245 885 q 1198 903 1222 903 q 1057 848 1142 903 q 893 699 972 792 q 727 427 788 571 q 666 165 666 283 q 690 68 666 100 q 757 36 713 36 q 928 127 821 36 q 1158 396 1034 218 l 1198 366 q 922 57 1055 159 q 668 -44 789 -44 q 521 14 574 -44 q 469 174 469 71 q 471 212 469 193 q 465 186 473 232 q 256 33 389 104 q -7 -39 123 -39 q -148 3 -94 -39 q -202 114 -202 45 q -170 199 -202 165 q -89 234 -137 234 q -20 208 -47 234 q 7 142 7 182 q -9 89 7 111 q -39 62 -26 66 l -39 75 q -15 36 -39 54 q 49 19 10 19 q 206 75 116 19 q 382 230 296 130 q 472 352 431 288 q 547 493 512 416 q 601 635 584 574 q 617 750 617 697 q 580 873 617 830 q 479 917 543 917 q 386 895 433 917 q 302 833 340 873 q 235 722 260 787 q 211 590 211 657 q 243 475 211 517 q 325 433 275 433 q 436 496 386 433 q 494 675 487 559 l 541 675 l 541 635 q 531 574 541 610 q 503 505 520 538 q 391 378 461 425 q 244 331 321 331 q 105 390 159 331 q 50 541 50 448 q 103 721 50 629 q 243 876 155 812 q 390 952 309 924 q 543 980 472 980 q 741 917 670 980 q 812 737 812 853 q 810 690 812 721 q 809 737 809 688 z "},"Y":{"ha":1181,"x_min":-433,"x_max":1136,"o":"m 892 936 l 1136 936 q 746 327 954 669 q 468 -105 538 -16 q 192 -349 342 -267 q -131 -431 41 -431 q -350 -374 -267 -431 q -433 -216 -433 -317 q -367 -80 -433 -130 q -193 -30 -300 -30 q -127 -37 -160 -30 q -37 -64 -94 -43 l -52 -109 q -106 -96 -93 -98 q -129 -94 -120 -94 q -204 -133 -173 -94 q -235 -235 -235 -172 q -198 -339 -235 -300 q -98 -378 -160 -378 q 30 -336 -38 -378 q 162 -215 98 -294 q 453 208 237 -123 l 477 244 l 502 225 q 297 38 412 113 q 85 -36 181 -36 q -15 2 22 -36 q -52 104 -52 40 q 104 436 -52 193 l 121 461 q 161 522 134 482 q 326 856 326 774 q 304 901 326 882 q 252 920 283 920 q 164 898 209 920 q 79 837 119 877 q 9 732 35 792 q -17 616 -17 671 q 0 550 -17 573 q 43 528 16 528 q 107 557 73 528 q 173 654 140 587 l 227 654 q 124 504 184 553 q 3 456 64 456 q -96 496 -59 456 q -133 603 -133 537 q -97 737 -133 671 q 5 859 -61 803 q 153 950 76 919 q 309 981 229 981 q 455 934 399 981 q 512 807 512 886 q 323 424 512 712 q 283 363 297 384 q 174 176 203 237 q 144 83 144 115 q 154 58 144 68 q 182 48 164 48 q 276 89 214 48 q 408 197 339 129 q 592 440 478 268 q 892 936 705 613 z "},"Z":{"ha":1003,"x_min":-329,"x_max":927,"o":"m -90 129 l -104 153 q -22 189 -73 174 q 85 205 28 205 q 301 161 163 205 q 302 161 302 161 q 407 130 375 137 q 465 123 439 123 q 618 184 541 123 q 779 385 694 245 l 826 364 q 566 59 696 159 q 311 -41 436 -41 q 222 -28 267 -41 q 125 13 178 -16 q 97 28 115 18 q -71 87 -12 87 q -142 72 -107 87 q -192 38 -177 57 q -251 -31 -232 -14 q -289 -48 -270 -48 q -318 -38 -307 -48 q -329 -9 -329 -27 q -256 71 -329 20 q -142 159 -190 119 q 87 354 -64 224 q 305 537 238 484 q 522 697 379 595 q 709 833 664 799 l 726 811 q 595 747 670 772 q 447 722 520 722 q 371 728 411 722 q 287 745 330 734 q 226 764 265 752 q 97 795 131 795 q 2 755 41 795 q -38 664 -38 716 q -6 591 -38 620 q 75 562 26 562 q 153 583 114 562 q 231 656 192 604 l 271 632 q 173 529 228 562 q 62 496 118 496 q -47 540 -5 496 q -90 652 -90 584 q -62 772 -90 715 q 16 873 -35 829 q 124 936 65 913 q 245 958 184 958 q 448 908 319 958 q 481 895 470 899 q 567 868 533 876 q 633 861 600 861 q 718 872 675 861 q 785 900 760 884 q 836 961 809 937 q 889 984 863 984 q 917 971 907 984 q 927 940 927 958 q 909 905 927 920 q 845 861 891 889 q 676 734 770 819 q 653 713 659 719 q 624 687 644 705 q -90 129 289 389 z "},"[":{"ha":541,"x_min":-496,"x_max":627,"o":"m 627 927 l 613 870 l 428 870 l -283 -253 l -123 -253 l -123 -311 l -496 -311 l 286 927 l 627 927 z "},"\\":{"ha":900,"x_min":97,"x_max":670,"o":"m 216 981 l 670 -153 l 554 -153 q 323 433 432 162 q 97 981 214 705 l 216 981 z "},"]":{"ha":541,"x_min":-614,"x_max":511,"o":"m -277 -311 l -614 -311 l -605 -253 l -418 -253 l 296 870 l 136 870 l 136 927 l 511 927 l -277 -311 z "},"^":{"ha":1389,"x_min":234,"x_max":1152,"o":"m 775 1012 l 1152 588 l 1029 588 l 693 852 l 357 588 l 234 588 l 612 1012 l 775 1012 z "},"_":{"ha":694,"x_min":-20,"x_max":715,"o":"m 715 -191 l 715 -348 l -20 -348 l -20 -191 l 715 -191 z "},"`":{"ha":694,"x_min":54,"x_max":251,"o":"m 54 861 l 248 861 q 251 794 250 817 q 251 747 251 771 q 249 658 251 704 q 240 547 246 612 l 192 540 q 138 704 167 635 q 54 861 109 772 z "},"a":{"ha":765,"x_min":-347,"x_max":582,"o":"m 195 468 l 208 494 l 447 509 q 248 181 302 281 q 194 54 194 81 q 197 44 194 47 q 203 40 201 40 q 323 117 245 40 q 543 387 401 193 l 582 357 q 334 55 432 143 q 153 -34 237 -34 q 52 5 90 -34 q 13 107 13 45 q 13 121 13 114 q 7 58 14 127 q -65 8 2 51 q -195 -34 -132 -34 q -304 13 -262 -34 q -347 132 -347 59 q -305 284 -347 209 q -191 418 -264 360 q -64 490 -132 464 q 66 516 4 516 q 160 489 125 516 q 195 468 195 461 m 96 463 q 40 441 70 463 q -30 367 10 419 q -106 234 -77 304 q -135 118 -135 163 q -125 79 -135 92 q -97 66 -115 66 q -47 87 -74 66 q 14 155 -20 107 q 96 297 67 229 q 125 408 125 365 q 117 451 125 438 q 96 463 109 463 z "},"b":{"ha":739,"x_min":-330,"x_max":556,"o":"m 344 954 l -115 198 q -155 113 -140 155 q -170 50 -170 71 q -162 25 -170 33 q -140 18 -155 18 q 8 112 -72 18 q 130 354 87 207 q 124 377 127 363 q 121 403 121 391 q 151 483 121 452 q 229 513 180 513 q 305 477 275 513 q 334 386 334 440 q 333 355 334 370 q 329 330 331 340 q 360 309 342 317 q 396 300 378 300 q 450 316 423 300 q 515 383 477 333 l 556 355 q 477 272 515 296 q 396 248 438 248 q 340 259 368 248 q 315 269 313 271 q 279 202 310 252 q 203 110 248 153 q 44 6 135 45 q -126 -34 -47 -34 q -272 15 -213 -34 q -330 138 -330 64 q -240 366 -330 214 l -240 366 l 98 935 l 344 954 z "},"c":{"ha":590,"x_min":-344,"x_max":404,"o":"m 54 283 q 58 351 57 332 q 59 379 59 371 q 54 440 59 427 q 43 453 49 453 q 13 438 32 453 q -37 387 -7 423 q -107 271 -84 330 q -131 157 -131 213 q -106 77 -131 105 q -36 50 -81 50 q 135 128 37 50 q 369 387 233 207 l 404 351 q 130 57 262 152 q -135 -37 -3 -37 q -286 13 -227 -37 q -344 144 -344 62 q -295 303 -344 227 q -158 435 -247 379 q -28 495 -98 473 q 109 516 43 516 q 216 489 175 516 q 256 411 256 462 q 211 317 256 355 q 98 279 165 279 q 85 280 91 279 q 54 283 79 280 z "},"d":{"ha":765,"x_min":-347,"x_max":708,"o":"m 96 463 q 40 441 70 463 q -30 367 10 419 q -106 234 -77 304 q -135 118 -135 163 q -125 79 -135 92 q -97 66 -115 66 q -47 87 -74 66 q 14 155 -20 107 q 96 297 67 229 q 125 408 125 365 q 117 451 125 438 q 96 463 109 463 m 195 468 l 203 485 l 466 941 l 708 959 l 426 476 q 373 391 422 469 q 283 243 324 313 q 215 115 237 161 q 194 54 194 69 q 197 44 194 47 q 203 40 201 40 q 323 117 245 40 q 543 387 401 193 l 582 357 q 334 55 432 143 q 153 -34 237 -34 q 52 5 90 -34 q 13 107 13 45 q 13 121 13 114 q 7 58 14 127 q -65 8 2 51 q -195 -34 -132 -34 q -304 13 -262 -34 q -347 132 -347 59 q -305 284 -347 209 q -191 418 -264 360 q -64 490 -132 464 q 66 516 4 516 q 160 489 125 516 q 195 468 195 461 z "},"e":{"ha":590,"x_min":-344,"x_max":404,"o":"m -128 192 q -130 181 -127 197 q -132 150 -132 157 q -109 72 -132 98 q -43 45 -85 45 q 135 128 32 45 q 366 386 237 210 l 404 355 q 128 58 261 153 q -142 -37 -5 -37 q -290 13 -235 -37 q -344 151 -344 64 q -308 283 -344 217 q -209 401 -273 349 q -60 488 -143 456 q 104 519 24 519 q 203 491 165 519 q 241 412 241 463 q 152 285 241 335 q -128 192 63 235 m -115 247 q 11 320 -49 261 q 70 449 70 379 q 67 461 70 457 q 61 465 64 465 q -35 392 25 465 q -115 247 -94 319 z "},"f":{"ha":386,"x_min":-1147,"x_max":600,"o":"m 332 688 q 390 769 376 736 q 404 838 404 802 q 391 880 404 863 q 364 897 378 897 q 227 792 311 897 q 37 492 142 688 l 371 492 l 315 437 l 6 437 l -134 149 q -460 -298 -283 -155 q -871 -441 -638 -441 q -1072 -388 -996 -441 q -1147 -241 -1147 -335 q -1077 -99 -1147 -152 q -895 -46 -1008 -46 q -847 -48 -869 -46 q -787 -58 -826 -50 l -797 -109 q -823 -104 -819 -104 q -835 -104 -827 -104 q -918 -142 -884 -104 q -952 -240 -952 -181 q -915 -345 -952 -305 q -819 -385 -878 -385 q -628 -285 -727 -385 q -414 33 -528 -184 l -202 437 l -340 437 l -281 492 l -171 492 q 84 826 -70 702 q 406 951 238 951 q 546 912 492 951 q 600 808 600 873 q 551 702 600 747 q 433 657 502 657 q 394 662 413 657 q 332 688 374 667 z "},"g":{"ha":762,"x_min":-795,"x_max":583,"o":"m 191 463 l 206 496 l 441 505 l 186 64 q 331 163 233 81 q 537 382 430 245 l 583 360 q 359 120 469 209 q 143 -8 250 31 q -135 -331 31 -219 q -510 -443 -301 -443 q -717 -387 -638 -443 q -795 -236 -795 -332 q -724 -100 -795 -150 q -536 -50 -652 -50 q -490 -53 -513 -50 q -426 -63 -468 -55 l -433 -111 q -466 -108 -458 -109 q -485 -108 -473 -108 q -571 -143 -539 -108 q -602 -239 -602 -178 q -564 -345 -602 -303 q -469 -387 -526 -387 q -351 -347 -412 -387 q -222 -224 -290 -308 q -136 -99 -218 -218 q 18 111 -54 20 l 41 97 q -74 3 -8 40 q -207 -34 -140 -34 q -310 11 -271 -34 q -348 126 -348 55 q -314 263 -348 194 q -220 391 -281 332 q -82 485 -156 452 q 69 517 -7 517 q 155 493 121 517 q 191 463 188 469 m 128 412 q 119 452 128 440 q 94 465 110 465 q 47 447 74 465 q -12 395 20 430 q -108 248 -73 326 q -144 110 -144 170 q -134 69 -144 83 q -110 55 -123 55 q -46 84 -84 55 q 31 167 -7 113 q 101 298 75 228 q 128 412 128 368 z "},"h":{"ha":746,"x_min":-457,"x_max":573,"o":"m 332 964 l 8 418 q -61 307 -25 363 q -124 210 -98 250 l -149 222 q 49 447 -45 368 q 225 526 143 526 q 321 489 282 526 q 361 399 361 453 q 281 223 361 338 q 256 186 264 199 q 203 99 220 131 q 186 57 186 66 q 189 47 186 51 q 193 44 191 44 q 310 122 233 44 q 527 396 388 201 l 573 371 q 316 54 410 142 q 140 -34 221 -34 q 45 5 81 -34 q 9 107 9 43 q 26 191 9 149 q 89 298 43 233 q 127 349 102 317 q 172 427 172 406 q 166 436 172 431 q 149 441 160 441 q -10 318 98 441 q -222 -9 -118 195 l -457 -21 l 92 943 l 332 964 z "},"i":{"ha":399,"x_min":-345,"x_max":214,"o":"m 67 505 l 46 469 q -170 61 -170 118 q -166 50 -170 54 q -153 45 -161 45 q -26 133 -115 45 q 176 389 62 221 l 214 358 q -25 65 85 163 q -221 -33 -134 -33 q -312 5 -278 -33 q -345 106 -345 43 q -330 191 -345 143 q -286 288 -314 239 l -168 496 l 67 505 m 66 795 q 145 763 113 795 q 177 685 177 730 q 144 606 177 640 q 66 572 112 572 q -12 606 22 572 q -45 685 -45 640 q -12 763 -45 730 q 66 795 21 795 z "},"j":{"ha":399,"x_min":-1165,"x_max":220,"o":"m 62 506 l -192 58 q -43 155 -145 74 q 176 381 59 236 l 220 357 q -15 113 98 203 q -233 -15 -127 22 q -504 -330 -335 -215 q -871 -446 -672 -446 q -1085 -393 -1005 -446 q -1165 -248 -1165 -340 q -1093 -104 -1165 -157 q -901 -52 -1021 -52 q -855 -55 -877 -52 q -795 -70 -833 -58 l -806 -115 q -840 -113 -827 -115 q -859 -111 -853 -111 q -939 -145 -909 -111 q -968 -243 -968 -180 q -931 -350 -968 -309 q -835 -391 -893 -391 q -651 -294 -748 -391 q -435 14 -553 -197 l -166 493 l 62 506 m 54 795 q 132 763 100 795 q 165 685 165 730 q 132 606 165 640 q 54 572 100 572 q -24 606 9 572 q -56 685 -56 640 q -24 763 -56 730 q 54 795 8 795 z "},"k":{"ha":746,"x_min":-461,"x_max":566,"o":"m 333 966 l 66 516 q -53 318 -5 395 q -126 203 -100 242 l -149 220 q 53 443 -41 368 q 233 519 146 519 q 329 489 292 519 q 366 408 366 458 q 290 295 366 337 q 93 241 214 254 l 96 265 q 179 223 145 251 q 214 154 214 196 q 198 98 214 133 q 183 49 183 63 q 184 44 183 46 q 186 43 186 43 q 311 126 227 43 q 525 387 395 209 l 566 355 q 307 49 408 134 q 104 -36 205 -36 q 8 -2 47 -36 q -31 83 -31 31 q -2 174 -31 125 q 27 233 27 222 q 27 241 27 239 q 31 226 26 243 q 43 227 48 229 q -26 209 -4 209 q -54 219 -41 209 q -68 245 -68 229 q -50 280 -68 265 q -9 296 -31 296 q 22 289 4 296 q 43 283 40 283 q 112 321 76 283 q 148 407 148 360 q 144 417 148 413 q 134 421 140 421 q -20 301 86 421 q -226 -13 -125 182 l -461 -23 l 91 946 l 333 966 z "},"l":{"ha":399,"x_min":-345,"x_max":327,"o":"m 327 960 l -136 161 q -161 107 -152 135 q -170 61 -170 79 q -166 50 -170 54 q -153 45 -161 45 q -26 134 -115 45 q 176 389 63 222 l 214 358 q -25 65 85 163 q -221 -33 -134 -33 q -312 5 -278 -33 q -345 106 -345 43 q -330 190 -345 142 q -286 288 -315 237 l 85 947 l 327 960 z "},"m":{"ha":1096,"x_min":-457,"x_max":924,"o":"m 325 316 l 292 324 q 438 472 372 425 q 575 519 505 519 q 666 483 629 519 q 703 395 703 448 q 611 193 703 330 l 606 185 q 595 170 602 180 q 537 52 537 83 q 540 46 537 49 q 547 44 543 44 q 665 128 583 44 q 875 395 746 212 l 924 372 q 666 55 762 143 q 489 -34 570 -34 q 393 5 429 -34 q 357 107 357 43 q 375 191 357 149 q 436 295 392 233 q 475 349 450 315 q 520 424 520 407 q 516 437 520 431 q 509 442 511 442 q 355 321 458 442 q 142 -9 252 200 l -92 -24 l 130 357 q 153 403 146 387 q 160 427 160 419 q 155 437 160 432 q 146 442 151 442 q -10 318 98 442 q -222 -9 -119 193 l -457 -21 l -159 502 l 81 511 l -121 219 l -144 232 q 48 446 -39 374 q 215 519 136 519 q 309 485 273 519 q 344 396 344 452 q 336 346 344 372 q 325 316 328 321 z "},"n":{"ha":746,"x_min":-457,"x_max":573,"o":"m 527 396 l 573 371 q 316 54 410 142 q 140 -34 221 -34 q 45 5 81 -34 q 9 107 9 43 q 26 191 9 149 q 89 298 43 233 q 127 349 102 317 q 172 427 172 406 q 165 437 172 432 q 149 442 159 442 q -10 318 98 442 q -222 -9 -118 195 l -457 -21 l -159 502 l 81 511 l -121 219 l -144 232 q 52 449 -41 372 q 225 526 144 526 q 321 489 282 526 q 361 399 361 453 q 281 223 361 338 q 256 186 264 199 q 203 99 220 131 q 186 57 186 66 q 189 47 186 51 q 193 44 191 44 q 310 122 233 44 q 527 396 388 201 z "},"o":{"ha":746,"x_min":-329,"x_max":570,"o":"m 523 386 l 570 364 q 479 274 515 296 q 399 252 442 252 q 322 274 355 252 q 312 256 290 297 q 304 327 303 339 q 305 309 305 315 q 271 177 305 245 q 178 58 236 110 q 47 -13 123 11 q -121 -37 -28 -37 q -273 18 -216 -37 q -329 167 -329 73 q -298 301 -329 237 q -208 418 -267 366 q -73 500 -148 471 q 77 529 1 529 q 209 499 157 529 q 294 404 260 469 q 349 319 328 336 q 401 301 371 301 q 456 318 429 301 q 523 386 483 334 m 136 419 q 127 461 136 449 q 100 474 117 474 q 44 447 79 474 q -24 369 10 419 q -116 207 -84 285 q -148 72 -148 128 q -139 27 -148 39 q -111 16 -131 16 q -58 38 -89 16 q 3 101 -27 60 q 45 165 25 130 q 85 248 65 201 q 124 352 112 310 q 136 419 136 395 z "},"p":{"ha":746,"x_min":-724,"x_max":566,"o":"m -4 92 q -57 71 -23 91 q -91 29 -91 52 q -89 25 -91 27 q -86 23 -87 23 q -46 50 -75 23 q -4 92 -16 76 m 234 774 l 0 414 q -47 345 -15 391 q -106 260 -79 299 l -130 275 q 27 453 -52 388 q 183 519 106 519 q 290 472 250 519 q 330 349 330 425 q 308 242 330 294 q 277 182 286 191 q 372 240 296 187 q 526 392 448 293 l 566 358 q 392 191 480 250 q 210 110 304 132 q 55 11 134 45 q -100 -24 -24 -24 q -164 -7 -138 -24 q -190 41 -190 9 q -146 107 -190 87 q 37 146 -102 128 q 99 263 77 207 q 121 367 121 320 q 112 404 121 391 q 86 416 102 416 q -18 339 50 416 q -168 122 -86 263 l -497 -439 l -724 -444 l -7 759 l 234 774 z "},"q":{"ha":749,"x_min":-349,"x_max":572,"o":"m 191 467 l 203 493 l 444 507 l 187 73 q 324 168 229 88 q 524 384 419 247 l 572 365 q 359 129 466 218 q 139 -8 253 39 l -109 -449 l -347 -461 l -129 -100 l -126 -95 q 19 113 -51 24 l 39 97 q -75 1 -13 39 q -196 -37 -137 -37 q -308 7 -266 -37 q -349 125 -349 52 q -312 274 -349 199 q -208 406 -274 349 q -73 487 -147 457 q 65 517 1 517 q 155 494 120 517 q 191 467 191 470 m 93 462 q 33 439 65 462 q -35 368 1 417 q -115 230 -85 302 q -145 110 -145 158 q -134 71 -145 84 q -107 58 -123 58 q -48 84 -82 58 q 25 162 -14 110 q 99 294 72 225 q 127 410 127 363 q 118 450 127 438 q 93 462 109 462 z "},"r":{"ha":643,"x_min":-456,"x_max":460,"o":"m 371 533 q 264 405 285 443 q 244 334 244 367 q 255 296 244 309 q 283 283 266 283 q 341 306 307 283 q 425 389 375 329 l 460 355 q 338 241 403 277 q 200 206 273 206 q 82 244 128 206 q 37 345 37 282 q 41 379 37 362 q 28 355 45 396 q -83 231 -4 333 q -222 -12 -163 128 l -456 -22 l -170 496 l 64 504 l -37 345 q -134 198 -52 321 l -145 182 l -171 199 q -54 345 -119 276 q 69 448 12 414 q 114 494 91 479 q 168 512 136 509 l 371 533 z "},"s":{"ha":566,"x_min":-415,"x_max":384,"o":"m -9 307 q 23 367 19 352 q 27 401 27 382 q 15 450 27 433 q -16 467 2 467 q -47 451 -35 467 q -60 408 -60 435 q -5 302 -60 370 q 7 286 2 292 q 51 214 37 247 q 65 149 65 182 q 37 59 65 100 q -20 8 9 19 l -31 35 q 146 144 45 55 q 340 383 248 234 l 384 361 q 117 55 260 155 q -187 -45 -27 -45 q -353 -1 -291 -45 q -415 123 -415 44 q -378 214 -415 174 q -294 254 -341 254 q -229 229 -255 254 q -202 165 -202 203 q -224 108 -202 132 q -278 84 -246 84 q -309 92 -289 84 q -293 84 -311 93 q -291 87 -289 96 q -292 71 -292 78 q -273 28 -292 45 q -224 11 -254 11 q -157 39 -184 11 q -129 110 -129 67 q -174 203 -129 141 q -186 218 -182 213 q -228 287 -217 260 q -239 343 -239 314 q -168 472 -239 420 q 1 524 -96 524 q 138 491 84 524 q 191 399 191 457 q 156 326 191 356 q 72 296 121 296 q 24 307 55 296 q -9 307 24 307 z "},"t":{"ha":473,"x_min":-349,"x_max":296,"o":"m 174 689 l 54 492 l 240 492 l 199 437 l 19 437 l -115 199 q -149 123 -137 157 q -161 68 -161 88 q -155 45 -161 52 q -136 39 -149 39 q 27 128 -77 39 q 248 385 131 217 l 296 364 q 34 66 159 164 q -199 -33 -90 -33 q -309 5 -269 -33 q -349 113 -349 43 q -334 180 -349 139 q -293 271 -319 221 l -203 437 l -327 437 l -279 492 l -170 492 l -61 675 l 174 689 z "},"u":{"ha":751,"x_min":-358,"x_max":567,"o":"m 71 505 l -120 193 q -162 114 -146 151 q -177 62 -177 77 q -174 51 -177 55 q -167 47 -170 47 q -51 122 -124 47 q 100 335 22 198 l 191 493 l 427 505 l 229 169 q 189 95 199 121 q 178 52 178 68 q 182 41 178 45 q 189 37 185 37 q 316 125 227 37 q 524 382 405 212 l 567 356 q 312 49 410 136 q 126 -37 215 -37 q 34 0 71 -37 q -2 96 -2 38 q 1 129 -2 113 q 7 153 5 146 l 26 132 q -101 13 -31 61 q -233 -36 -172 -36 q -325 0 -291 -36 q -358 96 -358 36 q -342 177 -358 134 q -281 296 -326 220 l -165 496 l 71 505 z "},"v":{"ha":743,"x_min":-326,"x_max":559,"o":"m 329 327 q 358 308 337 317 q 397 298 378 298 q 452 316 424 298 q 522 385 480 333 l 559 355 q 477 271 517 296 q 393 246 437 246 q 341 257 367 246 q 314 269 315 268 q 265 180 305 237 q 167 77 224 123 q 18 -4 104 28 q -138 -36 -68 -36 q -275 12 -224 -36 q -326 140 -326 59 q -312 221 -326 179 q -269 315 -298 263 l -169 490 l 68 505 q -127 174 -90 252 q -164 53 -164 96 q -155 27 -164 37 q -134 18 -146 18 q 17 120 -66 18 q 130 365 100 222 q 123 383 127 370 q 120 410 120 395 q 150 481 120 451 q 221 511 180 511 q 304 475 275 511 q 334 379 334 439 q 333 353 334 367 q 329 327 331 338 z "},"w":{"ha":1080,"x_min":-348,"x_max":892,"o":"m 667 325 q 692 307 675 315 q 728 298 709 298 q 785 315 755 298 q 854 381 814 332 l 892 351 q 810 271 852 295 q 725 246 768 246 q 672 256 696 246 q 650 264 647 267 q 602 183 642 238 q 503 81 563 128 q 348 -7 433 26 q 191 -40 263 -40 q 60 1 111 -40 q 10 110 10 43 q 13 140 10 124 q 14 149 16 156 l 48 149 q -77 17 -8 66 q -214 -33 -145 -33 q -310 6 -273 -33 q -348 104 -348 45 q -273 301 -348 167 q -260 323 -264 316 l -166 490 l 73 505 q -138 159 -100 231 q -176 57 -176 86 q -171 42 -176 47 q -158 37 -167 37 q -56 103 -121 37 q 73 283 9 169 l 191 495 l 424 500 l 383 434 q 174 41 174 105 q 182 22 174 29 q 203 15 189 15 q 349 115 267 15 q 465 353 432 215 q 459 373 462 359 q 456 402 456 387 q 484 479 456 448 q 553 509 511 509 q 640 473 606 509 q 673 379 673 436 q 671 347 673 363 q 667 325 668 331 z "},"x":{"ha":772,"x_min":-509,"x_max":587,"o":"m 121 402 q 233 473 165 439 q 354 507 300 507 q 444 478 410 507 q 479 400 479 449 q 444 317 479 351 q 357 284 408 284 q 329 288 343 284 q 281 307 315 292 q 315 382 307 357 q 323 425 323 407 q 319 441 323 436 q 310 446 315 446 q 270 428 296 446 q 210 374 243 410 q 122 247 153 312 q 92 122 92 181 q 112 70 92 90 q 165 50 132 50 q 326 130 231 50 q 545 385 420 210 l 587 357 q 325 59 450 156 q 82 -37 199 -37 q -39 1 6 -37 q -84 106 -84 39 q -84 119 -84 114 q -98 53 -83 124 q -186 5 -106 43 q -350 -34 -267 -34 q -465 3 -420 -34 q -509 102 -509 40 q -477 192 -509 155 q -395 229 -444 229 q -332 205 -357 229 q -306 146 -306 181 q -326 91 -306 114 q -378 68 -347 68 q -393 70 -385 68 q -393 68 -401 71 q -391 72 -389 77 q -392 61 -392 66 q -378 30 -392 42 q -336 18 -363 18 q -251 47 -298 18 q -160 130 -203 76 q -82 256 -111 191 q -54 370 -54 321 q -63 407 -54 396 q -93 418 -73 418 q -142 398 -115 418 q -214 314 -170 377 l -252 344 q -140 471 -195 433 q -24 509 -85 509 q 82 470 43 509 q 121 402 120 431 z "},"y":{"ha":743,"x_min":-818,"x_max":560,"o":"m 420 505 l 163 64 q 309 163 210 81 q 515 382 408 245 l 560 360 q 337 119 446 208 q 123 -8 229 30 q -156 -331 10 -219 q -532 -443 -323 -443 q -739 -387 -661 -443 q -818 -236 -818 -332 q -746 -100 -818 -150 q -558 -50 -674 -50 q -513 -53 -535 -50 q -446 -63 -490 -55 l -456 -111 q -488 -108 -481 -109 q -507 -108 -496 -108 q -592 -142 -561 -108 q -623 -239 -623 -177 q -585 -345 -623 -303 q -490 -387 -547 -387 q -371 -347 -433 -387 q -242 -223 -309 -307 q -116 -38 -212 -185 q 22 171 -20 109 l 45 155 q -92 18 -18 73 q -233 -36 -167 -36 q -325 0 -291 -36 q -358 96 -358 36 q -342 177 -358 134 q -281 296 -326 220 l -166 496 l 71 505 l -120 193 q -162 114 -146 151 q -177 62 -177 77 q -174 51 -177 55 q -167 47 -170 47 q -49 124 -123 47 q 98 334 26 202 l 185 496 l 420 505 z "},"z":{"ha":625,"x_min":-409,"x_max":444,"o":"m -138 138 l -150 162 q -141 163 -159 162 q -107 163 -123 163 q -3 143 -70 163 q 94 122 63 122 q 222 171 160 122 q 399 385 284 220 l 444 363 q 190 66 313 169 q -32 -37 66 -37 q -91 -28 -61 -37 q -154 0 -120 -19 q -182 16 -163 5 q -254 46 -235 46 q -277 39 -266 46 q -302 14 -288 33 q -307 7 -304 12 q -370 -36 -338 -36 q -398 -25 -387 -36 q -409 3 -409 -14 q -340 70 -409 31 q -230 140 -272 109 q -193 172 -220 147 q 87 359 -49 297 l 98 330 q 63 323 90 328 q 5 319 35 319 q -89 331 -37 319 q -154 344 -140 344 q -186 338 -172 344 q -225 307 -199 332 l -259 340 q -146 475 -195 439 q -35 511 -97 511 q 91 483 19 511 q 183 455 163 455 q 199 457 189 455 q 216 461 210 459 q 246 510 227 489 q 289 532 264 532 q 315 521 304 532 q 326 494 326 510 q 248 411 326 469 q 149 335 191 370 l 149 335 q -138 138 -25 197 z "},"{":{"ha":694,"x_min":100,"x_max":597,"o":"m 597 969 q 472 938 499 968 q 446 810 446 909 l 446 717 q 403 496 446 558 q 345 431 361 434 q 403 365 361 427 q 446 144 446 303 l 446 52 q 472 -76 446 -47 q 597 -106 498 -105 l 597 -186 l 570 -186 q 349 -130 412 -186 q 286 69 286 -74 l 286 205 q 252 343 286 307 q 100 389 218 380 l 100 473 q 252 520 219 484 q 286 657 286 555 l 286 793 q 349 993 286 938 q 597 1048 413 1048 l 597 969 z "},"|":{"ha":694,"x_min":267,"x_max":429,"o":"m 429 1082 l 429 -348 l 267 -348 l 267 1082 l 429 1082 z "},"}":{"ha":694,"x_min":98,"x_max":595,"o":"m 410 793 l 410 657 q 444 520 410 555 q 595 473 477 484 l 595 389 q 444 344 478 380 q 410 205 410 308 l 410 69 q 347 -130 410 -73 q 125 -186 283 -186 l 98 -186 l 98 -106 q 222 -76 196 -105 q 249 52 249 -47 l 249 144 q 291 366 249 304 q 351 431 334 427 q 292 495 334 434 q 249 717 249 557 l 249 810 q 222 938 249 909 q 98 969 195 968 l 98 1048 l 125 1048 q 347 992 283 1048 q 410 793 410 936 z "},"~":{"ha":1157,"x_min":100,"x_max":1058,"o":"m 1058 396 q 910 316 977 340 q 779 291 843 291 q 713 297 747 291 q 643 316 678 303 q 591 334 626 321 q 382 382 451 382 q 271 358 330 382 q 100 255 212 334 l 100 432 q 251 513 183 488 q 383 538 319 538 q 472 530 427 538 q 589 497 517 522 q 618 486 598 494 q 781 448 726 448 q 893 472 834 448 q 1058 571 953 496 l 1058 396 z "},"":{"ha":1311,"x_min":-429,"x_max":1404,"o":"m 928 840 q 690 673 820 783 q 459 444 561 563 l 579 444 q 715 644 635 544 q 918 865 794 744 l 928 840 m 1175 996 l 1204 956 q 819 461 954 690 q 684 90 684 231 q 692 45 684 57 q 714 33 700 33 q 867 125 764 33 q 1085 383 971 217 l 1127 355 q 865 57 994 160 q 633 -45 737 -45 q 519 -1 561 -45 q 477 119 477 43 q 501 261 477 182 q 552 392 525 340 l 412 392 q 65 62 211 162 q -215 -39 -81 -39 q -368 9 -308 -39 q -429 134 -429 58 q -396 228 -429 190 q -311 266 -363 266 q -244 239 -271 266 q -218 171 -218 212 q -238 110 -218 134 q -292 85 -258 85 q -298 86 -295 85 q -277 87 -302 87 q -246 56 -276 76 q -163 36 -216 36 q -57 59 -116 36 q 62 124 1 81 q 354 404 155 190 q 406 461 388 442 q 795 815 625 698 q 1175 996 965 932 m 1310 1220 q 1376 1193 1348 1220 q 1404 1128 1404 1165 q 1377 1060 1404 1088 q 1310 1032 1350 1032 q 1244 1060 1271 1032 q 1217 1128 1217 1088 q 1245 1192 1217 1164 q 1310 1220 1274 1220 m 1040 1220 q 1106 1193 1078 1220 q 1135 1128 1135 1165 q 1108 1060 1135 1088 q 1040 1032 1081 1032 q 975 1060 1002 1032 q 948 1128 948 1088 q 976 1192 948 1164 q 1040 1220 1004 1220 z "},"":{"ha":1311,"x_min":-429,"x_max":1335,"o":"m 1238 1246 q 1231 1267 1238 1259 q 1217 1274 1225 1274 q 1184 1262 1202 1274 q 1149 1228 1166 1251 q 1114 1165 1127 1198 q 1101 1111 1101 1133 q 1107 1091 1101 1098 q 1124 1084 1113 1084 q 1154 1096 1137 1084 q 1190 1133 1171 1108 q 1225 1195 1212 1164 q 1238 1246 1238 1227 m 1203 1326 q 1299 1294 1263 1326 q 1335 1206 1335 1261 q 1276 1085 1335 1137 q 1140 1032 1216 1032 q 1042 1065 1080 1032 q 1003 1153 1003 1099 q 1063 1275 1003 1224 q 1203 1326 1123 1326 m 1175 996 l 1204 956 q 819 461 954 690 q 684 90 684 231 q 692 45 684 57 q 714 33 700 33 q 867 125 764 33 q 1085 383 971 217 l 1127 355 q 865 57 994 160 q 633 -45 737 -45 q 519 -1 561 -45 q 477 119 477 43 q 501 261 477 182 q 552 392 525 340 l 412 392 q 65 62 211 162 q -215 -39 -81 -39 q -368 9 -308 -39 q -429 134 -429 58 q -396 228 -429 190 q -311 266 -363 266 q -244 239 -271 266 q -218 171 -218 212 q -238 110 -218 134 q -292 85 -258 85 q -298 86 -295 85 q -277 87 -302 87 q -246 56 -276 76 q -163 36 -216 36 q -57 59 -116 36 q 62 124 1 81 q 354 404 155 190 q 406 461 388 442 q 795 815 625 698 q 1175 996 965 932 m 928 840 q 690 673 820 783 q 459 444 561 563 l 579 444 q 715 644 635 544 q 918 865 794 744 l 928 840 z "},"":{"ha":1003,"x_min":-140,"x_max":890,"o":"m 513 857 l 551 827 q 502 765 513 789 q 491 717 491 741 q 514 658 491 681 q 574 635 536 635 q 640 654 607 635 q 701 709 673 673 q 739 781 725 742 q 753 852 753 819 q 735 906 753 888 q 677 924 716 924 q 527 887 610 924 q 366 781 445 849 q 157 515 233 665 q 81 222 81 366 q 125 71 81 126 q 239 16 169 16 q 398 99 328 16 q 467 296 467 182 q 444 390 467 358 q 379 421 420 421 q 282 357 325 421 q 240 197 240 293 q 241 179 240 189 q 241 146 241 169 l 194 146 q 189 185 189 178 q 188 197 188 192 q 261 417 188 327 q 439 508 335 508 q 579 455 525 508 q 634 319 634 403 q 598 191 634 254 q 496 76 562 128 q 334 -17 422 16 q 161 -50 245 -50 q -59 31 22 -50 q -140 250 -140 112 q -63 514 -140 378 q 149 762 14 650 q 415 921 271 863 q 689 979 559 979 q 835 933 781 979 q 890 810 890 888 q 806 641 890 713 q 612 568 722 568 q 488 609 536 568 q 439 715 439 650 q 455 787 439 753 q 513 857 471 821 m 103 16 l 166 16 l 115 -63 l 86 -63 l 101 -63 q 189 -95 155 -63 q 222 -180 222 -127 q 133 -327 222 -270 q -121 -394 44 -384 l -121 -342 q 38 -302 -9 -332 q 85 -232 85 -273 q 72 -203 85 -214 q 33 -193 59 -193 q 23 -194 29 -193 q -39 -205 18 -195 l 103 16 z "},"":{"ha":978,"x_min":-231,"x_max":821,"o":"m 303 623 l 321 671 q 373 653 355 656 q 410 650 390 650 q 503 692 467 650 q 538 807 538 734 q 512 895 538 863 q 443 927 486 927 q 380 902 411 927 q 332 831 349 876 q 307 716 318 797 q 278 597 296 635 q 159 494 255 547 q 102 461 121 473 q 21 369 52 427 q -10 245 -10 311 q 52 83 -10 147 q 210 19 115 19 q 366 84 301 19 q 430 241 430 150 q 400 335 430 301 q 323 368 371 368 q 231 332 277 368 q 142 210 185 296 l 94 229 q 240 406 155 349 q 422 463 326 463 q 556 416 505 463 q 608 292 608 368 q 566 161 608 222 q 441 48 524 100 q 278 -24 366 0 q 96 -48 191 -48 q -141 18 -52 -48 q -231 193 -231 83 q -181 334 -231 273 q -16 454 -131 395 q -1 461 -11 457 q 62 528 53 488 q 75 604 66 545 q 96 704 84 663 q 126 781 107 745 q 170 848 145 818 q 310 946 222 909 q 486 984 398 984 q 648 937 586 984 q 711 808 711 889 q 629 656 711 716 q 429 596 547 596 q 375 601 401 596 q 303 623 349 606 m 821 1279 q 599 1107 680 1172 q 441 975 518 1042 l 393 987 q 479 1140 441 1076 q 564 1276 517 1204 l 821 1279 z "},"":{"ha":1260,"x_min":-408,"x_max":1409,"o":"m 649 983 l 599 869 q 595 832 596 846 q 594 807 594 819 q 645 576 594 736 q 669 496 662 524 q 700 363 691 420 q 709 254 709 307 l 709 343 q 972 784 819 597 q 1267 972 1126 972 q 1370 931 1330 972 q 1409 828 1409 891 q 1354 700 1409 753 q 1181 625 1298 647 l 1181 677 q 1249 707 1232 686 q 1267 760 1267 728 q 1244 817 1267 796 q 1181 837 1222 837 q 915 613 1064 837 q 602 -55 766 389 l 545 -55 q 553 8 551 -12 q 555 52 555 28 q 544 171 555 107 q 513 294 534 235 q 498 342 509 311 q 414 612 418 578 q 122 139 275 309 q -203 -30 -31 -30 q -349 18 -291 -30 q -408 140 -408 66 q -376 231 -408 193 q -298 269 -344 269 q -229 240 -256 269 q -201 170 -201 212 q -224 102 -201 130 q -286 75 -248 75 l -266 75 q -240 56 -266 73 q -171 39 -214 39 q 102 194 -33 39 q 402 714 236 349 q 401 723 402 714 q 401 737 401 732 q 451 917 401 851 q 591 983 500 983 l 649 983 m 1141 1224 q 1068 1065 1100 1101 q 981 1028 1036 1028 q 871 1059 941 1028 q 774 1089 802 1089 q 739 1076 753 1089 q 715 1014 726 1063 l 661 1024 q 712 1175 681 1133 q 800 1217 743 1217 q 900 1190 832 1217 q 1002 1163 967 1163 q 1044 1174 1029 1163 q 1089 1241 1058 1184 l 1141 1224 z "},"":{"ha":1132,"x_min":-155,"x_max":948,"o":"m 652 297 q 653 300 638 302 q 689 298 668 298 q 798 320 746 298 q 928 406 850 341 l 948 357 q 815 270 876 294 q 688 245 755 245 q 646 247 667 245 q 615 252 625 250 q 374 39 510 120 q 113 -41 239 -41 q -83 38 -10 -41 q -155 253 -155 118 q -75 532 -155 392 q 148 780 6 671 q 304 873 223 838 q 463 918 385 908 q 537 967 496 949 q 621 985 578 985 q 759 914 705 985 q 812 733 812 842 q 765 510 812 632 q 652 297 719 388 m 537 351 q 606 550 581 448 q 631 742 631 651 q 610 870 631 831 q 553 910 589 910 q 531 904 543 910 q 541 919 520 899 q 583 882 549 919 q 618 785 618 846 q 609 725 618 754 q 576 649 601 695 l 528 664 q 560 737 553 713 q 567 779 567 760 q 547 846 567 824 q 490 869 527 869 l 493 869 q 453 770 469 833 q 437 629 437 707 q 466 449 437 518 q 537 351 494 380 m 410 852 q 345 806 406 852 q 227 688 284 760 q 113 475 157 597 q 69 249 69 353 q 112 95 69 151 q 224 39 155 39 q 378 115 292 39 q 513 298 463 191 q 382 416 434 336 q 331 603 331 497 q 361 753 331 677 q 410 852 391 828 m 829 1220 q 895 1193 867 1220 q 923 1128 923 1165 q 896 1060 923 1088 q 829 1032 869 1032 q 763 1060 790 1032 q 736 1128 736 1088 q 765 1192 736 1164 q 829 1220 793 1220 m 559 1220 q 626 1193 597 1220 q 654 1128 654 1165 q 627 1060 654 1088 q 559 1032 600 1032 q 494 1060 521 1032 q 467 1128 467 1088 q 495 1192 467 1164 q 559 1220 524 1220 z "},"":{"ha":1311,"x_min":-122,"x_max":1145,"o":"m 907 936 l 1145 936 q 747 306 852 490 q 643 66 643 121 q 652 36 643 45 q 677 26 661 26 q 853 120 738 26 q 1090 387 968 214 l 1126 351 q 857 57 992 160 q 610 -45 722 -45 q 493 -6 536 -45 q 450 104 450 34 q 461 169 450 134 q 485 229 472 204 l 509 213 q 301 33 411 102 q 98 -36 192 -36 q -1 2 37 -36 q -39 102 -39 39 q 123 445 -39 204 q 175 522 157 495 q 303 736 268 665 q 339 846 339 808 q 318 899 339 880 q 258 918 298 918 q 173 896 218 918 q 85 831 127 873 q 18 731 41 787 q -6 619 -6 675 q 11 551 -6 575 q 54 528 28 528 q 123 558 87 528 q 193 663 158 589 l 237 646 q 137 505 197 551 q 12 459 78 459 q -85 499 -48 459 q -122 604 -122 538 q -78 746 -122 672 q 39 878 -35 819 q 175 954 101 926 q 322 981 250 981 q 471 936 416 981 q 526 810 526 890 q 324 404 526 715 l 306 375 q 184 170 209 224 q 159 82 159 115 q 168 55 159 64 q 192 45 176 45 q 285 85 223 45 q 418 193 347 124 q 774 715 530 304 q 907 936 855 852 m 918 1220 q 984 1193 956 1220 q 1012 1128 1012 1165 q 985 1060 1012 1088 q 918 1032 958 1032 q 852 1060 879 1032 q 825 1128 825 1088 q 853 1192 825 1164 q 918 1220 882 1220 m 648 1220 q 714 1193 686 1220 q 743 1128 743 1165 q 716 1060 743 1088 q 648 1032 689 1032 q 583 1060 610 1032 q 556 1128 556 1088 q 584 1192 556 1164 q 648 1220 612 1220 z "},"":{"ha":765,"x_min":-347,"x_max":582,"o":"m 195 468 l 208 494 l 447 509 q 248 181 302 281 q 194 54 194 81 q 197 44 194 47 q 203 40 201 40 q 323 117 245 40 q 543 387 401 193 l 582 357 q 334 55 432 143 q 153 -34 237 -34 q 52 5 90 -34 q 13 107 13 45 q 13 121 13 114 q 7 58 14 127 q -65 8 2 51 q -195 -34 -132 -34 q -304 13 -262 -34 q -347 132 -347 59 q -305 284 -347 209 q -191 418 -264 360 q -64 490 -132 464 q 66 516 4 516 q 160 489 125 516 q 195 468 195 461 m 96 463 q 40 441 70 463 q -30 367 10 419 q -106 234 -77 304 q -135 118 -135 163 q -125 79 -135 92 q -97 66 -115 66 q -47 87 -74 66 q 14 155 -20 107 q 96 297 67 229 q 125 408 125 365 q 117 451 125 438 q 96 463 109 463 m 528 844 q 306 672 387 737 q 149 540 225 607 l 100 553 q 186 705 148 641 q 271 841 224 769 l 528 844 z "},"":{"ha":765,"x_min":-347,"x_max":582,"o":"m 195 468 l 208 494 l 447 509 q 248 181 302 281 q 194 54 194 81 q 197 44 194 47 q 203 40 201 40 q 323 117 245 40 q 543 387 401 193 l 582 357 q 334 55 432 143 q 153 -34 237 -34 q 52 5 90 -34 q 13 107 13 45 q 13 121 13 114 q 7 58 14 127 q -65 8 2 51 q -195 -34 -132 -34 q -304 13 -262 -34 q -347 132 -347 59 q -305 284 -347 209 q -191 418 -264 360 q -64 490 -132 464 q 66 516 4 516 q 160 489 125 516 q 195 468 195 461 m 96 463 q 40 441 70 463 q -30 367 10 419 q -106 234 -77 304 q -135 118 -135 163 q -125 79 -135 92 q -97 66 -115 66 q -47 87 -74 66 q 14 155 -20 107 q 96 297 67 229 q 125 408 125 365 q 117 451 125 438 q 96 463 109 463 m 90 861 l 283 861 q 287 794 286 817 q 287 747 287 771 q 284 658 287 704 q 276 547 282 612 l 228 540 q 174 704 203 635 q 90 861 144 772 z "},"":{"ha":765,"x_min":-347,"x_max":582,"o":"m 195 468 l 208 494 l 447 509 q 248 181 302 281 q 194 54 194 81 q 197 44 194 47 q 203 40 201 40 q 323 117 245 40 q 543 387 401 193 l 582 357 q 334 55 432 143 q 153 -34 237 -34 q 52 5 90 -34 q 13 107 13 45 q 13 121 13 114 q 7 58 14 127 q -65 8 2 51 q -195 -34 -132 -34 q -304 13 -262 -34 q -347 132 -347 59 q -305 284 -347 209 q -191 418 -264 360 q -64 490 -132 464 q 66 516 4 516 q 160 489 125 516 q 195 468 195 461 m 96 463 q 40 441 70 463 q -30 367 10 419 q -106 234 -77 304 q -135 118 -135 163 q -125 79 -135 92 q -97 66 -115 66 q -47 87 -74 66 q 14 155 -20 107 q 96 297 67 229 q 125 408 125 365 q 117 451 125 438 q 96 463 109 463 m 390 892 q 354 800 361 829 q 347 745 347 772 q 362 664 347 699 q 416 596 377 628 l 404 555 q 255 630 302 579 q 208 715 208 680 q 123 648 180 694 q -7 540 65 602 l -42 578 l 247 890 l 390 892 z "},"":{"ha":765,"x_min":-347,"x_max":582,"o":"m 195 468 l 208 494 l 447 509 q 248 181 302 281 q 194 54 194 81 q 197 44 194 47 q 203 40 201 40 q 323 117 245 40 q 543 387 401 193 l 582 357 q 334 55 432 143 q 153 -34 237 -34 q 52 5 90 -34 q 13 107 13 45 q 13 121 13 114 q 7 58 14 127 q -65 8 2 51 q -195 -34 -132 -34 q -304 13 -262 -34 q -347 132 -347 59 q -305 284 -347 209 q -191 418 -264 360 q -64 490 -132 464 q 66 516 4 516 q 160 489 125 516 q 195 468 195 461 m 96 463 q 40 441 70 463 q -30 367 10 419 q -106 234 -77 304 q -135 118 -135 163 q -125 79 -135 92 q -97 66 -115 66 q -47 87 -74 66 q 14 155 -20 107 q 96 297 67 229 q 125 408 125 365 q 117 451 125 438 q 96 463 109 463 m 371 785 q 436 758 408 785 q 465 693 465 730 q 438 625 465 653 q 371 597 411 597 q 305 626 332 597 q 278 693 278 654 q 306 757 278 729 q 371 785 334 785 m 101 785 q 167 758 139 785 q 195 693 195 730 q 169 625 195 653 q 101 597 142 597 q 36 626 62 597 q 9 693 9 654 q 37 757 9 729 q 101 785 65 785 z "},"":{"ha":765,"x_min":-347,"x_max":582,"o":"m 195 468 l 208 494 l 447 509 q 248 181 302 281 q 194 54 194 81 q 197 44 194 47 q 203 40 201 40 q 323 117 245 40 q 543 387 401 193 l 582 357 q 334 55 432 143 q 153 -34 237 -34 q 52 5 90 -34 q 13 107 13 45 q 13 121 13 114 q 7 58 14 127 q -65 8 2 51 q -195 -34 -132 -34 q -304 13 -262 -34 q -347 132 -347 59 q -305 284 -347 209 q -191 418 -264 360 q -64 490 -132 464 q 66 516 4 516 q 160 489 125 516 q 195 468 195 461 m 96 463 q 40 441 70 463 q -30 367 10 419 q -106 234 -77 304 q -135 118 -135 163 q -125 79 -135 92 q -97 66 -115 66 q -47 87 -74 66 q 14 155 -20 107 q 96 297 67 229 q 125 408 125 365 q 117 451 125 438 q 96 463 109 463 m 450 789 q 377 630 410 667 q 290 593 345 593 q 181 624 251 593 q 83 654 111 654 q 49 641 62 654 q 25 579 35 628 l -29 589 q 22 741 -9 699 q 110 783 53 783 q 209 755 142 783 q 311 728 277 728 q 353 739 339 728 q 399 806 368 749 l 450 789 z "},"":{"ha":765,"x_min":-347,"x_max":582,"o":"m 244 850 q 340 818 305 850 q 376 729 376 785 q 316 608 376 661 q 180 556 256 556 q 82 590 121 556 q 43 677 43 623 q 104 799 43 749 q 244 850 164 850 m 96 463 q 40 441 70 463 q -30 367 10 419 q -106 234 -77 304 q -135 118 -135 163 q -125 79 -135 92 q -97 66 -115 66 q -47 87 -74 66 q 14 155 -20 107 q 96 297 67 229 q 125 408 125 365 q 117 451 125 438 q 96 463 109 463 m 195 468 l 208 494 l 447 509 q 248 181 302 281 q 194 54 194 81 q 197 44 194 47 q 203 40 201 40 q 323 117 245 40 q 543 387 401 193 l 582 357 q 334 55 432 143 q 153 -34 237 -34 q 52 5 90 -34 q 13 107 13 45 q 13 121 13 114 q 7 58 14 127 q -65 8 2 51 q -195 -34 -132 -34 q -304 13 -262 -34 q -347 132 -347 59 q -305 284 -347 209 q -191 418 -264 360 q -64 490 -132 464 q 66 516 4 516 q 160 489 125 516 q 195 468 195 461 m 278 770 q 272 790 278 783 q 257 798 265 798 q 224 786 243 798 q 190 751 206 774 q 155 690 168 722 q 142 636 142 658 q 149 615 142 622 q 164 608 155 608 q 195 620 177 608 q 231 656 213 632 q 266 717 253 686 q 278 770 278 748 z "},"":{"ha":590,"x_min":-411,"x_max":404,"o":"m 54 283 q 58 351 57 332 q 59 379 59 371 q 54 440 59 427 q 43 453 49 453 q 13 438 32 453 q -37 387 -7 423 q -107 271 -84 330 q -131 157 -131 213 q -106 77 -131 105 q -36 50 -81 50 q 135 128 37 50 q 369 387 233 207 l 404 351 q 130 57 262 152 q -135 -37 -3 -37 q -286 13 -227 -37 q -344 144 -344 62 q -295 303 -344 227 q -158 435 -247 379 q -28 495 -98 473 q 109 516 43 516 q 216 489 175 516 q 256 411 256 462 q 211 317 256 355 q 98 279 165 279 q 85 280 91 279 q 54 283 79 280 m -187 16 l -124 16 l -176 -63 l -204 -63 l -189 -63 q -102 -95 -135 -63 q -68 -180 -68 -127 q -157 -327 -68 -270 q -411 -394 -246 -384 l -411 -342 q -253 -302 -300 -332 q -205 -232 -205 -273 q -218 -203 -205 -214 q -257 -193 -231 -193 q -267 -194 -261 -193 q -329 -205 -273 -195 l -187 16 z "},"":{"ha":590,"x_min":-344,"x_max":441,"o":"m -128 192 q -130 181 -127 197 q -132 150 -132 157 q -109 72 -132 98 q -43 45 -85 45 q 135 128 32 45 q 366 386 237 210 l 404 355 q 128 58 261 153 q -142 -37 -5 -37 q -290 13 -235 -37 q -344 151 -344 64 q -308 283 -344 217 q -209 401 -273 349 q -60 488 -143 456 q 104 519 24 519 q 203 491 165 519 q 241 412 241 463 q 152 285 241 335 q -128 192 63 235 m -115 247 q 11 320 -49 261 q 70 449 70 379 q 67 461 70 457 q 61 465 64 465 q -35 392 25 465 q -115 247 -94 319 m 441 844 q 218 672 299 737 q 61 540 138 607 l 12 553 q 98 705 60 641 q 183 841 136 769 l 441 844 z "},"":{"ha":590,"x_min":-344,"x_max":404,"o":"m -128 192 q -130 181 -127 197 q -132 150 -132 157 q -109 72 -132 98 q -43 45 -85 45 q 135 128 32 45 q 366 386 237 210 l 404 355 q 128 58 261 153 q -142 -37 -5 -37 q -290 13 -235 -37 q -344 151 -344 64 q -308 283 -344 217 q -209 401 -273 349 q -60 488 -143 456 q 104 519 24 519 q 203 491 165 519 q 241 412 241 463 q 152 285 241 335 q -128 192 63 235 m -115 247 q 11 320 -49 261 q 70 449 70 379 q 67 461 70 457 q 61 465 64 465 q -35 392 25 465 q -115 247 -94 319 m 2 861 l 196 861 q 199 794 199 817 q 199 747 199 771 q 197 658 199 704 q 189 547 195 612 l 140 540 q 86 704 115 635 q 2 861 57 772 z "},"":{"ha":590,"x_min":-344,"x_max":404,"o":"m -128 192 q -130 181 -127 197 q -132 150 -132 157 q -109 72 -132 98 q -43 45 -85 45 q 135 128 32 45 q 366 386 237 210 l 404 355 q 128 58 261 153 q -142 -37 -5 -37 q -290 13 -235 -37 q -344 151 -344 64 q -308 283 -344 217 q -209 401 -273 349 q -60 488 -143 456 q 104 519 24 519 q 203 491 165 519 q 241 412 241 463 q 152 285 241 335 q -128 192 63 235 m -115 247 q 11 320 -49 261 q 70 449 70 379 q 67 461 70 457 q 61 465 64 465 q -35 392 25 465 q -115 247 -94 319 m 302 892 q 266 800 273 829 q 259 745 259 772 q 274 664 259 699 q 328 596 290 628 l 317 555 q 168 630 214 579 q 121 715 121 680 q 35 648 93 694 q -94 540 -22 602 l -130 578 l 159 890 l 302 892 z "},"":{"ha":590,"x_min":-344,"x_max":404,"o":"m -128 192 q -130 181 -127 197 q -132 150 -132 157 q -109 72 -132 98 q -43 45 -85 45 q 135 128 32 45 q 366 386 237 210 l 404 355 q 128 58 261 153 q -142 -37 -5 -37 q -290 13 -235 -37 q -344 151 -344 64 q -308 283 -344 217 q -209 401 -273 349 q -60 488 -143 456 q 104 519 24 519 q 203 491 165 519 q 241 412 241 463 q 152 285 241 335 q -128 192 63 235 m -115 247 q 11 320 -49 261 q 70 449 70 379 q 67 461 70 457 q 61 465 64 465 q -35 392 25 465 q -115 247 -94 319 m 283 785 q 349 758 321 785 q 377 693 377 730 q 350 625 377 653 q 283 597 323 597 q 217 626 244 597 q 191 693 191 654 q 219 757 191 729 q 283 785 247 785 m 14 785 q 80 758 52 785 q 108 693 108 730 q 81 625 108 653 q 14 597 54 597 q -52 626 -25 597 q -79 693 -79 654 q -51 757 -79 729 q 14 785 -22 785 z "},"":{"ha":399,"x_min":-345,"x_max":345,"o":"m 67 505 l 46 469 q -170 61 -170 118 q -166 50 -170 54 q -153 45 -161 45 q -26 133 -115 45 q 176 389 62 221 l 214 358 q -25 65 85 163 q -221 -33 -134 -33 q -312 5 -278 -33 q -345 106 -345 43 q -330 191 -345 143 q -286 288 -314 239 l -168 496 l 67 505 m 345 844 q 123 672 203 737 q -35 540 42 607 l -83 553 q 3 705 -35 641 q 87 841 41 769 l 345 844 z "},"":{"ha":399,"x_min":-345,"x_max":214,"o":"m 67 505 l 46 469 q -170 61 -170 118 q -166 50 -170 54 q -153 45 -161 45 q -26 133 -115 45 q 176 389 62 221 l 214 358 q -25 65 85 163 q -221 -33 -134 -33 q -312 5 -278 -33 q -345 106 -345 43 q -330 191 -345 143 q -286 288 -314 239 l -168 496 l 67 505 m -94 861 l 100 861 q 103 794 103 817 q 104 747 104 771 q 101 658 104 704 q 93 547 99 612 l 45 540 q -9 704 20 635 q -94 861 -39 772 z "},"":{"ha":399,"x_min":-345,"x_max":233,"o":"m 67 505 l 46 469 q -170 61 -170 118 q -166 50 -170 54 q -153 45 -161 45 q -26 133 -115 45 q 176 389 62 221 l 214 358 q -25 65 85 163 q -221 -33 -134 -33 q -312 5 -278 -33 q -345 106 -345 43 q -330 191 -345 143 q -286 288 -314 239 l -168 496 l 67 505 m 207 892 q 171 800 178 829 q 163 745 163 772 q 179 664 163 699 q 233 596 194 628 l 221 555 q 72 630 119 579 q 25 715 25 680 q -60 648 -3 694 q -190 540 -118 602 l -225 578 l 64 890 l 207 892 z "},"":{"ha":399,"x_min":-345,"x_max":281,"o":"m 67 505 l 46 469 q -170 61 -170 118 q -166 50 -170 54 q -153 45 -161 45 q -26 133 -115 45 q 176 389 62 221 l 214 358 q -25 65 85 163 q -221 -33 -134 -33 q -312 5 -278 -33 q -345 106 -345 43 q -330 191 -345 143 q -286 288 -314 239 l -168 496 l 67 505 m 188 785 q 253 758 225 785 q 281 693 281 730 q 255 625 281 653 q 188 597 228 597 q 122 626 149 597 q 95 693 95 654 q 123 757 95 729 q 188 785 151 785 m -82 785 q -16 758 -44 785 q 12 693 12 730 q -15 625 12 653 q -82 597 -41 597 q -148 626 -121 597 q -174 693 -174 654 q -146 757 -174 729 q -82 785 -118 785 z "},"":{"ha":746,"x_min":-457,"x_max":573,"o":"m 527 396 l 573 371 q 316 54 410 142 q 140 -34 221 -34 q 45 5 81 -34 q 9 107 9 43 q 26 191 9 149 q 89 298 43 233 q 127 349 102 317 q 172 427 172 406 q 165 437 172 432 q 149 442 159 442 q -10 318 98 442 q -222 -9 -118 195 l -457 -21 l -159 502 l 81 511 l -121 219 l -144 232 q 52 449 -41 372 q 225 526 144 526 q 321 489 282 526 q 361 399 361 453 q 281 223 361 338 q 256 186 264 199 q 203 99 220 131 q 186 57 186 66 q 189 47 186 51 q 193 44 191 44 q 310 122 233 44 q 527 396 388 201 m 441 789 q 368 630 400 667 q 281 593 336 593 q 172 624 241 593 q 74 654 102 654 q 39 641 53 654 q 16 579 26 628 l -39 589 q 12 741 -19 699 q 100 783 43 783 q 200 755 132 783 q 302 728 267 728 q 344 739 330 728 q 389 806 358 749 l 441 789 z "},"":{"ha":746,"x_min":-329,"x_max":570,"o":"m 523 386 l 570 364 q 479 274 515 296 q 399 252 442 252 q 322 274 355 252 q 312 256 290 297 q 304 327 303 339 q 305 309 305 315 q 271 177 305 245 q 178 58 236 110 q 47 -13 123 11 q -121 -37 -28 -37 q -273 18 -216 -37 q -329 167 -329 73 q -298 301 -329 237 q -208 418 -267 366 q -73 500 -148 471 q 77 529 1 529 q 209 499 157 529 q 294 404 260 469 q 349 319 328 336 q 401 301 371 301 q 456 318 429 301 q 523 386 483 334 m 136 419 q 127 461 136 449 q 100 474 117 474 q 44 447 79 474 q -24 369 10 419 q -116 207 -84 285 q -148 72 -148 128 q -139 27 -148 39 q -111 16 -131 16 q -58 38 -89 16 q 3 101 -27 60 q 45 165 25 130 q 85 248 65 201 q 124 352 112 310 q 136 419 136 395 m 519 844 q 296 672 377 737 q 139 540 216 607 l 90 553 q 176 705 138 641 q 261 841 214 769 l 519 844 z "},"":{"ha":746,"x_min":-329,"x_max":570,"o":"m 523 386 l 570 364 q 479 274 515 296 q 399 252 442 252 q 322 274 355 252 q 312 256 290 297 q 304 327 303 339 q 305 309 305 315 q 271 177 305 245 q 178 58 236 110 q 47 -13 123 11 q -121 -37 -28 -37 q -273 18 -216 -37 q -329 167 -329 73 q -298 301 -329 237 q -208 418 -267 366 q -73 500 -148 471 q 77 529 1 529 q 209 499 157 529 q 294 404 260 469 q 349 319 328 336 q 401 301 371 301 q 456 318 429 301 q 523 386 483 334 m 136 419 q 127 461 136 449 q 100 474 117 474 q 44 447 79 474 q -24 369 10 419 q -116 207 -84 285 q -148 72 -148 128 q -139 27 -148 39 q -111 16 -131 16 q -58 38 -89 16 q 3 101 -27 60 q 45 165 25 130 q 85 248 65 201 q 124 352 112 310 q 136 419 136 395 m 80 861 l 274 861 q 277 794 277 817 q 277 747 277 771 q 275 658 277 704 q 267 547 273 612 l 218 540 q 164 704 193 635 q 80 861 135 772 z "},"":{"ha":746,"x_min":-329,"x_max":570,"o":"m 523 386 l 570 364 q 479 274 515 296 q 399 252 442 252 q 322 274 355 252 q 312 256 290 297 q 304 327 303 339 q 305 309 305 315 q 271 177 305 245 q 178 58 236 110 q 47 -13 123 11 q -121 -37 -28 -37 q -273 18 -216 -37 q -329 167 -329 73 q -298 301 -329 237 q -208 418 -267 366 q -73 500 -148 471 q 77 529 1 529 q 209 499 157 529 q 294 404 260 469 q 349 319 328 336 q 401 301 371 301 q 456 318 429 301 q 523 386 483 334 m 136 419 q 127 461 136 449 q 100 474 117 474 q 44 447 79 474 q -24 369 10 419 q -116 207 -84 285 q -148 72 -148 128 q -139 27 -148 39 q -111 16 -131 16 q -58 38 -89 16 q 3 101 -27 60 q 45 165 25 130 q 85 248 65 201 q 124 352 112 310 q 136 419 136 395 m 380 892 q 344 800 351 829 q 337 745 337 772 q 352 664 337 699 q 406 596 368 628 l 395 555 q 245 630 292 579 q 199 715 199 680 q 113 648 171 694 q -16 540 56 602 l -52 578 l 237 890 l 380 892 z "},"":{"ha":746,"x_min":-329,"x_max":570,"o":"m 523 386 l 570 364 q 479 274 515 296 q 399 252 442 252 q 322 274 355 252 q 312 256 290 297 q 304 327 303 339 q 305 309 305 315 q 271 177 305 245 q 178 58 236 110 q 47 -13 123 11 q -121 -37 -28 -37 q -273 18 -216 -37 q -329 167 -329 73 q -298 301 -329 237 q -208 418 -267 366 q -73 500 -148 471 q 77 529 1 529 q 209 499 157 529 q 294 404 260 469 q 349 319 328 336 q 401 301 371 301 q 456 318 429 301 q 523 386 483 334 m 136 419 q 127 461 136 449 q 100 474 117 474 q 44 447 79 474 q -24 369 10 419 q -116 207 -84 285 q -148 72 -148 128 q -139 27 -148 39 q -111 16 -131 16 q -58 38 -89 16 q 3 101 -27 60 q 45 165 25 130 q 85 248 65 201 q 124 352 112 310 q 136 419 136 395 m 361 785 q 427 758 399 785 q 455 693 455 730 q 428 625 455 653 q 361 597 401 597 q 295 626 322 597 q 269 693 269 654 q 297 757 269 729 q 361 785 325 785 m 92 785 q 158 758 130 785 q 186 693 186 730 q 159 625 186 653 q 92 597 132 597 q 26 626 53 597 q -1 693 -1 654 q 27 757 -1 729 q 92 785 56 785 z "},"":{"ha":746,"x_min":-329,"x_max":570,"o":"m 523 386 l 570 364 q 479 274 515 296 q 399 252 442 252 q 322 274 355 252 q 312 256 290 297 q 304 327 303 339 q 305 309 305 315 q 271 177 305 245 q 178 58 236 110 q 47 -13 123 11 q -121 -37 -28 -37 q -273 18 -216 -37 q -329 167 -329 73 q -298 301 -329 237 q -208 418 -267 366 q -73 500 -148 471 q 77 529 1 529 q 209 499 157 529 q 294 404 260 469 q 349 319 328 336 q 401 301 371 301 q 456 318 429 301 q 523 386 483 334 m 136 419 q 127 461 136 449 q 100 474 117 474 q 44 447 79 474 q -24 369 10 419 q -116 207 -84 285 q -148 72 -148 128 q -139 27 -148 39 q -111 16 -131 16 q -58 38 -89 16 q 3 101 -27 60 q 45 165 25 130 q 85 248 65 201 q 124 352 112 310 q 136 419 136 395 m 441 789 q 368 630 400 667 q 281 593 336 593 q 172 624 241 593 q 74 654 102 654 q 39 641 53 654 q 16 579 26 628 l -39 589 q 12 741 -19 699 q 100 783 43 783 q 200 755 132 783 q 302 728 267 728 q 344 739 330 728 q 389 806 358 749 l 441 789 z "},"":{"ha":751,"x_min":-358,"x_max":567,"o":"m 71 505 l -120 193 q -162 114 -146 151 q -177 62 -177 77 q -174 51 -177 55 q -167 47 -170 47 q -51 122 -124 47 q 100 335 22 198 l 191 493 l 427 505 l 229 169 q 189 95 199 121 q 178 52 178 68 q 182 41 178 45 q 189 37 185 37 q 316 125 227 37 q 524 382 405 212 l 567 356 q 312 49 410 136 q 126 -37 215 -37 q 34 0 71 -37 q -2 96 -2 38 q 1 129 -2 113 q 7 153 5 146 l 26 132 q -101 13 -31 61 q -233 -36 -172 -36 q -325 0 -291 -36 q -358 96 -358 36 q -342 177 -358 134 q -281 296 -326 220 l -165 496 l 71 505 m 522 844 q 299 672 380 737 q 142 540 218 607 l 93 553 q 179 705 141 641 q 264 841 217 769 l 522 844 z "},"":{"ha":751,"x_min":-358,"x_max":567,"o":"m 71 505 l -120 193 q -162 114 -146 151 q -177 62 -177 77 q -174 51 -177 55 q -167 47 -170 47 q -51 122 -124 47 q 100 335 22 198 l 191 493 l 427 505 l 229 169 q 189 95 199 121 q 178 52 178 68 q 182 41 178 45 q 189 37 185 37 q 316 125 227 37 q 524 382 405 212 l 567 356 q 312 49 410 136 q 126 -37 215 -37 q 34 0 71 -37 q -2 96 -2 38 q 1 129 -2 113 q 7 153 5 146 l 26 132 q -101 13 -31 61 q -233 -36 -172 -36 q -325 0 -291 -36 q -358 96 -358 36 q -342 177 -358 134 q -281 296 -326 220 l -165 496 l 71 505 m 83 861 l 277 861 q 280 794 279 817 q 280 747 280 771 q 278 658 280 704 q 269 547 275 612 l 221 540 q 167 704 196 635 q 83 861 138 772 z "},"":{"ha":751,"x_min":-358,"x_max":567,"o":"m 71 505 l -120 193 q -162 114 -146 151 q -177 62 -177 77 q -174 51 -177 55 q -167 47 -170 47 q -51 122 -124 47 q 100 335 22 198 l 191 493 l 427 505 l 229 169 q 189 95 199 121 q 178 52 178 68 q 182 41 178 45 q 189 37 185 37 q 316 125 227 37 q 524 382 405 212 l 567 356 q 312 49 410 136 q 126 -37 215 -37 q 34 0 71 -37 q -2 96 -2 38 q 1 129 -2 113 q 7 153 5 146 l 26 132 q -101 13 -31 61 q -233 -36 -172 -36 q -325 0 -291 -36 q -358 96 -358 36 q -342 177 -358 134 q -281 296 -326 220 l -165 496 l 71 505 m 383 892 q 347 800 354 829 q 340 745 340 772 q 355 664 340 699 q 409 596 370 628 l 397 555 q 248 630 295 579 q 201 715 201 680 q 116 648 174 694 q -14 540 58 602 l -49 578 l 240 890 l 383 892 z "},"":{"ha":751,"x_min":-358,"x_max":567,"o":"m 71 505 l -120 193 q -162 114 -146 151 q -177 62 -177 77 q -174 51 -177 55 q -167 47 -170 47 q -51 122 -124 47 q 100 335 22 198 l 191 493 l 427 505 l 229 169 q 189 95 199 121 q 178 52 178 68 q 182 41 178 45 q 189 37 185 37 q 316 125 227 37 q 524 382 405 212 l 567 356 q 312 49 410 136 q 126 -37 215 -37 q 34 0 71 -37 q -2 96 -2 38 q 1 129 -2 113 q 7 153 5 146 l 26 132 q -101 13 -31 61 q -233 -36 -172 -36 q -325 0 -291 -36 q -358 96 -358 36 q -342 177 -358 134 q -281 296 -326 220 l -165 496 l 71 505 m 364 785 q 430 758 401 785 q 458 693 458 730 q 431 625 458 653 q 364 597 404 597 q 298 626 325 597 q 271 693 271 654 q 299 757 271 729 q 364 785 328 785 m 94 785 q 160 758 132 785 q 189 693 189 730 q 162 625 189 653 q 94 597 135 597 q 29 626 56 597 q 2 693 2 654 q 30 757 2 729 q 94 785 58 785 z "},"":{"ha":694,"x_min":-198,"x_max":566,"o":"m -198 -85 l 114 562 q 149 608 128 592 q 197 625 170 625 q 259 603 233 625 q 286 547 286 581 q 280 521 286 534 q 267 494 275 507 l -138 -85 l -198 -85 m 566 677 l 532 621 l -94 621 l -60 677 l 566 677 m 230 692 l 308 952 q 339 997 316 979 q 390 1015 362 1015 q 454 992 427 1015 q 480 936 480 970 q 475 907 480 921 q 460 884 471 894 l 270 672 l 230 692 z "},"":{"ha":457,"x_min":9,"x_max":450,"o":"m 334 790 q 303 865 334 834 q 229 895 273 895 q 154 864 185 895 q 123 790 123 833 q 155 715 123 747 q 229 684 186 684 q 303 715 273 684 q 334 790 334 746 m 229 1010 q 386 945 321 1010 q 450 789 450 880 q 385 633 450 699 q 228 568 319 568 q 73 632 136 568 q 9 789 9 696 q 73 946 9 882 q 229 1010 138 1010 z "},"":{"ha":798,"x_min":-190,"x_max":410,"o":"m 205 450 q 203 451 206 448 q 197 453 201 453 q 166 437 186 453 q 117 387 146 422 q 46 271 68 328 q 23 151 23 214 q 28 113 23 130 q 21 109 33 96 l 205 450 m 293 610 l 346 590 l 304 515 q 371 488 332 515 q 410 411 410 460 q 364 318 410 356 q 252 279 317 279 q 238 280 244 279 q 209 286 233 280 q 210 312 209 305 q 214 379 214 359 q 214 398 214 387 q 217 356 213 408 l 59 65 q 78 56 62 62 q 117 50 94 50 q 227 84 167 50 q 374 207 287 119 l 410 170 q 212 14 309 64 q 24 -37 114 -37 q 6 -37 16 -37 q 4 -36 -5 -36 l -46 -131 l -96 -104 l -54 -28 q -148 29 -106 -16 q -190 144 -190 74 q -60 394 -190 285 q 243 514 69 503 l 293 610 z "},"":{"ha":1389,"x_min":-373,"x_max":1133,"o":"m -10 35 q -132 71 -54 52 q -260 90 -209 90 q -305 83 -293 90 q -317 65 -317 76 q -279 29 -317 45 q -167 12 -241 12 q -62 23 -111 12 q -10 35 -12 35 m 932 847 l 957 806 q 809 710 854 760 q 764 612 764 660 q 777 569 764 584 q 814 553 791 553 q 877 577 842 553 q 943 645 913 602 q 994 742 975 690 q 1012 836 1012 793 q 993 898 1012 876 q 945 920 975 920 q 748 795 849 920 q 532 412 647 671 q 680 408 597 410 q 869 406 763 406 l 850 355 q 660 354 747 355 q 500 351 573 353 q 358 174 441 248 q 247 92 275 101 q 316 84 248 92 q 447 76 385 76 q 719 135 615 76 q 888 339 822 194 l 941 326 q 704 33 840 128 q 407 -63 569 -63 q 253 -45 340 -63 q 66 7 167 -27 q -51 -27 12 -14 q -174 -40 -113 -40 q -317 -13 -260 -40 q -373 65 -373 14 q -326 135 -373 113 q -200 157 -279 157 q -52 146 -134 157 q 132 115 29 136 q 211 200 167 135 q 290 349 255 264 q 158 353 237 351 q 1 355 79 355 l -106 355 l -74 406 l 316 410 l 328 433 q 551 810 465 720 q 715 932 625 889 q 903 975 806 975 q 1072 917 1010 975 q 1133 757 1133 859 q 1054 559 1133 640 q 863 478 976 478 q 752 514 795 478 q 709 608 709 551 q 766 742 709 678 q 932 847 824 805 z "},"":{"ha":694,"x_min":-334,"x_max":627,"o":"m 158 667 q 81 626 115 664 q 48 528 48 588 q 128 340 48 472 q 184 243 170 271 q 262 285 232 250 q 292 382 292 320 q 208 581 292 445 q 158 667 171 642 m 429 709 q 484 788 475 767 q 492 832 492 810 q 466 910 492 880 q 401 939 440 939 q 321 901 355 939 q 288 807 288 863 q 306 736 288 778 q 376 612 324 695 q 444 494 428 533 q 459 419 459 456 q 390 272 459 330 q 208 191 320 214 q 213 170 210 188 q 216 136 216 152 q 129 -28 216 35 q -94 -91 41 -91 q -266 -38 -198 -91 q -334 97 -334 15 q -278 212 -334 168 q -136 256 -221 256 l -37 256 q -177 161 -155 193 q -199 89 -199 130 q -164 1 -199 36 q -72 -34 -128 -34 q 31 -1 -9 -34 q 71 82 71 33 q 55 159 71 119 q -14 276 38 199 q -89 404 -68 356 q -109 497 -109 452 q -43 643 -109 589 q 133 715 24 696 q 128 737 134 715 q 123 781 123 759 q 202 936 123 877 q 407 996 282 996 q 565 952 502 996 q 627 838 627 908 q 583 746 627 782 q 429 709 539 710 z "},"":{"ha":819,"x_min":188,"x_max":630,"o":"m 188 517 q 253 673 188 609 q 410 737 318 737 q 565 672 500 737 q 630 517 630 608 q 565 360 630 426 q 408 295 499 295 q 252 360 316 295 q 188 517 188 425 z "},"":{"ha":694,"x_min":17,"x_max":677,"o":"m 677 916 l 598 916 l 598 -20 l 470 -20 l 470 916 l 397 916 l 397 -20 l 267 -20 l 267 512 q 91 586 165 515 q 17 766 17 656 q 96 953 17 882 q 302 1023 175 1023 l 677 1023 l 677 916 z "},"":{"ha":888,"x_min":-1147,"x_max":707,"o":"m 309 7 l 303 39 q 476 151 378 64 q 660 382 573 239 l 707 362 q 439 56 583 157 q 139 -44 296 -44 q -20 1 41 -44 q -81 123 -81 46 q -45 214 -81 174 q 37 254 -9 254 q 104 228 77 254 q 132 165 132 203 q 108 109 132 132 q 53 85 85 85 q 36 87 44 85 q 39 84 27 89 q 41 88 43 96 q 40 75 40 81 q 60 29 40 47 q 111 11 80 11 q 178 41 151 11 q 205 115 205 71 q 164 225 205 149 q 147 259 153 248 q 129 308 135 285 q 123 354 123 332 q 142 432 123 397 q 199 493 161 467 q 296 537 237 519 q 362 559 354 555 q 450 646 416 583 q 484 785 484 709 q 464 866 484 838 q 412 894 444 894 q 232 773 345 894 q 21 458 119 652 l -134 149 q -465 -302 -292 -163 q -871 -441 -638 -441 q -1072 -388 -996 -441 q -1147 -241 -1147 -335 q -1078 -99 -1147 -153 q -897 -46 -1008 -46 q -846 -48 -873 -46 q -764 -60 -819 -51 l -775 -106 q -810 -104 -801 -104 q -829 -104 -819 -104 q -917 -142 -882 -104 q -952 -240 -952 -180 q -916 -346 -952 -306 q -819 -385 -879 -385 q -628 -285 -727 -385 q -414 33 -528 -184 l -192 455 q 98 821 -66 694 q 444 948 261 948 q 611 897 545 948 q 677 764 677 846 q 656 676 677 717 q 597 608 635 635 q 473 549 555 576 q 432 532 444 538 q 348 477 374 507 q 321 408 321 447 q 360 284 321 368 q 399 153 399 200 q 371 62 399 102 q 309 7 343 21 z "},"":{"ha":1141,"x_min":62,"x_max":1080,"o":"m 528 665 l 528 509 q 527 510 518 510 q 543 509 535 509 q 634 534 604 509 q 665 604 665 558 q 639 667 665 643 q 571 691 614 691 q 537 684 546 691 q 528 665 528 677 m 587 764 q 758 722 692 764 q 825 610 825 680 q 774 505 825 543 q 707 464 724 467 q 727 433 688 469 q 779 337 766 397 q 787 289 784 319 q 803 245 791 245 q 816 260 809 245 q 823 336 823 275 l 897 336 l 897 300 q 862 198 897 234 q 761 161 827 161 q 698 173 726 161 q 654 210 670 185 q 632 292 634 241 q 627 355 630 343 q 593 418 618 399 q 524 438 568 438 l 528 438 l 528 292 q 537 259 528 267 q 601 245 547 250 l 601 174 l 296 174 l 296 245 q 362 257 352 248 q 373 292 373 266 l 373 644 q 363 679 373 670 q 296 691 353 687 l 296 764 l 587 764 m 972 460 q 941 615 972 538 q 854 748 910 691 q 725 834 798 804 q 572 865 651 865 q 417 834 491 865 q 286 745 342 803 q 199 614 229 687 q 169 460 169 541 q 199 305 169 378 q 288 174 230 232 q 418 86 347 115 q 571 56 489 56 q 725 86 652 56 q 854 174 798 117 q 942 307 911 233 q 972 460 972 380 m 572 970 q 769 930 674 970 q 936 817 865 890 q 1043 651 1005 745 q 1080 454 1080 557 q 1038 262 1080 357 q 921 93 996 167 q 760 -13 850 22 q 561 -48 670 -48 q 374 -9 465 -48 q 212 100 283 29 q 100 265 138 173 q 62 460 62 357 q 100 654 62 561 q 211 820 139 747 q 377 931 283 892 q 572 970 471 970 z "},"":{"ha":1141,"x_min":62,"x_max":1080,"o":"m 810 766 l 812 509 l 743 509 q 677 652 720 610 q 574 694 635 694 q 470 637 506 694 q 434 464 434 581 q 473 286 434 345 q 586 227 513 227 q 678 254 635 227 q 768 353 720 281 l 831 314 q 711 181 775 219 q 566 142 648 142 q 349 233 437 142 q 262 454 262 323 q 349 678 262 587 q 564 769 435 769 q 672 747 622 769 q 721 724 722 724 q 735 728 731 724 q 745 766 739 732 l 810 766 m 972 460 q 942 616 972 540 q 854 748 911 692 q 725 834 798 804 q 572 865 651 865 q 417 834 491 865 q 286 745 342 803 q 199 614 230 687 q 169 460 169 541 q 199 305 169 378 q 288 174 230 232 q 418 86 347 115 q 571 56 489 56 q 725 86 652 56 q 854 174 798 117 q 942 307 911 232 q 972 460 972 381 m 572 970 q 765 931 671 970 q 930 821 859 892 q 1041 655 1001 749 q 1080 460 1080 561 q 1041 266 1080 359 q 930 100 1002 173 q 767 -10 859 28 q 571 -48 675 -48 q 377 -11 469 -48 q 212 100 286 26 q 100 265 139 173 q 62 460 62 357 q 100 654 62 561 q 211 820 138 747 q 377 931 283 892 q 572 970 471 970 z "},"":{"ha":1141,"x_min":136,"x_max":990,"o":"m 671 1002 l 749 784 l 827 1002 l 990 1002 l 990 945 l 953 942 q 946 938 949 941 q 944 926 944 935 l 944 672 q 946 660 944 663 q 954 656 949 657 l 990 651 l 990 593 l 783 593 l 783 651 l 821 656 q 827 659 825 656 q 829 672 829 662 l 829 807 l 753 592 l 707 592 l 626 814 l 626 672 q 628 660 626 663 q 633 656 630 656 l 676 652 l 676 593 l 502 593 l 502 652 l 543 656 q 550 660 548 657 q 552 671 552 663 l 552 924 q 549 936 552 932 q 543 939 547 939 l 502 942 l 502 1002 l 671 1002 m 488 1002 l 498 834 l 437 834 q 414 919 431 900 q 366 938 397 938 l 378 938 l 378 672 q 381 660 378 663 q 387 656 383 656 l 426 651 l 426 593 l 209 593 l 209 651 l 249 656 q 254 659 252 656 q 256 672 256 662 l 256 938 l 267 938 q 219 919 236 938 q 196 834 203 899 l 136 834 l 146 1002 l 488 1002 z "},"":{"ha":694,"x_min":64,"x_max":492,"o":"m 492 844 q 270 672 351 737 q 113 540 189 607 l 64 553 q 150 705 112 641 q 235 841 188 769 l 492 844 z "},"":{"ha":694,"x_min":-27,"x_max":429,"o":"m 335 785 q 400 758 372 785 q 429 693 429 730 q 402 625 429 653 q 335 597 375 597 q 269 626 296 597 q 242 693 242 654 q 270 757 242 729 q 335 785 298 785 m 65 785 q 131 758 103 785 q 159 693 159 730 q 133 625 159 653 q 65 597 106 597 q 0 626 26 597 q -27 693 -27 654 q 1 757 -27 729 q 65 785 29 785 z "},"":{"ha":1157,"x_min":152,"x_max":1005,"o":"m 928 758 l 827 629 l 1005 629 l 1005 478 l 722 478 l 620 349 l 1005 349 l 1005 199 l 515 199 l 340 -22 l 224 71 l 326 199 l 152 199 l 152 349 l 429 349 l 532 478 l 152 478 l 152 629 l 637 629 l 813 850 l 928 758 z "},"":{"ha":1389,"x_min":-390,"x_max":1284,"o":"m 361 50 q 300 70 338 60 q 231 79 262 79 q 181 70 197 79 q 165 47 165 60 q 182 27 165 36 q 239 18 199 18 q 316 32 279 18 q 361 50 354 45 m 997 756 q 904 676 945 736 q 803 462 862 616 q 831 469 805 462 q 874 488 857 477 q 910 537 892 519 q 952 567 927 555 q 971 569 963 568 q 996 569 980 569 l 1031 569 q 1057 568 1036 569 q 1171 568 1078 568 q 940 398 1002 469 q 852 229 878 326 l 806 235 q 825 348 813 299 q 841 408 837 396 q 832 410 861 415 q 782 405 804 406 q 675 238 747 317 q 549 127 604 158 q 642 115 579 122 q 754 108 705 108 q 893 125 835 108 q 996 180 951 143 q 1138 347 1046 222 q 1167 385 1150 364 l 1211 363 q 936 37 1051 131 q 700 -56 820 -56 q 572 -35 643 -56 q 418 25 502 -14 q 335 -16 383 1 q 240 -33 286 -33 q 146 -13 182 -33 q 111 47 111 6 q 170 127 111 98 q 321 155 230 155 q 460 143 364 155 q 462 143 470 142 q 503 224 479 168 q 560 396 526 280 l 522 396 l 432 396 q 384 396 410 396 q 340 397 358 397 q 2 39 113 123 q -216 -44 -109 -44 q -341 -4 -293 -44 q -390 102 -390 36 q -357 177 -390 144 q -281 210 -324 210 q -213 183 -240 210 q -185 117 -185 157 q -192 84 -185 100 q -204 58 -198 67 q -190 53 -205 58 q -151 47 -176 47 q 14 124 -83 47 q 261 382 111 201 l 283 409 q 661 791 512 686 q 605 793 665 791 q 479 796 546 796 q 197 769 315 796 q -2 684 80 741 q -101 591 -68 640 q -135 493 -135 542 q -104 421 -135 449 q -20 394 -73 394 q 143 453 74 394 q 213 587 213 512 q 207 635 213 612 q 176 705 200 659 l 220 723 q 256 642 247 674 q 264 575 264 609 q 180 374 264 459 q -21 290 95 290 q -148 337 -98 290 q -198 457 -198 384 q -130 638 -198 550 q 62 797 -62 726 q 324 898 182 865 q 652 930 467 930 q 760 927 709 930 q 848 920 810 924 q 978 982 908 959 q 1117 1005 1048 1005 q 1239 978 1193 1005 q 1284 897 1284 951 q 1212 795 1284 836 q 1039 755 1140 755 q 1013 755 1023 755 q 997 756 1002 755 m 739 783 q 541 621 636 712 q 382 450 446 530 q 351 449 345 450 q 472 447 434 447 q 556 448 494 447 q 576 449 578 449 q 717 663 619 572 q 876 772 814 753 q 874 770 953 762 q 739 783 795 777 m 927 911 q 1034 899 962 906 q 1136 892 1106 892 q 1207 900 1187 892 q 1227 917 1227 908 q 1199 941 1227 928 q 1118 954 1171 954 q 995 934 1058 954 q 927 911 932 915 z "},"":{"ha":1054,"x_min":-155,"x_max":789,"o":"m 519 831 q 505 837 520 831 q 471 842 490 842 q 347 797 416 842 q 220 674 277 751 q 107 460 147 573 q 66 244 66 347 q 76 161 66 198 q 87 120 85 123 l 519 831 m 591 845 l 587 838 q 600 810 593 829 q 606 771 606 791 q 597 708 606 740 q 557 627 588 677 l 516 655 q 547 720 540 696 q 555 764 555 744 q 550 789 555 777 q 555 787 546 801 l 122 71 q 156 49 134 59 q 210 39 179 39 q 336 79 273 39 q 454 197 399 119 q 575 438 532 309 q 618 689 618 568 q 607 793 618 749 q 591 845 596 838 m 681 1097 l 730 1075 l 661 961 q 753 860 718 927 q 789 697 789 793 q 710 396 789 547 q 492 123 632 245 q 299 -2 396 41 q 109 -44 202 -44 q 72 -42 90 -44 q 52 -39 54 -40 l -19 -155 l -66 -132 l 0 -22 q -107 73 -60 -1 q -155 244 -155 147 q -86 510 -155 379 q 105 739 -18 642 q 290 854 195 811 q 452 897 385 897 q 518 887 490 897 q 547 877 546 878 l 557 892 q 508 923 544 909 q 425 938 471 938 q 291 897 362 938 q 149 764 220 855 l 112 798 q 289 956 191 903 q 492 1008 388 1008 q 561 1001 528 1008 q 612 987 595 994 l 681 1097 z "},"":{"ha":1157,"x_min":124,"x_max":1034,"o":"m 652 380 q 714 313 675 338 q 803 288 753 288 q 897 324 861 288 q 932 416 932 359 q 900 510 932 473 q 818 547 867 547 q 734 508 773 547 q 652 380 695 469 m 506 448 q 443 515 483 490 q 355 541 404 541 q 261 505 297 541 q 226 411 226 469 q 258 319 226 355 q 339 283 291 283 q 425 321 385 283 q 506 448 464 359 m 571 551 q 662 662 604 616 q 799 707 720 707 q 964 622 895 707 q 1034 415 1034 536 q 972 206 1034 288 q 807 124 909 124 q 683 166 738 124 q 586 278 628 209 q 496 169 553 215 q 367 123 439 123 q 194 207 264 123 q 124 414 124 291 q 187 624 124 542 q 351 705 250 705 q 477 661 421 705 q 571 551 532 617 z "},"":{"ha":1157,"x_min":152,"x_max":1005,"o":"m 1005 144 l 1005 -11 l 152 -11 l 152 144 l 1005 144 m 656 838 l 656 612 l 1005 612 l 1005 459 l 656 459 l 656 233 l 500 233 l 500 459 l 152 459 l 152 612 l 500 612 l 500 838 l 656 838 z "},"":{"ha":1157,"x_min":156,"x_max":1001,"o":"m 1001 141 l 1001 -12 l 156 -12 l 156 141 l 1001 141 m 1001 695 l 444 515 l 1001 336 l 1001 174 l 156 450 l 156 578 l 1001 858 l 1001 695 z "},"":{"ha":1157,"x_min":156,"x_max":1002,"o":"m 1002 141 l 1002 -12 l 156 -12 l 156 141 l 1002 141 m 1001 578 l 1001 450 l 156 174 l 156 336 l 714 515 l 156 695 l 156 858 l 1001 578 z "},"":{"ha":798,"x_min":-318,"x_max":713,"o":"m 132 437 l 144 315 l 264 437 l 132 437 m 215 724 l 184 669 l 109 669 l 125 492 l 319 492 l 437 613 q 463 643 456 632 q 470 660 470 654 q 469 667 470 664 q 467 669 467 669 l 374 674 l 393 724 l 713 724 l 681 673 l 583 667 q 547 642 567 658 q 508 606 527 627 l 401 492 l 555 492 l 525 437 l 348 437 l 226 312 l 450 312 l 414 256 l 170 256 l 151 239 l 66 36 l 176 36 l 147 -20 l -273 -20 l -235 36 l -134 36 l -36 260 l -36 256 l -318 256 l -288 312 l -42 312 l -54 437 l -240 437 l -210 492 l -61 492 l -79 669 l -190 669 l -159 724 l 215 724 z "},"":{"ha":803,"x_min":-94,"x_max":777,"o":"m 26 257 l 103 621 l 285 621 l 212 279 q 202 225 205 249 q 198 189 198 202 q 217 135 198 154 q 272 116 236 116 q 352 147 322 116 q 398 250 382 178 l 477 621 l 660 621 l 578 235 q 576 224 577 231 q 566 154 566 179 q 576 123 566 134 q 604 113 585 113 q 642 125 625 113 q 674 163 658 136 q 688 195 680 174 q 742 248 711 248 q 768 236 760 248 q 777 207 777 224 q 765 144 777 185 q 736 71 753 102 q 664 -10 706 18 q 570 -37 623 -37 q 467 6 503 -37 q 431 26 431 50 q 387 3 438 43 q 269 -37 336 -37 q 149 7 193 -37 q 111 -7 104 52 q 104 -80 121 49 q -7 -305 75 -305 q -71 -281 -47 -305 q -94 -216 -94 -257 q -47 -21 -94 -178 q 26 257 0 137 z "},"":{"ha":729,"x_min":42,"x_max":691,"o":"m 505 505 q 511 562 505 506 q 517 660 517 618 q 502 766 517 736 q 456 795 486 795 q 362 755 420 795 q 273 715 304 715 q 215 739 240 715 q 191 794 191 762 q 251 888 191 850 q 400 926 312 926 q 611 811 530 926 q 691 511 691 696 q 585 119 691 276 q 314 -37 478 -37 q 119 45 196 -37 q 42 253 42 127 q 124 486 42 391 q 328 580 206 580 q 452 546 402 580 q 505 505 503 512 m 458 342 q 435 450 458 414 q 371 485 412 485 q 269 404 312 485 q 226 187 226 322 q 249 80 226 115 q 313 45 271 45 q 415 127 372 45 q 458 342 458 210 z "},"":{"ha":1017,"x_min":-8,"x_max":1021,"o":"m -8 1019 l 840 1019 l 934 711 l 837 711 l 777 886 q 751 917 770 908 q 673 926 733 926 l 294 926 l 773 406 l 773 361 l 274 -91 l 827 -91 q 858 -86 852 -91 q 871 -62 865 -81 l 922 108 l 1021 108 l 901 -287 l -8 -287 l -8 -220 l 577 306 l -8 950 l -8 1019 z "},"":{"ha":1135,"x_min":14,"x_max":1119,"o":"m 14 1019 l 1119 1019 l 1119 926 l 990 926 l 990 -193 l 1119 -193 l 1119 -287 l 642 -287 l 642 -193 l 767 -193 l 767 926 l 365 926 l 365 -193 l 491 -193 l 491 -287 l 14 -287 l 14 -193 l 142 -193 l 142 926 l 14 926 l 14 1019 z "},"":{"ha":968,"x_min":-6,"x_max":977,"o":"m 933 422 l 702 422 q 693 341 697 391 q 690 240 690 292 l 690 140 q 663 -1 690 47 q 578 -50 637 -50 q 512 -23 535 -50 q 490 50 490 4 q 541 227 490 98 q 608 422 591 357 l 392 422 q 383 346 387 394 q 378 244 378 297 q 379 231 378 242 q 380 142 380 184 q 353 0 380 49 q 267 -50 326 -50 q 202 -23 224 -50 q 180 49 180 3 q 231 227 180 97 q 298 422 282 356 l 229 422 q 219 422 227 422 q 208 421 212 421 q 117 401 143 421 q 75 304 91 380 l -6 304 q 92 554 27 488 q 286 621 156 621 l 977 621 l 933 422 z "},"":{"ha":760,"x_min":13,"x_max":748,"o":"m 220 -155 q 282 295 272 -155 q 284 378 283 350 q 364 910 293 747 q 593 1073 435 1073 q 704 1037 659 1073 q 748 946 748 1000 q 719 867 748 897 q 640 838 690 838 q 577 858 603 838 q 543 913 552 877 q 538 947 539 926 q 540 956 537 956 q 480 559 492 956 q 475 390 477 450 q 454 97 468 199 q 412 -73 439 -4 q 311 -221 373 -170 q 167 -272 249 -272 q 57 -237 100 -272 q 13 -146 13 -201 q 43 -65 13 -94 q 125 -37 73 -37 q 181 -52 157 -37 q 216 -98 205 -68 q 223 -134 222 -113 q 220 -155 224 -155 z "},"":{"ha":541,"x_min":81,"x_max":761,"o":"m 399 934 q 363 920 382 934 q 319 873 344 906 q 265 782 283 826 q 247 703 247 737 q 252 684 247 690 q 265 677 257 677 q 295 689 279 677 q 338 737 311 701 q 393 830 374 785 q 413 904 413 876 q 409 928 413 922 q 399 934 405 934 m 474 966 l 479 975 l 664 983 q 517 748 557 820 q 477 659 477 675 q 478 656 477 657 q 479 655 479 655 q 562 708 507 655 q 720 899 616 760 l 761 874 q 578 654 650 718 q 441 591 507 591 q 366 621 395 591 q 336 699 336 651 q 337 708 336 704 q 319 623 337 713 q 291 622 340 652 q 196 591 242 591 q 113 625 145 591 q 81 714 81 660 q 112 823 81 770 q 195 918 142 877 q 288 970 239 951 q 382 988 337 988 q 451 967 425 988 q 474 966 477 947 z "},"":{"ha":541,"x_min":111,"x_max":759,"o":"m 719 900 l 759 867 q 689 800 716 815 q 631 784 662 784 q 570 802 595 784 q 575 760 545 820 q 567 848 567 857 q 568 831 568 840 q 481 657 568 730 q 269 585 395 585 q 153 625 195 585 q 111 734 111 664 q 199 917 111 839 q 401 994 287 994 q 498 972 459 994 q 562 903 538 949 q 599 845 585 856 q 632 834 612 834 q 668 846 649 834 q 719 900 686 857 m 412 939 q 379 923 400 939 q 338 875 358 906 q 273 760 294 810 q 252 671 252 709 q 256 644 252 650 q 271 638 260 638 q 303 652 284 638 q 342 694 321 666 q 406 811 380 747 q 431 908 431 876 q 426 932 431 926 q 412 939 420 939 z "},"":{"ha":1064,"x_min":-9,"x_max":1074,"o":"m 781 170 l 950 170 l 987 284 l 1074 284 l 983 -20 l 585 -20 q 712 300 674 155 q 749 582 749 444 q 694 852 749 764 q 533 939 640 939 q 371 852 427 939 q 316 583 316 765 q 354 302 316 447 q 482 -20 392 158 l 82 -20 l -9 284 l 79 284 l 115 170 l 284 170 l 284 156 q 123 349 181 239 q 66 582 66 459 q 199 907 66 779 q 533 1036 333 1036 q 867 907 734 1036 q 1000 582 1000 779 q 942 348 1000 458 q 781 156 884 237 l 781 170 z "},"":{"ha":983,"x_min":-347,"x_max":797,"o":"m 264 191 q 263 172 264 184 q 262 155 262 161 q 284 72 262 99 q 351 45 307 45 q 529 128 427 45 q 760 387 632 210 l 797 355 q 522 58 656 153 q 252 -37 388 -37 q 103 13 158 -37 q 49 147 49 62 q 50 162 49 153 q 45 102 50 170 q -45 22 31 78 q -195 -34 -121 -34 q -304 13 -262 -34 q -347 132 -347 59 q -305 284 -347 209 q -191 418 -264 360 q -64 490 -132 464 q 66 516 4 516 q 160 489 125 516 q 193 481 195 461 l 197 493 l 405 507 q 449 516 426 513 q 493 520 471 520 q 595 492 556 520 q 634 412 634 463 q 545 285 634 335 q 264 191 456 235 m 278 247 q 404 320 345 261 q 463 449 463 379 q 461 461 463 458 q 456 465 458 465 q 359 393 418 465 q 278 247 300 321 m 96 463 q 40 441 70 463 q -30 367 10 419 q -106 234 -77 304 q -135 118 -135 163 q -125 79 -135 92 q -97 66 -115 66 q -48 87 -75 66 q 16 157 -21 107 q 95 294 65 222 q 125 408 125 366 q 117 451 125 438 q 96 463 109 463 z "},"":{"ha":746,"x_min":-329,"x_max":570,"o":"m 146 462 l -111 14 q -120 17 -125 18 q -113 16 -116 16 q -58 37 -88 16 q 2 100 -28 58 q 47 169 26 132 q 85 250 68 207 q 124 352 112 310 q 136 421 136 395 q 132 452 136 441 q 146 462 127 462 m 91 479 q 105 473 109 473 q 98 474 102 474 q 43 447 78 474 q -24 370 9 419 q -117 206 -85 283 q -148 68 -148 128 q -145 40 -148 50 q -157 47 -143 30 l 91 479 m 169 613 l 220 592 l 176 514 q 228 485 196 509 q 285 418 260 461 q 303 383 288 413 q 332 335 318 353 q 364 309 347 317 q 401 301 381 301 q 456 318 429 301 q 523 386 483 334 l 570 364 q 479 274 515 296 q 399 252 442 252 q 322 274 355 252 q 312 256 290 297 q 304 327 303 339 q 305 309 305 315 q 271 178 305 245 q 178 58 237 111 q 52 -11 127 15 q -98 -37 -24 -37 q -125 -36 -111 -37 q -138 -35 -138 -35 l -205 -153 l -254 -127 l -198 -28 q -286 32 -242 -22 q -329 167 -329 86 q -298 301 -329 237 q -208 418 -267 366 q -75 500 -149 471 q 77 529 0 529 q 118 526 92 529 q 120 526 128 525 l 169 613 z "},"":{"ha":694,"x_min":-195,"x_max":462,"o":"m 262 570 l 311 546 q 199 434 269 482 q 182 422 186 427 q 42 302 74 349 q 11 196 11 255 q 50 91 11 134 q 142 48 88 48 q 211 77 184 48 q 237 153 237 105 q 219 214 237 192 q 176 235 202 235 q 142 219 155 235 q 129 174 129 203 l 129 146 l 83 146 q 77 176 77 169 q 77 195 77 183 q 122 322 77 270 q 236 374 168 374 q 333 334 295 374 q 370 232 370 294 q 341 130 370 179 q 258 41 312 80 q 154 -13 211 6 q 40 -33 96 -33 q -129 25 -62 -33 q -195 175 -195 83 q -131 327 -195 265 q 102 453 -66 388 l 103 454 q 262 570 217 497 m 349 753 q 429 720 395 753 q 462 640 462 686 q 428 561 462 594 q 349 527 395 527 q 268 560 301 527 q 234 640 234 593 q 268 720 234 687 q 349 753 302 753 z "},"":{"ha":566,"x_min":-243,"x_max":319,"o":"m 127 585 l 179 564 q 106 416 136 490 q 49 255 75 342 q 25 175 40 226 q -18 49 -4 77 q -67 -9 -38 12 q -131 -30 -96 -30 q -210 1 -176 -30 q -243 78 -243 33 q -113 279 -243 147 q -81 311 -92 300 q 34 443 -14 380 q 127 585 83 505 m 205 773 q 286 739 252 773 q 319 660 319 705 q 285 580 319 614 q 205 547 252 547 q 124 579 158 547 q 91 660 91 612 q 125 740 91 706 q 205 773 159 773 z "},"":{"ha":1157,"x_min":152,"x_max":1005,"o":"m 1005 605 l 1005 224 l 852 224 l 852 452 l 152 452 l 152 605 l 1005 605 z "},"":{"ha":897,"x_min":20,"x_max":919,"o":"m 919 1156 l 919 1041 l 840 1041 l 437 -48 l 353 -48 l 140 537 l 50 504 l 20 608 l 264 694 l 419 261 l 751 1156 l 919 1156 z "},"":{"ha":798,"x_min":-551,"x_max":736,"o":"m 459 415 l 449 359 l 260 359 q 117 101 164 179 q 35 -18 70 22 q -144 -167 -47 -114 q -335 -220 -241 -220 q -490 -173 -429 -220 q -551 -50 -551 -126 q -525 27 -551 -3 q -454 56 -499 56 q -387 31 -414 56 q -359 -32 -359 5 q -382 -88 -359 -66 q -440 -111 -406 -111 q -458 -108 -448 -111 q -444 -114 -468 -105 q -416 -137 -444 -115 q -354 -159 -389 -159 q -179 -46 -269 -159 q 50 359 -89 67 l -103 359 l -79 415 l 77 415 q 312 759 191 646 q 574 873 432 873 q 690 835 645 873 q 736 736 736 798 q 708 661 736 690 q 637 631 681 631 q 568 655 597 631 q 539 715 539 680 q 564 774 539 750 q 624 798 589 798 q 642 795 631 798 q 639 797 652 791 q 622 799 640 785 q 576 813 604 813 q 457 730 520 813 q 286 415 393 646 l 459 415 z "},"":{"ha":1157,"x_min":100,"x_max":1058,"o":"m 1058 264 q 908 184 975 208 q 774 160 842 160 q 581 205 710 160 q 382 250 452 250 q 271 227 329 250 q 100 125 213 203 l 100 300 q 254 383 187 358 q 383 408 321 408 q 596 362 467 408 q 781 316 726 316 q 890 339 833 316 q 1058 441 947 363 l 1058 264 m 1058 528 q 907 446 973 470 q 774 422 842 422 q 582 468 711 422 q 382 514 452 514 q 273 491 330 514 q 100 389 216 469 l 100 564 q 253 646 185 621 q 383 672 321 672 q 597 626 468 672 q 775 580 726 580 q 891 603 833 580 q 1058 703 949 625 l 1058 528 z "},"":{"ha":916,"x_min":-27,"x_max":943,"o":"m 619 190 l 392 727 l 161 190 l 619 190 m 492 1036 l 943 -20 l -27 -20 l 432 1036 l 492 1036 z "},"":{"ha":694,"x_min":-264,"x_max":336,"o":"m 162 -37 l -39 220 l 307 481 l 336 442 l 146 211 l 196 -9 l 162 -37 m -63 -37 l -264 220 l 83 482 l 110 441 l -79 211 l -29 -9 l -63 -37 z "},"":{"ha":694,"x_min":-320,"x_max":278,"o":"m -150 482 l 52 224 l -296 -38 l -320 3 l -134 233 l -184 453 l -150 482 m 73 484 l 278 224 l -71 -38 l -95 3 l 92 233 l 43 452 l 73 484 z "},"":{"ha":1389,"x_min":-271,"x_max":897,"o":"m 314 211 q 399 175 364 211 q 434 89 434 139 q 399 4 434 39 q 314 -31 363 -31 q 228 4 264 -31 q 192 89 192 40 q 228 175 192 138 q 314 211 264 211 m -150 211 q -64 175 -99 211 q -28 89 -28 139 q -64 4 -28 39 q -150 -31 -100 -31 q -235 4 -199 -31 q -271 89 -271 39 q -235 174 -271 138 q -150 211 -199 211 m 777 211 q 862 175 827 211 q 897 89 897 139 q 861 4 897 39 q 777 -31 826 -31 q 692 4 728 -31 q 656 89 656 39 q 691 175 656 138 q 777 211 726 211 z "},"":{"ha":798,"x_min":0,"x_max":0,"o":""},"":{"ha":1311,"x_min":-429,"x_max":1226,"o":"m 928 840 q 690 673 820 783 q 459 444 561 563 l 579 444 q 715 644 635 544 q 918 865 794 744 l 928 840 m 1175 996 l 1204 956 q 819 461 954 690 q 684 90 684 231 q 692 45 684 57 q 714 33 700 33 q 867 125 764 33 q 1085 383 971 217 l 1127 355 q 865 57 994 160 q 633 -45 737 -45 q 519 -1 561 -45 q 477 119 477 43 q 501 261 477 182 q 552 392 525 340 l 412 392 q 65 62 211 162 q -215 -39 -81 -39 q -368 9 -308 -39 q -429 134 -429 58 q -396 228 -429 190 q -311 266 -363 266 q -244 239 -271 266 q -218 171 -218 212 q -238 110 -218 134 q -292 85 -258 85 q -298 86 -295 85 q -277 87 -302 87 q -246 56 -276 76 q -163 36 -216 36 q -57 59 -116 36 q 62 124 1 81 q 354 404 155 190 q 406 461 388 442 q 795 815 625 698 q 1175 996 965 932 m 1029 1295 l 1223 1295 q 1226 1229 1225 1251 q 1226 1182 1226 1206 q 1224 1093 1226 1139 q 1215 981 1221 1046 l 1167 975 q 1113 1139 1142 1070 q 1029 1295 1084 1207 z "},"":{"ha":1311,"x_min":-429,"x_max":1390,"o":"m 928 840 q 690 673 820 783 q 459 444 561 563 l 579 444 q 715 644 635 544 q 918 865 794 744 l 928 840 m 1175 996 l 1204 956 q 819 461 954 690 q 684 90 684 231 q 692 45 684 57 q 714 33 700 33 q 867 125 764 33 q 1085 383 971 217 l 1127 355 q 865 57 994 160 q 633 -45 737 -45 q 519 -1 561 -45 q 477 119 477 43 q 501 261 477 182 q 552 392 525 340 l 412 392 q 65 62 211 162 q -215 -39 -81 -39 q -368 9 -308 -39 q -429 134 -429 58 q -396 228 -429 190 q -311 266 -363 266 q -244 239 -271 266 q -218 171 -218 212 q -238 110 -218 134 q -292 85 -258 85 q -298 86 -295 85 q -277 87 -302 87 q -246 56 -276 76 q -163 36 -216 36 q -57 59 -116 36 q 62 124 1 81 q 354 404 155 190 q 406 461 388 442 q 795 815 625 698 q 1175 996 965 932 m 1390 1224 q 1317 1065 1349 1101 q 1230 1028 1284 1028 q 1120 1059 1190 1028 q 1023 1089 1050 1089 q 988 1076 1002 1089 q 964 1014 975 1063 l 910 1024 q 961 1175 930 1133 q 1049 1217 992 1217 q 1148 1190 1081 1217 q 1251 1163 1216 1163 q 1293 1174 1278 1163 q 1338 1241 1307 1184 l 1390 1224 z "},"":{"ha":1132,"x_min":-155,"x_max":948,"o":"m 652 297 q 653 300 638 302 q 689 298 668 298 q 798 320 746 298 q 928 406 850 341 l 948 357 q 815 270 876 294 q 688 245 755 245 q 646 247 667 245 q 615 252 625 250 q 374 39 510 120 q 113 -41 239 -41 q -83 38 -10 -41 q -155 253 -155 118 q -75 532 -155 392 q 148 780 6 671 q 304 873 223 838 q 463 918 385 908 q 537 967 496 949 q 621 985 578 985 q 759 914 705 985 q 812 733 812 842 q 765 510 812 632 q 652 297 719 388 m 537 351 q 606 550 581 448 q 631 742 631 651 q 610 870 631 831 q 553 910 589 910 q 531 904 543 910 q 541 919 520 899 q 583 882 549 919 q 618 785 618 846 q 609 725 618 754 q 576 649 601 695 l 528 664 q 560 737 553 713 q 567 779 567 760 q 547 846 567 824 q 490 869 527 869 l 493 869 q 453 770 469 833 q 437 629 437 707 q 466 449 437 518 q 537 351 494 380 m 410 852 q 345 806 406 852 q 227 688 284 760 q 113 475 157 597 q 69 249 69 353 q 112 95 69 151 q 224 39 155 39 q 378 115 292 39 q 513 298 463 191 q 382 416 434 336 q 331 603 331 497 q 361 753 331 677 q 410 852 391 828 m 909 1224 q 836 1065 868 1101 q 749 1028 804 1028 q 640 1059 709 1028 q 542 1089 570 1089 q 507 1076 521 1089 q 484 1014 494 1063 l 429 1024 q 480 1175 449 1133 q 568 1217 511 1217 q 668 1190 600 1217 q 770 1163 735 1163 q 812 1174 798 1163 q 857 1241 826 1184 l 909 1224 z "},"":{"ha":1389,"x_min":-247,"x_max":1109,"o":"m 587 515 q 430 412 488 477 q 372 256 372 347 q 375 212 372 235 q 379 190 379 189 q 506 339 444 241 q 587 515 568 437 m 630 898 q 744 961 676 935 q 884 987 812 987 q 1046 939 983 987 q 1109 812 1109 892 q 1028 660 1109 720 q 831 599 947 599 q 782 603 805 599 q 724 618 758 607 l 716 675 q 778 655 762 658 q 808 652 793 652 q 905 695 869 652 q 941 815 941 738 q 915 898 941 865 q 852 931 888 931 q 803 913 828 931 q 760 861 779 895 q 707 690 731 810 q 690 612 697 638 q 581 346 656 466 q 399 138 505 225 q 477 61 417 96 q 615 26 537 26 q 791 93 722 26 q 860 260 860 159 q 830 342 860 311 q 754 374 800 374 q 670 338 709 374 q 606 218 632 301 l 551 211 q 666 413 591 348 q 836 479 741 479 q 978 428 921 479 q 1034 298 1034 377 q 989 170 1034 232 q 861 55 943 107 q 687 -22 780 5 q 498 -48 594 -48 q 350 -28 413 -48 q 248 24 286 -9 q 139 -25 198 -6 q 25 -44 79 -44 q -171 41 -96 -44 q -247 261 -247 126 q -191 491 -247 377 q -31 703 -136 604 q 173 846 66 793 q 367 899 279 899 q 473 863 434 899 q 512 762 512 827 q 503 707 512 734 q 465 638 494 680 l 424 663 q 456 726 450 706 q 463 764 463 746 q 440 823 463 802 q 376 845 418 845 q 254 801 319 845 q 125 674 189 758 q 14 468 54 581 q -27 253 -27 355 q 12 93 -27 146 q 125 40 51 40 q 178 48 152 40 q 211 61 204 56 q 182 112 197 75 q 167 193 167 149 q 202 319 167 263 q 310 420 238 375 q 376 456 333 435 q 475 532 453 494 q 515 678 502 578 q 525 740 520 720 q 542 796 530 772 q 562 831 553 821 q 490 918 540 884 q 376 952 441 952 q 218 912 293 952 q 60 774 143 873 l 24 810 q 199 959 109 912 q 386 1006 290 1006 q 536 975 472 1006 q 630 898 601 943 z "},"":{"ha":1003,"x_min":-315,"x_max":829,"o":"m 296 247 q 421 320 362 261 q 481 449 481 379 q 478 461 481 458 q 473 465 476 465 q 377 393 437 465 q 296 247 318 321 m 114 477 q 59 450 93 477 q -9 373 26 423 q -102 207 -71 285 q -134 69 -134 129 q -125 24 -134 36 q -97 12 -116 12 q -46 34 -76 12 q 16 98 -16 56 q 58 164 37 127 q 99 248 79 201 q 137 351 124 306 q 149 422 149 395 q 140 464 149 451 q 114 477 130 477 m 284 192 q 283 195 284 203 q 283 184 283 187 q 307 83 283 115 q 378 51 330 51 q 558 137 454 51 q 781 398 663 223 l 829 370 q 544 61 677 160 q 288 -39 412 -39 q 191 -19 233 -39 q 129 25 149 1 q 33 -21 94 -1 q -96 -41 -29 -41 q -256 14 -198 -41 q -315 167 -315 69 q -284 302 -315 238 q -194 419 -253 367 q -60 502 -135 472 q 90 532 16 532 q 209 508 159 532 q 277 454 258 484 q 390 500 325 481 q 517 519 454 519 q 615 491 577 519 q 652 412 652 463 q 563 285 652 335 q 284 192 474 235 z "},"":{"ha":694,"x_min":-275,"x_max":408,"o":"m -175 353 q -7 350 -75 351 q 111 349 61 349 q 344 352 179 349 q 408 352 361 352 l 311 205 q 152 207 232 205 q 62 208 73 208 q -114 207 -51 208 q -275 205 -178 207 l -175 353 z "},"":{"ha":1389,"x_min":-317,"x_max":1181,"o":"m -225 357 l 1181 357 l 1089 208 l -317 208 l -225 357 z "},"":{"ha":599,"x_min":-146,"x_max":551,"o":"m 551 909 l 545 857 q 339 796 410 850 q 268 726 269 743 q 257 699 241 692 q 292 707 273 707 q 354 681 330 707 q 378 615 378 655 q 346 535 378 566 q 264 503 313 503 q 176 542 210 503 q 142 639 142 581 q 251 825 142 749 q 551 909 359 901 m 262 909 l 256 857 q 50 797 121 850 q -21 724 -20 743 q -31 700 -47 692 q 1 707 -16 707 q 64 681 40 707 q 88 615 88 655 q 56 535 88 566 q -26 503 23 503 q -113 542 -80 503 q -146 639 -146 581 q -38 825 -146 749 q 262 909 71 901 z "},"":{"ha":599,"x_min":-235,"x_max":459,"o":"m 51 479 l 57 531 q 262 591 192 538 q 334 665 333 644 q 345 688 360 696 q 310 681 329 681 q 247 706 271 681 q 222 771 222 732 q 255 852 222 820 q 338 884 288 884 q 425 845 391 884 q 459 749 459 806 q 350 562 459 638 q 51 479 241 486 m -235 480 l -235 532 q -28 592 -98 539 q 43 668 43 646 q 54 689 68 696 q 21 682 39 682 q -42 708 -18 682 q -66 772 -66 733 q -33 853 -66 821 q 49 886 0 886 q 136 847 102 886 q 170 750 170 808 q 61 564 170 640 q -235 480 -47 488 z "},"":{"ha":309,"x_min":-146,"x_max":262,"o":"m 262 909 l 256 857 q 50 797 121 850 q -21 724 -20 743 q -31 700 -47 692 q 1 707 -16 707 q 64 681 40 707 q 88 615 88 655 q 56 535 88 566 q -26 503 23 503 q -113 542 -80 503 q -146 639 -146 581 q -38 825 -146 749 q 262 909 71 901 z "},"":{"ha":309,"x_min":-235,"x_max":170,"o":"m -235 480 l -235 532 q -28 592 -98 539 q 43 668 43 646 q 54 689 68 696 q 21 682 39 682 q -42 708 -18 682 q -66 772 -66 733 q -33 853 -66 821 q 49 886 0 886 q 136 847 102 886 q 170 750 170 808 q 61 564 170 640 q -235 480 -47 488 z "},"":{"ha":1157,"x_min":152,"x_max":1005,"o":"m 579 269 q 660 236 627 269 q 692 155 692 202 q 660 76 692 109 q 579 43 627 43 q 499 76 532 43 q 466 155 466 108 q 499 236 466 202 q 579 269 533 269 m 1005 491 l 1005 338 l 152 338 l 152 491 l 1005 491 m 579 785 q 660 751 627 785 q 692 671 692 718 q 660 592 692 625 q 579 559 627 559 q 499 591 532 559 q 466 671 466 623 q 499 751 466 718 q 579 785 532 785 z "},"":{"ha":686,"x_min":-18,"x_max":705,"o":"m 343 908 l 104 401 l 343 -110 l 582 401 l 343 908 m 343 1168 l 705 401 l 343 -372 l -18 401 l 343 1168 z "},"":{"ha":743,"x_min":-818,"x_max":560,"o":"m 420 505 l 163 64 q 309 163 210 81 q 515 382 408 245 l 560 360 q 337 119 446 208 q 123 -8 229 30 q -156 -331 10 -219 q -532 -443 -323 -443 q -739 -387 -661 -443 q -818 -236 -818 -332 q -746 -100 -818 -150 q -558 -50 -674 -50 q -513 -53 -535 -50 q -446 -63 -490 -55 l -456 -111 q -488 -108 -481 -109 q -507 -108 -496 -108 q -592 -142 -561 -108 q -623 -239 -623 -177 q -585 -345 -623 -303 q -490 -387 -547 -387 q -371 -347 -433 -387 q -242 -223 -309 -307 q -116 -38 -212 -185 q 22 171 -20 109 l 45 155 q -92 18 -18 73 q -233 -36 -167 -36 q -325 0 -291 -36 q -358 96 -358 36 q -342 177 -358 134 q -281 296 -326 220 l -166 496 l 71 505 l -120 193 q -162 114 -146 151 q -177 62 -177 77 q -174 51 -177 55 q -167 47 -170 47 q -49 124 -123 47 q 98 334 26 202 l 185 496 l 420 505 m 360 785 q 426 758 397 785 q 454 693 454 730 q 427 625 454 653 q 360 597 400 597 q 294 626 321 597 q 267 693 267 654 q 295 757 267 729 q 360 785 323 785 m 90 785 q 156 758 128 785 q 184 693 184 730 q 158 625 184 653 q 90 597 131 597 q 25 626 52 597 q -2 693 -2 654 q 26 757 -2 729 q 90 785 54 785 z "},"":{"ha":1181,"x_min":-433,"x_max":1136,"o":"m 892 936 l 1136 936 q 746 327 954 669 q 468 -105 538 -16 q 192 -349 342 -267 q -131 -431 41 -431 q -350 -374 -267 -431 q -433 -216 -433 -317 q -367 -80 -433 -130 q -193 -30 -300 -30 q -127 -37 -160 -30 q -37 -64 -94 -43 l -52 -109 q -106 -96 -93 -98 q -129 -94 -120 -94 q -204 -133 -173 -94 q -235 -235 -235 -172 q -198 -339 -235 -300 q -98 -378 -160 -378 q 30 -336 -38 -378 q 162 -215 98 -294 q 453 208 237 -123 l 477 244 l 502 225 q 297 38 412 113 q 85 -36 181 -36 q -15 2 22 -36 q -52 104 -52 40 q 104 436 -52 193 l 121 461 q 161 522 134 482 q 326 856 326 774 q 304 901 326 882 q 252 920 283 920 q 164 898 209 920 q 79 837 119 877 q 9 732 35 792 q -17 616 -17 671 q 0 550 -17 573 q 43 528 16 528 q 107 557 73 528 q 173 654 140 587 l 227 654 q 124 504 184 553 q 3 456 64 456 q -96 496 -59 456 q -133 603 -133 537 q -97 737 -133 671 q 5 859 -61 803 q 153 950 76 919 q 309 981 229 981 q 455 934 399 981 q 512 807 512 886 q 323 424 512 712 q 283 363 297 384 q 174 176 203 237 q 144 83 144 115 q 154 58 144 68 q 182 48 164 48 q 276 89 214 48 q 408 197 339 129 q 592 440 478 268 q 892 936 705 613 m 1014 1220 q 1079 1193 1051 1220 q 1107 1128 1107 1165 q 1081 1060 1107 1088 q 1014 1032 1054 1032 q 948 1060 975 1032 q 921 1128 921 1088 q 949 1192 921 1164 q 1014 1220 977 1220 m 744 1220 q 810 1193 782 1220 q 838 1128 838 1165 q 811 1060 838 1088 q 744 1032 785 1032 q 679 1060 705 1032 q 652 1128 652 1088 q 680 1192 652 1164 q 744 1220 708 1220 z "},"":{"ha":232,"x_min":-498,"x_max":400,"o":"m 400 820 q 7 358 180 564 q -333 -52 -166 153 l -498 -60 q -107 395 -281 188 q 239 812 68 602 l 400 820 z "},"":{"ha":842,"x_min":23,"x_max":822,"o":"m 599 600 q 547 725 599 673 q 422 777 495 777 q 297 725 349 777 q 245 600 245 673 q 297 476 245 527 q 422 425 348 425 q 548 476 496 425 q 599 600 599 527 m 254 859 q 325 893 279 878 q 421 908 370 908 q 518 893 473 908 q 589 859 564 878 l 729 998 l 822 907 l 681 766 q 714 696 699 741 q 728 600 728 650 q 714 504 728 549 q 681 434 699 458 l 822 293 l 729 202 l 589 342 q 518 308 562 323 q 422 294 473 294 q 325 309 370 294 q 254 342 279 323 l 114 201 l 23 293 l 162 434 q 129 504 144 458 q 115 600 115 549 q 129 696 115 650 q 163 766 144 741 l 23 907 l 114 999 l 254 859 z "},"":{"ha":463,"x_min":-264,"x_max":110,"o":"m -63 -37 l -264 220 l 83 482 l 110 441 l -79 211 l -29 -9 l -63 -37 z "},"":{"ha":463,"x_min":-305,"x_max":67,"o":"m -136 484 l 67 224 l -281 -38 l -305 3 l -117 233 l -167 452 l -136 484 z "},"":{"ha":758,"x_min":-1147,"x_max":574,"o":"m 430 509 q 233 176 275 258 q 190 65 190 94 q 194 50 190 54 q 207 45 198 45 q 333 134 244 45 q 536 389 422 222 l 574 358 q 335 65 444 162 q 139 -33 226 -33 q 48 5 82 -33 q 14 106 14 43 q 30 192 14 143 q 74 288 46 241 l 156 427 l 5 427 l -134 149 q -466 -302 -292 -163 q -871 -441 -640 -441 q -1072 -388 -996 -441 q -1147 -241 -1147 -335 q -1077 -99 -1147 -152 q -895 -46 -1008 -46 q -847 -48 -869 -46 q -787 -58 -826 -50 l -797 -109 q -823 -104 -819 -104 q -835 -104 -827 -104 q -918 -142 -884 -104 q -952 -240 -952 -181 q -915 -345 -952 -305 q -819 -385 -878 -385 q -628 -284 -728 -385 q -414 33 -528 -183 l -208 427 l -338 427 l -281 483 l -177 483 q 80 826 -70 699 q 387 954 231 954 q 513 912 467 954 q 559 796 559 871 q 525 705 559 741 q 439 669 491 669 q 360 700 391 669 q 328 778 328 730 q 358 853 328 822 q 431 884 387 884 q 451 883 439 884 q 449 884 463 882 q 432 887 450 875 q 383 899 414 899 q 230 799 315 899 q 36 483 146 698 l 178 483 q 258 488 202 483 q 430 509 315 494 z "},"":{"ha":755,"x_min":-1147,"x_max":686,"o":"m 35 480 l 190 480 l 396 838 q 381 860 392 850 q 355 869 371 869 q 210 771 290 869 q 35 480 129 673 m 686 960 l 254 215 q 204 116 218 152 q 190 57 190 81 q 195 45 190 50 q 205 40 199 40 q 331 130 241 40 q 534 386 421 220 l 582 366 q 335 61 439 155 q 146 -33 232 -33 q 51 3 87 -33 q 14 98 14 39 q 37 205 14 145 q 106 341 60 266 l 156 422 l 5 422 l -134 149 q -468 -304 -296 -167 q -871 -441 -640 -441 q -1072 -388 -996 -441 q -1147 -241 -1147 -335 q -1077 -99 -1147 -152 q -895 -46 -1008 -46 q -847 -48 -869 -46 q -787 -58 -826 -50 l -797 -109 q -823 -104 -819 -104 q -835 -104 -827 -104 q -918 -142 -884 -104 q -952 -240 -952 -181 q -915 -345 -952 -305 q -819 -385 -878 -385 q -629 -286 -728 -385 q -414 33 -530 -186 l -208 422 l -335 422 l -282 480 l -177 480 q 58 808 -77 682 q 318 935 192 935 q 405 915 370 935 q 438 901 439 895 l 464 947 l 686 960 z "},"":{"ha":694,"x_min":-241,"x_max":573,"o":"m -143 -57 l -45 228 q -15 270 -36 254 q 32 287 6 287 q 96 264 68 287 q 123 210 123 242 q 117 180 123 195 q 100 153 111 165 l -100 -76 l -143 -57 m 365 332 l 336 275 l -241 275 l -212 332 l 365 332 m 58 335 l 136 583 q 167 627 144 609 q 216 644 190 644 q 276 621 252 644 q 300 564 300 598 q 295 536 300 549 q 279 511 290 524 l 94 309 l 58 335 m 573 688 l 543 631 l -35 631 l -6 688 l 573 688 m 256 693 l 339 954 q 371 996 348 979 q 421 1013 394 1013 q 481 991 456 1013 q 507 935 507 969 q 501 905 507 919 q 484 880 496 892 l 294 671 l 256 693 z "},"":{"ha":399,"x_min":-180,"x_max":43,"o":"m -69 472 q 9 439 -24 472 q 43 359 43 406 q 9 281 43 314 q -69 249 -24 249 q -147 282 -114 249 q -180 359 -180 315 q -148 438 -180 405 q -69 472 -115 472 z "},"":{"ha":309,"x_min":-467,"x_max":-59,"o":"m -467 -211 l -461 -158 q -256 -98 -327 -151 q -184 -30 -185 -44 q -174 -1 -158 6 q -208 -8 -189 -8 q -270 17 -246 -8 q -294 82 -294 43 q -261 162 -294 130 q -179 195 -228 195 q -92 157 -125 195 q -59 60 -59 119 q -168 -126 -59 -51 q -467 -211 -277 -202 z "},"":{"ha":599,"x_min":-467,"x_max":231,"o":"m -174 -210 l -174 -158 q 33 -98 -37 -151 q 104 -30 104 -45 q 116 -1 132 6 q 82 -8 101 -8 q 19 17 43 -8 q -5 82 -5 43 q 28 163 -5 130 q 110 195 60 195 q 197 157 163 195 q 231 60 231 118 q 122 -126 231 -51 q -174 -210 14 -202 m -467 -211 l -461 -158 q -256 -98 -327 -151 q -184 -30 -185 -44 q -174 -1 -158 6 q -208 -8 -189 -8 q -270 17 -246 -8 q -294 82 -294 43 q -261 162 -294 130 q -179 195 -228 195 q -92 157 -125 195 q -59 60 -59 119 q -168 -126 -59 -51 q -467 -211 -277 -202 z "},"":{"ha":1785,"x_min":-162,"x_max":1423,"o":"m 1281 330 q 1275 358 1281 351 q 1258 366 1269 366 q 1214 345 1242 366 q 1156 285 1186 323 q 1084 161 1112 229 q 1055 57 1055 93 q 1062 30 1055 37 q 1079 22 1068 22 q 1119 38 1095 22 q 1166 82 1143 54 q 1248 218 1215 143 q 1281 330 1281 294 m 758 330 q 751 358 758 351 q 734 366 745 366 q 691 345 719 366 q 633 285 663 323 q 561 161 589 229 q 533 57 533 94 q 539 29 533 37 q 555 22 545 22 q 595 38 571 22 q 643 82 620 54 q 724 218 691 143 q 758 330 758 294 m 1239 422 q 1372 375 1321 422 q 1423 253 1423 328 q 1390 137 1423 195 q 1298 35 1356 79 q 1201 -16 1255 2 q 1093 -34 1148 -34 q 963 10 1010 -34 q 916 131 916 54 q 943 239 916 186 q 1019 335 970 293 q 1123 398 1063 375 q 1239 422 1183 422 m 715 422 q 848 375 798 422 q 899 253 899 328 q 866 137 899 195 q 774 35 833 79 q 679 -16 731 1 q 571 -34 626 -34 q 441 10 488 -34 q 393 131 393 54 q 420 240 393 186 q 495 334 447 293 q 600 398 540 375 q 715 422 659 422 m 645 627 l 49 -111 l 5 -80 l 431 510 q 470 549 500 560 q 411 538 440 538 q 357 547 383 538 q 351 541 331 556 q 344 569 343 578 q 345 551 345 560 q 317 453 345 505 q 241 357 289 401 q 138 293 196 315 q 17 270 79 270 q -114 313 -66 270 q -162 433 -162 357 q -135 542 -162 488 q -60 638 -108 595 q 46 702 -14 678 q 163 726 106 726 q 259 704 215 726 q 331 642 303 682 q 371 597 355 608 q 411 587 388 587 q 468 602 439 587 q 522 643 497 616 q 560 695 536 660 q 640 760 604 760 q 677 745 663 760 q 691 708 691 730 q 681 676 691 693 q 645 627 671 659 m 203 635 q 197 663 203 655 q 180 670 191 670 q 137 649 165 670 q 79 588 109 628 q 6 463 34 530 q -22 355 -22 395 q -16 332 -22 340 q 1 325 -9 325 q 41 341 16 325 q 89 387 65 357 q 170 522 137 447 q 203 635 203 597 z "},"":{"ha":1311,"x_min":-429,"x_max":1355,"o":"m 928 840 q 690 673 820 783 q 459 444 561 563 l 579 444 q 715 644 635 544 q 918 865 794 744 l 928 840 m 1175 996 l 1204 956 q 819 461 954 690 q 684 90 684 231 q 692 45 684 57 q 714 33 700 33 q 867 125 764 33 q 1085 383 971 217 l 1127 355 q 865 57 994 160 q 633 -45 737 -45 q 519 -1 561 -45 q 477 119 477 43 q 501 261 477 182 q 552 392 525 340 l 412 392 q 65 62 211 162 q -215 -39 -81 -39 q -368 9 -308 -39 q -429 134 -429 58 q -396 228 -429 190 q -311 266 -363 266 q -244 239 -271 266 q -218 171 -218 212 q -238 110 -218 134 q -292 85 -258 85 q -298 86 -295 85 q -277 87 -302 87 q -246 56 -276 76 q -163 36 -216 36 q -57 59 -116 36 q 62 124 1 81 q 354 404 155 190 q 406 461 388 442 q 795 815 625 698 q 1175 996 965 932 m 1329 1326 q 1293 1235 1300 1263 q 1286 1179 1286 1206 q 1301 1098 1286 1134 q 1355 1031 1316 1063 l 1343 989 q 1194 1064 1241 1014 q 1147 1149 1147 1115 q 1062 1083 1120 1129 q 932 975 1004 1037 l 897 1013 l 1186 1324 l 1329 1326 z "},"":{"ha":978,"x_min":-231,"x_max":711,"o":"m 303 623 l 321 671 q 373 653 355 656 q 410 650 390 650 q 503 692 467 650 q 538 807 538 734 q 512 895 538 863 q 443 927 486 927 q 380 902 411 927 q 332 831 349 876 q 307 716 318 797 q 278 597 296 635 q 159 494 255 547 q 102 461 121 473 q 21 369 52 427 q -10 245 -10 311 q 52 83 -10 147 q 210 19 115 19 q 366 84 301 19 q 430 241 430 150 q 400 335 430 301 q 323 368 371 368 q 231 332 277 368 q 142 210 185 296 l 94 229 q 240 406 155 349 q 422 463 326 463 q 556 416 505 463 q 608 292 608 368 q 566 161 608 222 q 441 48 524 100 q 278 -24 366 0 q 96 -48 191 -48 q -141 18 -52 -48 q -231 193 -231 83 q -181 334 -231 273 q -16 454 -131 395 q -1 461 -11 457 q 62 528 53 488 q 75 604 66 545 q 96 704 84 663 q 126 781 107 745 q 170 848 145 818 q 310 946 222 909 q 486 984 398 984 q 648 937 586 984 q 711 808 711 889 q 629 656 711 716 q 429 596 547 596 q 375 601 401 596 q 303 623 349 606 m 683 1326 q 647 1235 654 1263 q 640 1179 640 1206 q 655 1098 640 1134 q 709 1031 670 1063 l 697 989 q 548 1064 595 1014 q 501 1149 501 1115 q 416 1083 473 1129 q 286 975 358 1037 l 251 1013 l 540 1324 l 683 1326 z "},"":{"ha":1311,"x_min":-429,"x_max":1468,"o":"m 928 840 q 690 673 820 783 q 459 444 561 563 l 579 444 q 715 644 635 544 q 918 865 794 744 l 928 840 m 1175 996 l 1204 956 q 819 461 954 690 q 684 90 684 231 q 692 45 684 57 q 714 33 700 33 q 867 125 764 33 q 1085 383 971 217 l 1127 355 q 865 57 994 160 q 633 -45 737 -45 q 519 -1 561 -45 q 477 119 477 43 q 501 261 477 182 q 552 392 525 340 l 412 392 q 65 62 211 162 q -215 -39 -81 -39 q -368 9 -308 -39 q -429 134 -429 58 q -396 228 -429 190 q -311 266 -363 266 q -244 239 -271 266 q -218 171 -218 212 q -238 110 -218 134 q -292 85 -258 85 q -298 86 -295 85 q -277 87 -302 87 q -246 56 -276 76 q -163 36 -216 36 q -57 59 -116 36 q 62 124 1 81 q 354 404 155 190 q 406 461 388 442 q 795 815 625 698 q 1175 996 965 932 m 1468 1279 q 1245 1107 1326 1172 q 1088 975 1164 1042 l 1039 987 q 1125 1140 1087 1076 q 1210 1276 1163 1204 l 1468 1279 z "},"":{"ha":978,"x_min":-231,"x_max":758,"o":"m 303 623 l 321 671 q 373 653 355 656 q 410 650 390 650 q 503 692 467 650 q 538 807 538 734 q 512 895 538 863 q 443 927 486 927 q 380 902 411 927 q 332 831 349 876 q 307 716 318 797 q 278 597 296 635 q 159 494 255 547 q 102 461 121 473 q 21 369 52 427 q -10 245 -10 311 q 52 83 -10 147 q 210 19 115 19 q 366 84 301 19 q 430 241 430 150 q 400 335 430 301 q 323 368 371 368 q 231 332 277 368 q 142 210 185 296 l 94 229 q 240 406 155 349 q 422 463 326 463 q 556 416 505 463 q 608 292 608 368 q 566 161 608 222 q 441 48 524 100 q 278 -24 366 0 q 96 -48 191 -48 q -141 18 -52 -48 q -231 193 -231 83 q -181 334 -231 273 q -16 454 -131 395 q -1 461 -11 457 q 62 528 53 488 q 75 604 66 545 q 96 704 84 663 q 126 781 107 745 q 170 848 145 818 q 310 946 222 909 q 486 984 398 984 q 648 937 586 984 q 711 808 711 889 q 629 656 711 716 q 429 596 547 596 q 375 601 401 596 q 303 623 349 606 m 664 1220 q 729 1193 701 1220 q 758 1128 758 1165 q 731 1060 758 1088 q 664 1032 704 1032 q 598 1060 625 1032 q 571 1128 571 1088 q 599 1192 571 1164 q 664 1220 627 1220 m 394 1220 q 460 1193 432 1220 q 488 1128 488 1165 q 461 1060 488 1088 q 394 1032 435 1032 q 329 1060 355 1032 q 302 1128 302 1088 q 330 1192 302 1164 q 394 1220 358 1220 z "},"":{"ha":978,"x_min":-231,"x_max":711,"o":"m 303 623 l 321 671 q 373 653 355 656 q 410 650 390 650 q 503 692 467 650 q 538 807 538 734 q 512 895 538 863 q 443 927 486 927 q 380 902 411 927 q 332 831 349 876 q 307 716 318 797 q 278 597 296 635 q 159 494 255 547 q 102 461 121 473 q 21 369 52 427 q -10 245 -10 311 q 52 83 -10 147 q 210 19 115 19 q 366 84 301 19 q 430 241 430 150 q 400 335 430 301 q 323 368 371 368 q 231 332 277 368 q 142 210 185 296 l 94 229 q 240 406 155 349 q 422 463 326 463 q 556 416 505 463 q 608 292 608 368 q 566 161 608 222 q 441 48 524 100 q 278 -24 366 0 q 96 -48 191 -48 q -141 18 -52 -48 q -231 193 -231 83 q -181 334 -231 273 q -16 454 -131 395 q -1 461 -11 457 q 62 528 53 488 q 75 604 66 545 q 96 704 84 663 q 126 781 107 745 q 170 848 145 818 q 310 946 222 909 q 486 984 398 984 q 648 937 586 984 q 711 808 711 889 q 629 656 711 716 q 429 596 547 596 q 375 601 401 596 q 303 623 349 606 m 382 1295 l 576 1295 q 579 1229 579 1251 q 580 1182 580 1206 q 577 1093 580 1139 q 569 981 575 1046 l 521 975 q 467 1139 496 1070 q 382 1295 437 1207 z "},"":{"ha":1003,"x_min":-326,"x_max":1248,"o":"m 1052 894 q 901 811 974 878 q 751 612 828 745 q 692 508 730 576 q 380 91 512 191 q 193 -7 300 30 q -5 -44 87 -44 q -238 13 -149 -44 q -326 167 -326 70 q -294 254 -326 219 q -212 290 -261 290 q -140 262 -168 290 q -112 191 -112 235 q -130 132 -112 157 q -165 102 -149 106 q -164 110 -163 113 q -164 102 -164 106 q -124 37 -164 64 q -18 9 -85 9 q 99 36 42 9 q 211 117 156 62 q 390 383 283 190 q 476 533 444 483 q 702 788 580 696 q 871 894 825 880 l 991 894 q 356 793 587 894 q 126 530 126 692 q 155 451 126 482 q 231 420 184 420 q 336 465 290 420 q 381 568 381 510 q 374 613 381 591 q 340 669 366 634 l 378 699 q 422 630 411 659 q 433 568 433 601 q 350 402 433 473 q 155 332 268 332 q 2 386 63 332 q -59 522 -59 439 q 188 824 -59 713 q 869 945 435 935 l 966 945 q 1029 947 1013 945 q 1055 950 1045 948 q 1087 959 1065 953 q 1187 977 1157 977 q 1230 966 1212 977 q 1248 933 1248 956 q 1226 895 1248 908 q 1175 882 1204 882 q 1132 885 1161 882 q 1052 894 1103 888 m 1082 1279 q 860 1107 941 1172 q 703 975 779 1042 l 654 987 q 740 1140 702 1076 q 825 1276 778 1204 l 1082 1279 z "},"":{"ha":1003,"x_min":-326,"x_max":1248,"o":"m 1052 894 q 901 811 974 878 q 751 612 828 745 q 692 508 730 576 q 380 91 512 191 q 193 -7 300 30 q -5 -44 87 -44 q -238 13 -149 -44 q -326 167 -326 70 q -294 254 -326 219 q -212 290 -261 290 q -140 262 -168 290 q -112 191 -112 235 q -130 132 -112 157 q -165 102 -149 106 q -164 110 -163 113 q -164 102 -164 106 q -124 37 -164 64 q -18 9 -85 9 q 99 36 42 9 q 211 117 156 62 q 390 383 283 190 q 476 533 444 483 q 702 788 580 696 q 871 894 825 880 l 991 894 q 356 793 587 894 q 126 530 126 692 q 155 451 126 482 q 231 420 184 420 q 336 465 290 420 q 381 568 381 510 q 374 613 381 591 q 340 669 366 634 l 378 699 q 422 630 411 659 q 433 568 433 601 q 350 402 433 473 q 155 332 268 332 q 2 386 63 332 q -59 522 -59 439 q 188 824 -59 713 q 869 945 435 935 l 966 945 q 1029 947 1013 945 q 1055 950 1045 948 q 1087 959 1065 953 q 1187 977 1157 977 q 1230 966 1212 977 q 1248 933 1248 956 q 1226 895 1248 908 q 1175 882 1204 882 q 1132 885 1161 882 q 1052 894 1103 888 m 944 1326 q 908 1235 915 1263 q 901 1179 901 1206 q 916 1098 901 1134 q 970 1031 931 1063 l 958 989 q 809 1064 856 1014 q 762 1149 762 1115 q 677 1083 734 1129 q 547 975 619 1037 l 512 1013 l 801 1324 l 944 1326 z "},"":{"ha":1003,"x_min":-326,"x_max":1248,"o":"m 1052 894 q 901 811 974 878 q 751 612 828 745 q 692 508 730 576 q 380 91 512 191 q 193 -7 300 30 q -5 -44 87 -44 q -238 13 -149 -44 q -326 167 -326 70 q -294 254 -326 219 q -212 290 -261 290 q -140 262 -168 290 q -112 191 -112 235 q -130 132 -112 157 q -165 102 -149 106 q -164 110 -163 113 q -164 102 -164 106 q -124 37 -164 64 q -18 9 -85 9 q 99 36 42 9 q 211 117 156 62 q 390 383 283 190 q 476 533 444 483 q 702 788 580 696 q 871 894 825 880 l 991 894 q 356 793 587 894 q 126 530 126 692 q 155 451 126 482 q 231 420 184 420 q 336 465 290 420 q 381 568 381 510 q 374 613 381 591 q 340 669 366 634 l 378 699 q 422 630 411 659 q 433 568 433 601 q 350 402 433 473 q 155 332 268 332 q 2 386 63 332 q -59 522 -59 439 q 188 824 -59 713 q 869 945 435 935 l 966 945 q 1029 947 1013 945 q 1055 950 1045 948 q 1087 959 1065 953 q 1187 977 1157 977 q 1230 966 1212 977 q 1248 933 1248 956 q 1226 895 1248 908 q 1175 882 1204 882 q 1132 885 1161 882 q 1052 894 1103 888 m 925 1220 q 990 1193 962 1220 q 1019 1128 1019 1165 q 992 1060 1019 1088 q 925 1032 965 1032 q 859 1060 886 1032 q 832 1128 832 1088 q 860 1192 832 1164 q 925 1220 888 1220 m 655 1220 q 721 1193 693 1220 q 749 1128 749 1165 q 723 1060 749 1088 q 655 1032 696 1032 q 590 1060 616 1032 q 563 1128 563 1088 q 591 1192 563 1164 q 655 1220 619 1220 z "},"":{"ha":1003,"x_min":-326,"x_max":1248,"o":"m 1052 894 q 901 811 974 878 q 751 612 828 745 q 692 508 730 576 q 380 91 512 191 q 193 -7 300 30 q -5 -44 87 -44 q -238 13 -149 -44 q -326 167 -326 70 q -294 254 -326 219 q -212 290 -261 290 q -140 262 -168 290 q -112 191 -112 235 q -130 132 -112 157 q -165 102 -149 106 q -164 110 -163 113 q -164 102 -164 106 q -124 37 -164 64 q -18 9 -85 9 q 99 36 42 9 q 211 117 156 62 q 390 383 283 190 q 476 533 444 483 q 702 788 580 696 q 871 894 825 880 l 991 894 q 356 793 587 894 q 126 530 126 692 q 155 451 126 482 q 231 420 184 420 q 336 465 290 420 q 381 568 381 510 q 374 613 381 591 q 340 669 366 634 l 378 699 q 422 630 411 659 q 433 568 433 601 q 350 402 433 473 q 155 332 268 332 q 2 386 63 332 q -59 522 -59 439 q 188 824 -59 713 q 869 945 435 935 l 966 945 q 1029 947 1013 945 q 1055 950 1045 948 q 1087 959 1065 953 q 1187 977 1157 977 q 1230 966 1212 977 q 1248 933 1248 956 q 1226 895 1248 908 q 1175 882 1204 882 q 1132 885 1161 882 q 1052 894 1103 888 m 644 1295 l 838 1295 q 841 1229 840 1251 q 841 1182 841 1206 q 839 1093 841 1139 q 830 981 836 1046 l 782 975 q 728 1139 757 1070 q 644 1295 699 1207 z "},"":{"ha":1132,"x_min":-155,"x_max":987,"o":"m 652 297 q 653 300 638 302 q 689 298 668 298 q 798 320 746 298 q 928 406 850 341 l 948 357 q 815 270 876 294 q 688 245 755 245 q 646 247 667 245 q 615 252 625 250 q 374 39 510 120 q 113 -41 239 -41 q -83 38 -10 -41 q -155 253 -155 118 q -75 532 -155 392 q 148 780 6 671 q 304 873 223 838 q 463 918 385 908 q 537 967 496 949 q 621 985 578 985 q 759 914 705 985 q 812 733 812 842 q 765 510 812 632 q 652 297 719 388 m 537 351 q 606 550 581 448 q 631 742 631 651 q 610 870 631 831 q 553 910 589 910 q 531 904 543 910 q 541 919 520 899 q 583 882 549 919 q 618 785 618 846 q 609 725 618 754 q 576 649 601 695 l 528 664 q 560 737 553 713 q 567 779 567 760 q 547 846 567 824 q 490 869 527 869 l 493 869 q 453 770 469 833 q 437 629 437 707 q 466 449 437 518 q 537 351 494 380 m 410 852 q 345 806 406 852 q 227 688 284 760 q 113 475 157 597 q 69 249 69 353 q 112 95 69 151 q 224 39 155 39 q 378 115 292 39 q 513 298 463 191 q 382 416 434 336 q 331 603 331 497 q 361 753 331 677 q 410 852 391 828 m 987 1279 q 764 1107 845 1172 q 607 975 684 1042 l 558 987 q 644 1140 606 1076 q 729 1276 682 1204 l 987 1279 z "},"":{"ha":1132,"x_min":-155,"x_max":948,"o":"m 652 297 q 653 300 638 302 q 689 298 668 298 q 798 320 746 298 q 928 406 850 341 l 948 357 q 815 270 876 294 q 688 245 755 245 q 646 247 667 245 q 615 252 625 250 q 374 39 510 120 q 113 -41 239 -41 q -83 38 -10 -41 q -155 253 -155 118 q -75 532 -155 392 q 148 780 6 671 q 304 873 223 838 q 463 918 385 908 q 537 967 496 949 q 621 985 578 985 q 759 914 705 985 q 812 733 812 842 q 765 510 812 632 q 652 297 719 388 m 537 351 q 606 550 581 448 q 631 742 631 651 q 610 870 631 831 q 553 910 589 910 q 531 904 543 910 q 541 919 520 899 q 583 882 549 919 q 618 785 618 846 q 609 725 618 754 q 576 649 601 695 l 528 664 q 560 737 553 713 q 567 779 567 760 q 547 846 567 824 q 490 869 527 869 l 493 869 q 453 770 469 833 q 437 629 437 707 q 466 449 437 518 q 537 351 494 380 m 410 852 q 345 806 406 852 q 227 688 284 760 q 113 475 157 597 q 69 249 69 353 q 112 95 69 151 q 224 39 155 39 q 378 115 292 39 q 513 298 463 191 q 382 416 434 336 q 331 603 331 497 q 361 753 331 677 q 410 852 391 828 m 848 1326 q 812 1235 819 1263 q 805 1179 805 1206 q 820 1098 805 1134 q 874 1031 836 1063 l 863 989 q 713 1064 760 1014 q 667 1149 667 1115 q 581 1083 639 1129 q 452 975 524 1037 l 416 1013 l 705 1324 l 848 1326 z "},"":{"ha":1097,"x_min":56,"x_max":1048,"o":"m 550 804 q 546 833 546 827 q 545 850 545 839 q 615 1019 545 942 q 808 1118 684 1096 q 811 1080 811 1089 q 812 1053 812 1071 q 735 879 812 956 q 583 803 659 803 l 578 803 q 571 804 574 803 q 550 804 568 804 m 1048 283 q 895 25 960 94 q 743 -44 829 -44 q 650 -22 705 -44 q 571 1 595 1 q 486 -22 545 1 q 396 -44 428 -44 q 299 -12 347 -44 q 205 83 251 21 q 95 290 134 181 q 56 500 56 398 q 147 756 56 656 q 380 855 237 855 q 490 832 431 855 q 570 809 549 809 q 648 833 589 809 q 755 857 707 857 q 898 828 834 857 q 1029 720 962 799 q 914 616 945 666 q 883 503 883 566 q 920 378 883 432 q 1048 283 958 324 z "},"":{"ha":1132,"x_min":-155,"x_max":948,"o":"m 652 297 q 653 300 638 302 q 689 298 668 298 q 798 320 746 298 q 928 406 850 341 l 948 357 q 815 270 876 294 q 688 245 755 245 q 646 247 667 245 q 615 252 625 250 q 374 39 510 120 q 113 -41 239 -41 q -83 38 -10 -41 q -155 253 -155 118 q -75 532 -155 392 q 148 780 6 671 q 304 873 223 838 q 463 918 385 908 q 537 967 496 949 q 621 985 578 985 q 759 914 705 985 q 812 733 812 842 q 765 510 812 632 q 652 297 719 388 m 537 351 q 606 550 581 448 q 631 742 631 651 q 610 870 631 831 q 553 910 589 910 q 531 904 543 910 q 541 919 520 899 q 583 882 549 919 q 618 785 618 846 q 609 725 618 754 q 576 649 601 695 l 528 664 q 560 737 553 713 q 567 779 567 760 q 547 846 567 824 q 490 869 527 869 l 493 869 q 453 770 469 833 q 437 629 437 707 q 466 449 437 518 q 537 351 494 380 m 410 852 q 345 806 406 852 q 227 688 284 760 q 113 475 157 597 q 69 249 69 353 q 112 95 69 151 q 224 39 155 39 q 378 115 292 39 q 513 298 463 191 q 382 416 434 336 q 331 603 331 497 q 361 753 331 677 q 410 852 391 828 m 548 1295 l 742 1295 q 745 1229 745 1251 q 745 1182 745 1206 q 743 1093 745 1139 q 734 981 741 1046 l 686 975 q 632 1139 661 1070 q 548 1295 603 1207 z "},"":{"ha":1311,"x_min":-122,"x_max":1145,"o":"m 907 936 l 1145 936 q 747 306 852 490 q 643 66 643 121 q 652 36 643 45 q 677 26 661 26 q 853 120 738 26 q 1090 387 968 214 l 1126 351 q 857 57 992 160 q 610 -45 722 -45 q 493 -6 536 -45 q 450 104 450 34 q 461 169 450 134 q 485 229 472 204 l 509 213 q 301 33 411 102 q 98 -36 192 -36 q -1 2 37 -36 q -39 102 -39 39 q 123 445 -39 204 q 175 522 157 495 q 303 736 268 665 q 339 846 339 808 q 318 899 339 880 q 258 918 298 918 q 173 896 218 918 q 85 831 127 873 q 18 731 41 787 q -6 619 -6 675 q 11 551 -6 575 q 54 528 28 528 q 123 558 87 528 q 193 663 158 589 l 237 646 q 137 505 197 551 q 12 459 78 459 q -85 499 -48 459 q -122 604 -122 538 q -78 746 -122 672 q 39 878 -35 819 q 175 954 101 926 q 322 981 250 981 q 471 936 416 981 q 526 810 526 890 q 324 404 526 715 l 306 375 q 184 170 209 224 q 159 82 159 115 q 168 55 159 64 q 192 45 176 45 q 285 85 223 45 q 418 193 347 124 q 774 715 530 304 q 907 936 855 852 m 1076 1279 q 853 1107 934 1172 q 696 975 772 1042 l 647 987 q 733 1140 695 1076 q 818 1276 771 1204 l 1076 1279 z "},"":{"ha":1311,"x_min":-122,"x_max":1145,"o":"m 907 936 l 1145 936 q 747 306 852 490 q 643 66 643 121 q 652 36 643 45 q 677 26 661 26 q 853 120 738 26 q 1090 387 968 214 l 1126 351 q 857 57 992 160 q 610 -45 722 -45 q 493 -6 536 -45 q 450 104 450 34 q 461 169 450 134 q 485 229 472 204 l 509 213 q 301 33 411 102 q 98 -36 192 -36 q -1 2 37 -36 q -39 102 -39 39 q 123 445 -39 204 q 175 522 157 495 q 303 736 268 665 q 339 846 339 808 q 318 899 339 880 q 258 918 298 918 q 173 896 218 918 q 85 831 127 873 q 18 731 41 787 q -6 619 -6 675 q 11 551 -6 575 q 54 528 28 528 q 123 558 87 528 q 193 663 158 589 l 237 646 q 137 505 197 551 q 12 459 78 459 q -85 499 -48 459 q -122 604 -122 538 q -78 746 -122 672 q 39 878 -35 819 q 175 954 101 926 q 322 981 250 981 q 471 936 416 981 q 526 810 526 890 q 324 404 526 715 l 306 375 q 184 170 209 224 q 159 82 159 115 q 168 55 159 64 q 192 45 176 45 q 285 85 223 45 q 418 193 347 124 q 774 715 530 304 q 907 936 855 852 m 937 1326 q 901 1235 908 1263 q 894 1179 894 1206 q 909 1098 894 1134 q 963 1031 924 1063 l 951 989 q 802 1064 849 1014 q 755 1149 755 1115 q 670 1083 728 1129 q 541 975 612 1037 l 505 1013 l 794 1324 l 937 1326 z "},"":{"ha":1311,"x_min":-122,"x_max":1145,"o":"m 907 936 l 1145 936 q 747 306 852 490 q 643 66 643 121 q 652 36 643 45 q 677 26 661 26 q 853 120 738 26 q 1090 387 968 214 l 1126 351 q 857 57 992 160 q 610 -45 722 -45 q 493 -6 536 -45 q 450 104 450 34 q 461 169 450 134 q 485 229 472 204 l 509 213 q 301 33 411 102 q 98 -36 192 -36 q -1 2 37 -36 q -39 102 -39 39 q 123 445 -39 204 q 175 522 157 495 q 303 736 268 665 q 339 846 339 808 q 318 899 339 880 q 258 918 298 918 q 173 896 218 918 q 85 831 127 873 q 18 731 41 787 q -6 619 -6 675 q 11 551 -6 575 q 54 528 28 528 q 123 558 87 528 q 193 663 158 589 l 237 646 q 137 505 197 551 q 12 459 78 459 q -85 499 -48 459 q -122 604 -122 538 q -78 746 -122 672 q 39 878 -35 819 q 175 954 101 926 q 322 981 250 981 q 471 936 416 981 q 526 810 526 890 q 324 404 526 715 l 306 375 q 184 170 209 224 q 159 82 159 115 q 168 55 159 64 q 192 45 176 45 q 285 85 223 45 q 418 193 347 124 q 774 715 530 304 q 907 936 855 852 m 637 1295 l 831 1295 q 834 1229 833 1251 q 834 1182 834 1206 q 832 1093 834 1139 q 823 981 829 1046 l 775 975 q 721 1139 750 1070 q 637 1295 692 1207 z "},"":{"ha":399,"x_min":-345,"x_max":214,"o":"m 67 505 l 46 469 q -170 61 -170 118 q -166 50 -170 54 q -153 45 -161 45 q -26 133 -115 45 q 176 389 62 221 l 214 358 q -25 65 85 163 q -221 -33 -134 -33 q -312 5 -278 -33 q -345 106 -345 43 q -330 191 -345 143 q -286 288 -314 239 l -168 496 l 67 505 z "},"":{"ha":694,"x_min":-78,"x_max":380,"o":"m 354 892 q 318 800 325 829 q 311 745 311 772 q 326 664 311 699 q 380 596 341 628 l 368 555 q 219 630 266 579 q 172 715 172 680 q 87 648 144 694 q -43 540 29 602 l -78 578 l 211 890 l 354 892 z "},"":{"ha":694,"x_min":-65,"x_max":414,"o":"m 414 789 q 341 630 374 667 q 254 593 309 593 q 145 624 215 593 q 47 654 75 654 q 13 641 26 654 q -11 579 -1 628 l -65 589 q -14 741 -45 699 q 74 783 17 783 q 173 755 106 783 q 275 728 241 728 q 317 739 303 728 q 363 806 332 749 l 414 789 z "},"":{"ha":694,"x_min":-41,"x_max":412,"o":"m 28 758 q 138 754 98 755 q 203 753 178 753 q 276 754 233 753 q 412 759 319 755 l 342 624 q 243 626 298 625 q 174 627 189 627 q 46 625 141 627 q -41 623 12 625 l 28 758 z "},"":{"ha":694,"x_min":-45,"x_max":488,"o":"m 3 846 q 73 741 35 768 q 170 713 111 713 q 294 744 230 713 q 428 840 358 774 l 488 840 q 320 642 397 698 q 157 587 243 587 q 23 641 69 587 q -45 835 -23 696 l 3 846 z "},"":{"ha":694,"x_min":104,"x_max":298,"o":"m 200 780 q 269 751 239 780 q 298 684 298 722 q 270 613 298 641 q 200 585 241 585 q 132 614 159 585 q 104 684 104 642 q 133 750 104 721 q 200 780 162 780 z "},"":{"ha":694,"x_min":43,"x_max":376,"o":"m 278 770 q 272 790 278 783 q 257 798 265 798 q 224 786 243 798 q 190 751 206 774 q 155 690 168 722 q 142 636 142 658 q 149 615 142 622 q 164 608 155 608 q 195 620 177 608 q 231 656 213 632 q 266 717 253 686 q 278 770 278 748 m 244 850 q 340 818 305 850 q 376 729 376 785 q 316 608 376 661 q 180 556 256 556 q 82 590 121 556 q 43 677 43 623 q 104 799 43 749 q 244 850 164 850 z "},"":{"ha":694,"x_min":-359,"x_max":-17,"o":"m -136 16 l -73 16 l -124 -63 l -153 -63 l -138 -63 q -50 -95 -83 -63 q -17 -180 -17 -127 q -106 -327 -17 -270 q -359 -394 -195 -384 l -359 -342 q -201 -302 -248 -332 q -154 -232 -154 -273 q -167 -203 -154 -214 q -205 -193 -180 -193 q -215 -194 -210 -193 q -277 -205 -221 -195 l -136 16 z "},"":{"ha":694,"x_min":-3,"x_max":624,"o":"m 624 834 q 401 679 481 739 q 239 549 321 618 l 180 558 q 287 714 245 654 q 372 834 328 773 l 624 834 m 144 834 l 370 834 l 279 753 q 51 549 134 625 l -3 559 q 80 712 50 652 q 144 834 111 771 z "},"":{"ha":694,"x_min":-311,"x_max":5,"o":"m -110 16 l -28 16 q -149 -102 -121 -56 q -176 -186 -176 -149 q -165 -222 -176 -211 q -138 -234 -155 -234 q -92 -219 -117 -234 q -34 -158 -68 -203 l 5 -184 q -91 -293 -39 -258 q -197 -329 -144 -329 q -279 -299 -247 -329 q -311 -221 -311 -269 q -256 -99 -311 -163 q -110 16 -201 -35 z "},"":{"ha":694,"x_min":20,"x_max":486,"o":"m 453 917 l 486 877 l 198 566 l 69 564 q 89 632 86 610 q 92 682 92 653 q 77 779 92 734 q 20 867 61 824 l 49 901 q 166 820 121 868 q 226 733 210 772 q 315 802 258 757 q 453 917 372 848 z "},"":{"ha":900,"x_min":-532,"x_max":991,"o":"m 421 586 q 423 588 408 589 q 471 587 439 587 q 713 668 615 587 q 812 860 812 749 q 794 918 812 898 q 747 938 777 938 q 591 838 684 938 q 421 586 498 738 m 398 538 q 373 488 391 522 q 353 450 356 454 l 589 484 l 589 427 l 320 387 q 133 164 247 256 q -121 27 19 72 l -131 56 q -127 57 -143 56 q -97 58 -111 58 q 136 24 55 58 q 230 -53 218 -10 q 578 290 302 29 q 687 393 639 347 l 719 352 q 544 185 650 284 q 244 -119 315 -31 q 185 -231 242 -177 q 69 -284 127 -284 q 31 -273 47 -284 q 14 -241 14 -262 q 23 -216 14 -227 q 44 -197 31 -205 q 44 -191 44 -199 q 45 -168 45 -183 q -10 -43 45 -92 q -153 6 -65 6 q -268 -15 -174 6 q -433 -36 -362 -36 q -504 -23 -477 -36 q -532 22 -532 -9 q -501 65 -532 53 q -424 77 -471 77 q -321 73 -383 77 q -180 60 -259 69 q -39 163 -109 81 q 86 361 32 245 l -133 331 l -133 389 l 117 422 q 156 502 121 431 l 189 568 q 59 642 118 583 q 1 781 1 701 q 51 899 1 851 q 175 947 101 947 q 216 943 197 947 q 275 924 235 939 l 254 878 q 201 894 214 891 q 176 897 188 897 q 88 864 122 897 q 54 781 54 831 q 100 676 54 723 q 212 616 146 630 q 449 886 294 781 q 775 991 604 991 q 932 948 873 991 q 991 827 991 904 q 943 703 991 760 q 808 606 895 646 q 647 553 736 572 q 468 535 557 535 q 426 536 446 535 q 398 538 406 537 z "},"":{"ha":399,"x_min":-354,"x_max":327,"o":"m 327 960 l 111 591 l 254 638 l 245 573 l 66 515 l -136 161 q -161 106 -151 134 q -170 61 -170 77 q -166 50 -170 54 q -153 45 -161 45 q -26 134 -115 45 q 176 389 63 222 l 214 358 q -25 65 85 163 q -221 -33 -134 -33 q -312 5 -278 -33 q -345 106 -345 43 q -330 190 -345 142 q -286 288 -315 237 l -197 444 l -354 393 l -345 457 l -157 517 l 85 947 l 327 960 z "},"":{"ha":978,"x_min":-275,"x_max":1063,"o":"m 681 675 q 764 752 749 723 q 779 817 779 781 q 754 895 779 865 q 696 926 730 926 q 643 905 669 926 q 599 844 617 884 q 557 542 566 773 q 557 511 557 522 q 521 257 552 354 q 424 93 490 159 q 267 -8 362 29 q 71 -45 171 -45 q -176 28 -77 -45 q -275 218 -275 102 q -237 340 -275 292 q -136 389 -199 389 q -65 359 -93 389 q -37 286 -37 330 q -61 213 -37 241 q -114 183 -85 184 q -116 171 -114 182 q -119 150 -119 160 q -70 51 -119 91 q 58 11 -21 11 q 188 46 130 11 q 281 144 246 81 q 344 482 329 233 q 347 524 345 509 q 379 736 354 665 q 456 863 404 807 q 582 950 509 921 q 745 980 655 980 q 907 936 845 980 q 969 815 969 891 q 918 705 969 749 q 793 661 867 661 q 759 662 775 661 q 681 675 743 663 m 1031 1352 l 1063 1312 l 776 1000 l 647 998 q 667 1066 664 1045 q 670 1117 670 1088 q 654 1214 670 1168 q 598 1302 639 1259 l 627 1336 q 744 1255 699 1303 q 804 1168 788 1207 q 893 1237 836 1192 q 1031 1352 950 1282 z "},"":{"ha":566,"x_min":-415,"x_max":422,"o":"m -9 307 q 23 367 19 352 q 27 401 27 382 q 15 450 27 433 q -16 467 2 467 q -47 451 -35 467 q -60 408 -60 435 q -5 302 -60 370 q 7 286 2 292 q 51 214 37 247 q 65 149 65 182 q 37 59 65 100 q -20 8 9 19 l -31 35 q 146 144 45 55 q 340 383 248 234 l 384 361 q 117 55 260 155 q -187 -45 -27 -45 q -353 -1 -291 -45 q -415 123 -415 44 q -378 214 -415 174 q -294 254 -341 254 q -229 229 -255 254 q -202 165 -202 203 q -224 108 -202 132 q -278 84 -246 84 q -309 92 -289 84 q -293 84 -311 93 q -291 87 -289 96 q -292 71 -292 78 q -273 28 -292 45 q -224 11 -254 11 q -157 39 -184 11 q -129 110 -129 67 q -174 203 -129 141 q -186 218 -182 213 q -228 287 -217 260 q -239 343 -239 314 q -168 472 -239 420 q 1 524 -96 524 q 138 491 84 524 q 191 399 191 457 q 156 326 191 356 q 72 296 121 296 q 24 307 55 296 q -9 307 24 307 m 389 917 l 422 877 l 134 566 l 5 564 q 25 632 22 610 q 28 682 28 653 q 13 779 28 734 q -43 867 -3 824 l -15 901 q 102 820 58 868 q 162 733 146 772 q 251 802 194 757 q 389 917 309 848 z "},"":{"ha":1003,"x_min":-329,"x_max":1076,"o":"m -90 129 l -104 153 q -22 189 -73 174 q 85 205 28 205 q 301 161 163 205 q 302 161 302 161 q 407 130 375 137 q 465 123 439 123 q 618 184 541 123 q 779 385 694 245 l 826 364 q 566 59 696 159 q 311 -41 436 -41 q 222 -28 267 -41 q 125 13 178 -16 q 97 28 115 18 q -71 87 -12 87 q -142 72 -107 87 q -192 38 -177 57 q -251 -31 -232 -14 q -289 -48 -270 -48 q -318 -38 -307 -48 q -329 -9 -329 -27 q -256 71 -329 20 q -142 159 -190 119 q 87 354 -64 224 q 305 537 238 484 q 522 697 379 595 q 709 833 664 799 l 726 811 q 595 747 670 772 q 447 722 520 722 q 371 728 411 722 q 287 745 330 734 q 226 764 265 752 q 97 795 131 795 q 2 755 41 795 q -38 664 -38 716 q -6 591 -38 620 q 75 562 26 562 q 153 583 114 562 q 231 656 192 604 l 271 632 q 173 529 228 562 q 62 496 118 496 q -47 540 -5 496 q -90 652 -90 584 q -62 772 -90 715 q 16 873 -35 829 q 124 936 65 913 q 245 958 184 958 q 448 908 319 958 q 481 895 470 899 q 567 868 533 876 q 633 861 600 861 q 718 872 675 861 q 785 900 760 884 q 836 961 809 937 q 889 984 863 984 q 917 971 907 984 q 927 940 927 958 q 909 905 927 920 q 845 861 891 889 q 676 734 770 819 q 653 713 659 719 q 624 687 644 705 q -90 129 289 389 m 1043 1352 l 1076 1312 l 788 1000 l 659 998 q 679 1066 676 1045 q 682 1117 682 1088 q 667 1214 682 1168 q 610 1302 651 1259 l 639 1336 q 756 1255 711 1303 q 816 1168 800 1207 q 905 1237 848 1192 q 1043 1352 962 1282 z "},"":{"ha":625,"x_min":-409,"x_max":451,"o":"m -138 138 l -150 162 q -141 163 -159 162 q -107 163 -123 163 q -3 143 -70 163 q 94 122 63 122 q 222 171 160 122 q 399 385 284 220 l 444 363 q 190 66 313 169 q -32 -37 66 -37 q -91 -28 -61 -37 q -154 0 -120 -19 q -182 16 -163 5 q -254 46 -235 46 q -277 39 -266 46 q -302 14 -288 33 q -307 7 -304 12 q -370 -36 -338 -36 q -398 -25 -387 -36 q -409 3 -409 -14 q -340 70 -409 31 q -230 140 -272 109 q -193 172 -220 147 q 87 359 -49 297 l 98 330 q 63 323 90 328 q 5 319 35 319 q -89 331 -37 319 q -154 344 -140 344 q -186 338 -172 344 q -225 307 -199 332 l -259 340 q -146 475 -195 439 q -35 511 -97 511 q 91 483 19 511 q 183 455 163 455 q 199 457 189 455 q 216 461 210 459 q 246 510 227 489 q 289 532 264 532 q 315 521 304 532 q 326 494 326 510 q 248 411 326 469 q 149 335 191 370 l 149 335 q -138 138 -25 197 m 418 917 l 451 877 l 163 566 l 35 564 q 55 632 52 610 q 58 682 58 653 q 42 779 58 734 q -14 867 26 824 l 14 901 q 131 820 87 868 q 191 733 176 772 q 280 802 223 757 q 418 917 338 848 z "},"":{"ha":694,"x_min":267,"x_max":429,"o":"m 429 297 l 429 -258 l 267 -258 l 267 297 l 429 297 m 429 991 l 429 437 l 267 437 l 267 991 l 429 991 z "},"":{"ha":1389,"x_min":-141,"x_max":1255,"o":"m 549 500 q 702 737 619 637 q 850 879 784 838 q 762 914 827 896 q 625 932 697 932 q 436 891 529 932 q 273 777 343 850 q 174 628 209 711 q 138 465 138 546 q 170 353 138 392 q 254 313 201 313 q 354 354 307 313 q 422 442 401 394 l 214 442 l 214 500 l 440 500 q 450 543 446 522 q 453 581 453 564 q 443 659 453 616 q 402 773 432 702 l 449 789 q 491 670 479 718 q 503 579 503 623 q 499 532 503 557 q 494 500 496 507 l 549 500 m 477 442 q 363 292 442 354 q 195 230 285 230 q 20 301 91 230 q -51 475 -51 372 q -1 669 -51 574 q 136 833 48 764 q 346 946 225 907 q 597 985 467 985 q 771 965 691 985 q 907 911 850 945 q 1053 977 968 951 q 1245 1008 1137 1004 l 1255 960 q 1084 921 1147 950 q 987 856 1021 892 q 1107 698 1059 795 q 1155 498 1155 601 q 1084 254 1155 370 q 890 67 1013 138 q 683 -7 805 18 q 408 -33 560 -33 q 243 -23 353 -33 q 168 -16 191 -18 q 82 -30 120 -26 q 11 -34 43 -34 q -99 -18 -56 -34 q -141 35 -141 -3 q -120 71 -141 60 q -68 83 -98 83 q 32 73 -33 83 q 189 43 97 63 q 354 163 269 60 q 521 442 439 267 l 477 442 m 933 790 q 821 585 914 767 q 778 500 784 511 l 858 500 l 858 442 l 749 442 q 534 162 668 275 q 296 20 401 49 q 306 24 260 28 q 400 19 351 19 q 607 56 514 19 q 774 170 699 94 q 913 386 863 259 q 964 644 964 513 q 953 738 964 697 q 933 790 942 779 z "},"":{"ha":772,"x_min":-371,"x_max":602,"o":"m 165 523 l 165 484 q 151 636 165 568 q 117 741 137 703 l -115 618 l -138 672 l 86 787 q -5 859 55 829 q -144 889 -66 889 q -241 878 -197 889 q -343 832 -286 866 l -371 878 q -214 952 -283 932 q -69 973 -145 973 q 127 946 43 973 q 253 873 212 918 l 448 975 l 472 924 l 292 829 q 350 711 326 787 q 374 539 374 635 q 318 278 374 399 q 222 119 262 156 q 340 193 243 125 q 560 391 437 260 l 602 363 q 365 149 474 221 q 127 36 256 76 q 22 -21 79 -1 q -100 -40 -35 -40 q -262 15 -201 -40 q -323 161 -323 69 q -291 291 -323 227 q -199 408 -259 354 q -65 491 -140 461 q 85 520 9 520 q 154 508 123 520 q 165 523 184 496 m -102 14 q -42 41 -76 14 q 31 123 -8 68 q 112 275 81 194 q 144 410 144 357 q 135 452 144 439 q 111 465 125 465 q 57 440 90 465 q -13 370 24 416 q -103 213 -69 298 q -138 74 -138 129 q -128 28 -138 42 q -102 14 -118 14 z "},"":{"ha":1181,"x_min":-433,"x_max":1171,"o":"m 892 936 l 1136 936 q 746 327 954 669 q 468 -105 538 -16 q 192 -349 342 -267 q -131 -431 41 -431 q -350 -374 -267 -431 q -433 -216 -433 -317 q -367 -80 -433 -130 q -193 -30 -300 -30 q -127 -37 -160 -30 q -37 -64 -94 -43 l -52 -109 q -106 -96 -93 -98 q -129 -94 -120 -94 q -204 -133 -173 -94 q -235 -235 -235 -172 q -198 -339 -235 -300 q -98 -378 -160 -378 q 30 -336 -38 -378 q 162 -215 98 -294 q 453 208 237 -123 l 477 244 l 502 225 q 297 38 412 113 q 85 -36 181 -36 q -15 2 22 -36 q -52 104 -52 40 q 104 436 -52 193 l 121 461 q 161 522 134 482 q 326 856 326 774 q 304 901 326 882 q 252 920 283 920 q 164 898 209 920 q 79 837 119 877 q 9 732 35 792 q -17 616 -17 671 q 0 550 -17 573 q 43 528 16 528 q 107 557 73 528 q 173 654 140 587 l 227 654 q 124 504 184 553 q 3 456 64 456 q -96 496 -59 456 q -133 603 -133 537 q -97 737 -133 671 q 5 859 -61 803 q 153 950 76 919 q 309 981 229 981 q 455 934 399 981 q 512 807 512 886 q 323 424 512 712 q 283 363 297 384 q 174 176 203 237 q 144 83 144 115 q 154 58 144 68 q 182 48 164 48 q 276 89 214 48 q 408 197 339 129 q 592 440 478 268 q 892 936 705 613 m 1171 1279 q 949 1107 1029 1172 q 791 975 868 1042 l 743 987 q 829 1140 791 1076 q 913 1276 867 1204 l 1171 1279 z "},"":{"ha":743,"x_min":-818,"x_max":560,"o":"m 420 505 l 163 64 q 309 163 210 81 q 515 382 408 245 l 560 360 q 337 119 446 208 q 123 -8 229 30 q -156 -331 10 -219 q -532 -443 -323 -443 q -739 -387 -661 -443 q -818 -236 -818 -332 q -746 -100 -818 -150 q -558 -50 -674 -50 q -513 -53 -535 -50 q -446 -63 -490 -55 l -456 -111 q -488 -108 -481 -109 q -507 -108 -496 -108 q -592 -142 -561 -108 q -623 -239 -623 -177 q -585 -345 -623 -303 q -490 -387 -547 -387 q -371 -347 -433 -387 q -242 -223 -309 -307 q -116 -38 -212 -185 q 22 171 -20 109 l 45 155 q -92 18 -18 73 q -233 -36 -167 -36 q -325 0 -291 -36 q -358 96 -358 36 q -342 177 -358 134 q -281 296 -326 220 l -166 496 l 71 505 l -120 193 q -162 114 -146 151 q -177 62 -177 77 q -174 51 -177 55 q -167 47 -170 47 q -49 124 -123 47 q 98 334 26 202 l 185 496 l 420 505 m 517 844 q 295 672 376 737 q 138 540 214 607 l 89 553 q 175 705 137 641 q 260 841 213 769 l 517 844 z "},"":{"ha":1311,"x_min":-205,"x_max":1154,"o":"m 600 346 q 629 294 606 314 q 690 275 653 275 q 763 297 726 275 q 831 359 800 319 q 880 456 862 401 q 898 562 898 510 q 872 663 898 623 q 814 710 846 702 q 704 539 760 634 q 600 346 648 445 m 1146 1012 l 1154 965 q 979 899 1048 949 q 850 764 911 850 q 1013 676 941 748 q 1086 503 1086 605 q 1055 380 1086 440 q 970 276 1025 321 q 866 218 923 237 q 747 198 808 198 q 613 230 667 198 q 557 271 559 262 q 351 68 494 158 q 45 -22 208 -22 q -138 22 -71 -22 q -205 149 -205 66 q -174 241 -205 205 q -92 276 -144 276 q -21 248 -49 276 q 7 176 7 219 q -10 115 7 142 q -37 83 -26 88 q -1 51 -30 68 q 65 34 28 34 q 185 95 119 34 q 330 283 251 155 q 393 391 351 317 q 631 749 539 644 q 655 745 664 745 q 576 748 599 748 q 397 726 482 748 q 231 659 312 704 q 106 555 151 614 q 62 440 62 496 q 94 365 62 395 q 178 336 127 336 q 316 408 256 336 q 389 619 376 480 l 439 612 q 336 352 428 444 q 107 259 243 259 q -53 312 9 259 q -115 450 -115 364 q -59 595 -115 526 q 94 713 -4 663 q 297 781 181 758 q 545 804 413 804 q 608 802 574 804 q 675 798 642 800 q 878 943 758 886 q 1146 1012 998 1000 z "},"":{"ha":746,"x_min":-724,"x_max":566,"o":"m 102 945 l 339 960 l 1 415 q -60 325 -7 401 q -106 260 -96 275 l -130 275 q 27 453 -52 388 q 183 519 106 519 q 290 472 250 519 q 330 349 330 425 q 308 242 330 294 q 277 182 286 191 q 372 240 296 187 q 526 392 448 293 l 566 358 q 392 191 480 250 q 210 110 304 132 q 55 11 134 45 q -100 -24 -24 -24 q -164 -7 -138 -24 q -190 41 -190 9 q -146 107 -190 87 q 37 146 -102 128 q 99 263 77 207 q 121 367 121 320 q 112 404 121 391 q 86 416 102 416 q -18 339 50 416 q -168 122 -86 263 l -497 -439 l -724 -444 l 102 945 m -4 92 q -57 71 -23 91 q -91 29 -91 52 q -89 25 -91 27 q -86 23 -87 23 q -46 50 -75 23 q -4 92 -16 76 z "},"":{"ha":1157,"x_min":152,"x_max":1005,"o":"m 1005 492 l 1005 336 l 152 336 l 152 492 l 1005 492 z "},"":{"ha":1157,"x_min":166,"x_max":1005,"o":"m 585 523 l 897 834 l 1005 726 l 694 414 l 1005 103 l 897 -7 l 585 307 l 273 -7 l 166 103 l 477 414 l 166 726 l 273 835 l 585 523 z "},"":{"ha":526,"x_min":-120,"x_max":344,"o":"m 313 754 l 344 724 l 62 277 l -120 264 l 78 572 q 40 560 89 577 q -75 528 -9 543 l -92 578 q 134 651 41 610 q 313 754 227 691 z "},"":{"ha":526,"x_min":-251,"x_max":329,"o":"m -60 372 l -77 399 q -63 401 -77 399 q -35 404 -48 404 q 63 391 5 404 q 142 378 121 378 q 210 399 183 378 q 260 484 236 420 l 311 476 q 202 315 265 366 q 64 264 139 264 q -72 297 24 264 q -73 298 -65 337 q -116 312 -98 307 q -147 316 -134 316 q -162 313 -152 316 q -157 316 -164 312 q -179 273 -167 286 q -214 260 -191 260 q -239 267 -228 260 q -251 290 -251 274 q -192 351 -251 313 q -41 433 -133 389 q 19 462 -20 444 q 96 500 78 488 q 152 554 134 526 q 170 612 170 582 q 149 666 170 644 q 94 688 127 688 q 47 670 66 688 q 27 629 27 652 q 39 601 27 612 q 68 589 51 589 q 80 592 75 589 q 92 619 85 595 l 130 611 q 94 519 127 549 q 17 490 62 490 q -55 516 -26 490 q -84 583 -84 543 q -64 644 -84 614 q -7 699 -44 673 q 68 734 29 723 q 149 745 106 745 q 278 708 227 745 q 329 610 329 671 q 277 505 329 547 q 117 431 225 463 q 96 426 111 430 q -60 372 -19 396 z "},"":{"ha":526,"x_min":-223,"x_max":359,"o":"m 136 499 l 146 530 q 230 502 189 529 q 272 424 272 475 q 191 307 272 353 q -5 260 111 260 q -161 297 -100 260 q -223 396 -223 334 q -190 471 -223 439 q -110 503 -156 503 q -40 482 -71 503 q 8 402 -9 461 l -40 396 q -45 414 -43 413 q -53 414 -46 414 q -81 402 -69 414 q -92 371 -92 390 q -71 328 -92 346 q -16 309 -49 309 q 73 346 35 309 q 112 428 112 382 q 95 472 112 457 q 40 487 77 487 q 11 486 24 487 q -50 473 -2 484 l -31 534 l 7 534 q 164 561 115 534 q 213 637 213 588 q 198 679 213 663 q 160 694 183 694 q 125 682 138 694 q 112 650 112 669 q 118 631 112 638 q 134 625 124 625 q 140 626 138 625 q 145 654 142 628 l 189 644 q 157 560 189 588 q 85 532 126 532 q 21 556 47 532 q -5 616 -5 581 q 57 709 -5 672 q 201 747 119 747 q 315 718 270 747 q 359 637 359 688 q 297 542 359 576 q 136 499 235 508 z "},"":{"ha":1068,"x_min":-263,"x_max":779,"o":"m 737 558 l 299 188 l 450 190 l 602 452 l 779 471 l 614 194 l 711 197 l 675 136 l 582 139 l 499 -16 l 317 -31 l 417 136 q 335 133 396 136 q 147 117 273 130 l 577 549 l 737 558 m 193 846 l 224 816 l -52 336 l -231 319 l -37 650 q -68 639 -20 659 q -189 602 -117 620 l -202 658 q 15 733 -75 690 q 193 846 106 777 m -263 -58 q 132 406 -43 197 q 476 823 307 614 l 646 839 q 253 379 429 589 q -97 -43 77 170 l -263 -58 z "},"":{"ha":1068,"x_min":-263,"x_max":734,"o":"m -263 -58 q 132 406 -43 197 q 476 823 307 614 l 646 839 q 253 379 429 589 q -97 -43 77 170 l -263 -58 m 193 846 l 224 816 l -52 336 l -231 319 l -37 650 q -68 639 -20 659 q -189 602 -117 620 l -202 658 q 15 733 -75 690 q 193 846 106 777 m 351 84 l 333 111 q 346 113 332 111 q 375 116 359 116 q 472 102 416 116 q 546 88 528 88 q 611 112 585 88 q 659 203 637 135 l 712 196 q 610 25 673 81 q 472 -31 547 -31 q 360 -3 429 -31 q 267 24 291 24 q 261 24 264 24 q 258 23 258 23 q 236 -21 250 -7 q 196 -34 222 -34 q 174 -28 185 -34 q 163 -7 163 -23 q 209 53 163 20 q 343 134 255 86 q 391 160 360 143 q 576 339 576 257 q 554 398 576 374 q 501 422 532 422 q 456 405 474 422 q 438 361 438 387 q 449 328 438 340 q 476 316 460 316 q 487 319 483 316 q 495 345 492 323 l 540 345 l 540 314 q 505 245 540 277 q 427 213 471 213 q 355 240 384 213 q 327 311 327 268 q 397 433 327 380 q 561 486 467 486 q 685 445 635 486 q 734 340 734 404 q 684 231 734 275 q 525 149 634 186 q 484 135 511 144 q 351 84 378 101 z "},"":{"ha":1264,"x_min":-224,"x_max":975,"o":"m 128 577 l 141 608 q 221 577 181 607 q 262 494 262 548 q 182 370 262 419 q -11 320 103 320 q -165 359 -105 320 q -224 465 -224 399 q -192 545 -224 512 q -113 578 -159 578 q -43 558 -71 578 q 3 479 -15 537 l -39 463 q -51 482 -48 481 q -62 484 -54 484 q -84 472 -74 484 q -95 441 -95 460 q -73 393 -95 414 q -20 373 -52 373 q 66 413 28 373 q 104 501 104 453 q 87 546 104 530 q 35 562 70 562 q 6 560 20 562 q -51 551 -7 559 l -35 613 l 16 613 q 157 643 110 613 q 203 724 203 672 q 188 769 203 752 q 151 787 173 787 q 118 773 132 787 q 105 739 105 760 q 112 718 105 725 q 126 711 118 711 q 133 713 130 711 q 138 737 136 715 l 184 737 q 153 645 183 674 q 81 616 122 616 q 16 640 42 616 q -9 703 -9 665 q 52 803 -9 762 q 193 844 113 844 q 304 812 260 844 q 348 726 348 780 q 289 625 348 661 q 128 577 229 589 m -68 -58 q 341 420 168 214 q 673 823 514 627 l 843 839 q 454 385 630 594 q 99 -43 278 176 l -68 -58 m 935 558 l 496 188 l 648 190 l 799 452 l 975 471 l 811 194 l 909 197 l 873 136 l 779 139 l 695 -16 l 515 -31 l 614 136 q 532 133 593 136 q 345 117 471 130 l 774 549 l 935 558 z "},"":{"ha":1878,"x_min":-194,"x_max":1695,"o":"m 1059 793 q 892 693 975 777 q 748 487 810 609 q 783 496 756 488 q 822 515 810 505 q 865 565 838 549 q 942 580 892 580 q 988 578 957 580 q 1090 573 1019 576 q 873 380 944 460 q 748 201 802 300 l 697 201 q 739 335 717 276 q 779 434 760 394 l 720 429 q 448 82 611 203 q 77 -39 284 -39 q -120 11 -45 -39 q -194 146 -194 60 q -163 235 -194 199 q -81 271 -132 271 q -7 242 -37 271 q 22 170 22 214 q -2 104 22 132 q -37 77 -26 77 q -3 39 -35 61 q 81 16 28 16 q 276 107 186 16 q 479 419 367 198 q 472 418 490 420 q 414 414 454 416 l 427 471 l 446 471 q 510 475 494 473 q 714 705 591 619 q 993 828 837 791 l 1015 798 q 869 805 938 803 q 739 808 800 808 q 346 786 500 808 q 96 718 192 764 q -22 628 21 681 q -64 526 -64 576 q -12 434 -64 473 q 122 395 40 395 q 259 422 190 395 q 372 492 329 450 q 414 551 399 521 q 429 612 429 582 q 423 651 429 631 q 400 713 418 671 l 443 735 q 474 663 467 691 q 481 603 481 634 q 464 507 481 554 q 414 420 446 459 q 286 323 361 357 q 127 288 212 288 q -52 352 14 288 q -119 524 -119 415 q -68 677 -119 604 q 74 810 -18 751 q 408 937 206 895 q 876 979 610 979 q 1033 975 940 979 q 1156 972 1126 972 l 1213 972 q 1341 952 1297 972 q 1384 885 1384 932 q 1332 811 1384 833 q 1182 789 1280 789 q 1131 790 1162 789 q 1059 793 1099 791 m 1606 533 q 1499 405 1520 443 q 1479 334 1479 367 q 1490 296 1479 309 q 1518 283 1501 283 q 1576 306 1541 283 q 1660 389 1610 329 l 1695 355 q 1573 241 1638 277 q 1435 206 1508 206 q 1317 244 1363 206 q 1272 345 1272 282 q 1276 379 1272 362 q 1263 355 1280 396 q 1152 231 1231 333 q 1013 -12 1072 128 l 779 -22 l 1065 496 l 1299 504 l 1198 345 q 1101 198 1183 321 l 1090 182 l 1064 199 q 1181 345 1116 276 q 1304 448 1246 414 q 1349 494 1326 479 q 1402 512 1371 509 l 1606 533 z "},"":{"ha":1003,"x_min":-252,"x_max":1078,"o":"m 398 787 q 474 734 426 756 q 582 712 523 712 q 737 759 675 712 q 799 865 799 806 q 777 917 799 899 q 710 935 754 935 q 550 892 638 935 q 398 787 463 849 m 421 1097 l 441 1051 q 354 996 378 1028 q 330 922 330 964 q 333 892 330 907 q 332 885 335 877 q 528 960 424 932 q 734 988 633 988 q 897 953 837 988 q 956 848 956 918 q 866 703 956 762 q 644 645 776 645 q 476 674 549 645 q 360 750 404 703 q 259 605 300 691 q 218 437 218 519 q 241 349 218 380 q 300 317 264 317 q 358 331 327 317 q 414 365 390 344 q 444 419 433 382 q 448 432 446 427 q 477 492 461 470 q 515 524 492 513 q 594 550 549 540 q 676 559 640 559 q 708 550 694 559 q 723 521 723 540 q 706 481 723 508 q 692 459 698 468 q 659 390 683 442 q 616 305 635 337 q 378 54 522 142 q 64 -34 235 -34 q -164 29 -76 -34 q -252 193 -252 92 q -215 300 -252 256 q -121 345 -177 345 q -48 318 -77 345 q -20 245 -20 290 q -45 174 -20 204 q -98 142 -71 144 q -100 135 -98 142 q -102 123 -102 128 q -59 50 -102 81 q 52 18 -16 18 q 256 105 159 18 q 387 274 353 192 q 326 252 393 280 q 195 224 259 224 q 47 283 104 224 q -9 436 -9 342 q 72 667 -9 554 q 286 859 154 781 q 282 881 286 863 q 278 918 278 900 q 311 1026 278 981 q 421 1097 344 1072 m 593 1280 q 663 1175 625 1202 q 760 1148 701 1148 q 884 1179 820 1148 q 1018 1274 948 1209 l 1078 1274 q 910 1077 987 1133 q 747 1021 833 1021 q 613 1076 659 1021 q 545 1270 567 1131 l 593 1280 z "},"":{"ha":762,"x_min":-795,"x_max":583,"o":"m 191 463 l 206 496 l 441 505 l 186 64 q 331 163 233 81 q 537 382 430 245 l 583 360 q 359 120 469 209 q 143 -8 250 31 q -135 -331 31 -219 q -510 -443 -301 -443 q -717 -387 -638 -443 q -795 -236 -795 -332 q -724 -100 -795 -150 q -536 -50 -652 -50 q -490 -53 -513 -50 q -426 -63 -468 -55 l -433 -111 q -466 -108 -458 -109 q -485 -108 -473 -108 q -571 -143 -539 -108 q -602 -239 -602 -178 q -564 -345 -602 -303 q -469 -387 -526 -387 q -351 -347 -412 -387 q -222 -224 -290 -308 q -136 -99 -218 -218 q 18 111 -54 20 l 41 97 q -74 3 -8 40 q -207 -34 -140 -34 q -310 11 -271 -34 q -348 126 -348 55 q -314 263 -348 194 q -220 391 -281 332 q -82 485 -156 452 q 69 517 -7 517 q 155 493 121 517 q 191 463 188 469 m 128 412 q 119 452 128 440 q 94 465 110 465 q 47 447 74 465 q -12 395 20 430 q -108 248 -73 326 q -144 110 -144 170 q -134 69 -144 83 q -110 55 -123 55 q -46 84 -84 55 q 31 167 -7 113 q 101 298 75 228 q 128 412 128 368 m 37 846 q 107 741 69 768 q 204 713 145 713 q 329 744 264 713 q 463 840 393 774 l 522 840 q 355 642 431 698 q 191 587 278 587 q 58 641 104 587 q -11 835 12 696 l 37 846 z "},"":{"ha":1003,"x_min":-326,"x_max":1248,"o":"m 1052 894 q 901 811 974 878 q 751 612 828 745 q 692 508 730 576 q 380 91 512 191 q 193 -7 300 30 q -5 -44 87 -44 q -238 13 -149 -44 q -326 167 -326 70 q -294 254 -326 219 q -212 290 -261 290 q -140 262 -168 290 q -112 191 -112 235 q -130 132 -112 157 q -165 102 -149 106 q -164 110 -163 113 q -164 102 -164 106 q -124 37 -164 64 q -18 9 -85 9 q 99 36 42 9 q 211 117 156 62 q 390 383 283 190 q 476 533 444 483 q 702 788 580 696 q 871 894 825 880 l 991 894 q 356 793 587 894 q 126 530 126 692 q 155 451 126 482 q 231 420 184 420 q 336 465 290 420 q 381 568 381 510 q 374 613 381 591 q 340 669 366 634 l 378 699 q 422 630 411 659 q 433 568 433 601 q 350 402 433 473 q 155 332 268 332 q 2 386 63 332 q -59 522 -59 439 q 188 824 -59 713 q 869 945 435 935 l 966 945 q 1029 947 1013 945 q 1055 950 1045 948 q 1087 959 1065 953 q 1187 977 1157 977 q 1230 966 1212 977 q 1248 933 1248 956 q 1226 895 1248 908 q 1175 882 1204 882 q 1132 885 1161 882 q 1052 894 1103 888 m 790 1215 q 859 1186 829 1215 q 888 1118 888 1157 q 860 1048 888 1076 q 790 1020 831 1020 q 722 1048 749 1020 q 694 1118 694 1077 q 723 1185 694 1156 q 790 1215 752 1215 z "},"":{"ha":978,"x_min":-275,"x_max":969,"o":"m 681 675 q 764 752 749 723 q 779 817 779 781 q 754 895 779 865 q 696 926 730 926 q 643 905 669 926 q 599 844 617 884 q 557 542 566 773 q 557 511 557 522 q 521 257 552 354 q 424 93 490 159 q 267 -8 362 29 q 71 -45 171 -45 q -176 28 -77 -45 q -275 218 -275 102 q -237 340 -275 292 q -136 389 -199 389 q -65 359 -93 389 q -37 286 -37 330 q -61 213 -37 241 q -114 183 -85 184 q -116 171 -114 182 q -119 150 -119 160 q -70 51 -119 91 q 58 11 -21 11 q 188 46 130 11 q 281 144 246 81 q 344 482 329 233 q 347 524 345 509 q 379 736 354 665 q 456 863 404 807 q 582 950 509 921 q 745 980 655 980 q 907 936 845 980 q 969 815 969 891 q 918 705 969 749 q 793 661 867 661 q 759 662 775 661 q 681 675 743 663 m 6 16 l 69 16 l 18 -63 l -11 -63 l 4 -63 q 92 -95 58 -63 q 125 -180 125 -127 q 36 -327 125 -270 q -218 -394 -53 -384 l -218 -342 q -59 -302 -106 -332 q -12 -232 -12 -273 q -25 -203 -12 -214 q -64 -193 -38 -193 q -74 -194 -68 -193 q -136 -205 -79 -195 l 6 16 z "},"":{"ha":566,"x_min":-423,"x_max":384,"o":"m -9 307 q 23 367 19 352 q 27 401 27 382 q 15 450 27 433 q -16 467 2 467 q -47 451 -35 467 q -60 408 -60 435 q -5 302 -60 370 q 7 286 2 292 q 51 214 37 247 q 65 149 65 182 q 37 59 65 100 q -20 8 9 19 l -31 35 q 146 144 45 55 q 340 383 248 234 l 384 361 q 117 55 260 155 q -187 -45 -27 -45 q -353 -1 -291 -45 q -415 123 -415 44 q -378 214 -415 174 q -294 254 -341 254 q -229 229 -255 254 q -202 165 -202 203 q -224 108 -202 132 q -278 84 -246 84 q -309 92 -289 84 q -293 84 -311 93 q -291 87 -289 96 q -292 71 -292 78 q -273 28 -292 45 q -224 11 -254 11 q -157 39 -184 11 q -129 110 -129 67 q -174 203 -129 141 q -186 218 -182 213 q -228 287 -217 260 q -239 343 -239 314 q -168 472 -239 420 q 1 524 -96 524 q 138 491 84 524 q 191 399 191 457 q 156 326 191 356 q 72 296 121 296 q 24 307 55 296 q -9 307 24 307 m -199 16 l -136 16 l -188 -63 l -216 -63 l -201 -63 q -114 -95 -147 -63 q -81 -180 -81 -127 q -170 -327 -81 -270 q -423 -394 -258 -384 l -423 -342 q -265 -302 -312 -332 q -218 -232 -218 -273 q -231 -203 -218 -214 q -269 -193 -243 -193 q -279 -194 -273 -193 q -341 -205 -285 -195 l -199 16 z "},"":{"ha":1003,"x_min":-140,"x_max":1050,"o":"m 513 857 l 551 827 q 502 765 513 789 q 491 717 491 741 q 514 658 491 681 q 574 635 536 635 q 640 654 607 635 q 701 709 673 673 q 739 781 725 742 q 753 852 753 819 q 735 906 753 888 q 677 924 716 924 q 527 887 610 924 q 366 781 445 849 q 157 515 233 665 q 81 222 81 366 q 125 71 81 126 q 239 16 169 16 q 398 99 328 16 q 467 296 467 182 q 444 390 467 358 q 379 421 420 421 q 282 357 325 421 q 240 197 240 293 q 241 179 240 189 q 241 146 241 169 l 194 146 q 189 185 189 178 q 188 197 188 192 q 261 417 188 327 q 439 508 335 508 q 579 455 525 508 q 634 319 634 403 q 598 191 634 254 q 496 76 562 128 q 334 -17 422 16 q 161 -50 245 -50 q -59 31 22 -50 q -140 250 -140 112 q -63 514 -140 378 q 149 762 14 650 q 415 921 271 863 q 689 979 559 979 q 835 933 781 979 q 890 810 890 888 q 806 641 890 713 q 612 568 722 568 q 488 609 536 568 q 439 715 439 650 q 455 787 439 753 q 513 857 471 821 m 1050 1279 q 828 1107 909 1172 q 671 975 747 1042 l 622 987 q 708 1140 670 1076 q 793 1276 746 1204 l 1050 1279 z "},"":{"ha":590,"x_min":-344,"x_max":441,"o":"m 54 283 q 58 351 57 332 q 59 379 59 371 q 54 440 59 427 q 43 453 49 453 q 13 438 32 453 q -37 387 -7 423 q -107 271 -84 330 q -131 157 -131 213 q -106 77 -131 105 q -36 50 -81 50 q 135 128 37 50 q 369 387 233 207 l 404 351 q 130 57 262 152 q -135 -37 -3 -37 q -286 13 -227 -37 q -344 144 -344 62 q -295 303 -344 227 q -158 435 -247 379 q -28 495 -98 473 q 109 516 43 516 q 216 489 175 516 q 256 411 256 462 q 211 317 256 355 q 98 279 165 279 q 85 280 91 279 q 54 283 79 280 m 441 844 q 218 672 299 737 q 61 540 138 607 l 12 553 q 98 705 60 641 q 183 841 136 769 l 441 844 z "},"":{"ha":1003,"x_min":-140,"x_max":1044,"o":"m 513 857 l 551 827 q 502 765 513 789 q 491 717 491 741 q 514 658 491 681 q 574 635 536 635 q 640 654 607 635 q 701 709 673 673 q 739 781 725 742 q 753 852 753 819 q 735 906 753 888 q 677 924 716 924 q 527 887 610 924 q 366 781 445 849 q 157 515 233 665 q 81 222 81 366 q 125 71 81 126 q 239 16 169 16 q 398 99 328 16 q 467 296 467 182 q 444 390 467 358 q 379 421 420 421 q 282 357 325 421 q 240 197 240 293 q 241 179 240 189 q 241 146 241 169 l 194 146 q 189 185 189 178 q 188 197 188 192 q 261 417 188 327 q 439 508 335 508 q 579 455 525 508 q 634 319 634 403 q 598 191 634 254 q 496 76 562 128 q 334 -17 422 16 q 161 -50 245 -50 q -59 31 22 -50 q -140 250 -140 112 q -63 514 -140 378 q 149 762 14 650 q 415 921 271 863 q 689 979 559 979 q 835 933 781 979 q 890 810 890 888 q 806 641 890 713 q 612 568 722 568 q 488 609 536 568 q 439 715 439 650 q 455 787 439 753 q 513 857 471 821 m 1011 1352 l 1044 1312 l 756 1000 l 627 998 q 647 1066 644 1045 q 650 1117 650 1088 q 635 1214 650 1168 q 578 1302 619 1259 l 607 1336 q 724 1255 680 1303 q 784 1168 768 1207 q 873 1237 816 1192 q 1011 1352 930 1282 z "},"":{"ha":590,"x_min":-344,"x_max":434,"o":"m 54 283 q 58 351 57 332 q 59 379 59 371 q 54 440 59 427 q 43 453 49 453 q 13 438 32 453 q -37 387 -7 423 q -107 271 -84 330 q -131 157 -131 213 q -106 77 -131 105 q -36 50 -81 50 q 135 128 37 50 q 369 387 233 207 l 404 351 q 130 57 262 152 q -135 -37 -3 -37 q -286 13 -227 -37 q -344 144 -344 62 q -295 303 -344 227 q -158 435 -247 379 q -28 495 -98 473 q 109 516 43 516 q 216 489 175 516 q 256 411 256 462 q 211 317 256 355 q 98 279 165 279 q 85 280 91 279 q 54 283 79 280 m 401 917 l 434 877 l 146 566 l 18 564 q 38 632 35 610 q 41 682 41 653 q 25 779 41 734 q -31 867 9 824 l -3 901 q 114 820 70 868 q 174 733 159 772 q 263 802 206 757 q 401 917 321 848 z "},"":{"ha":772,"x_min":-341,"x_max":749,"o":"m 597 364 q 338 50 433 136 q 158 -36 243 -36 q 61 0 99 -36 q 22 93 22 37 q 27 138 22 109 q 7 60 28 143 q -65 8 -1 49 q -193 -33 -130 -33 q -301 11 -261 -33 q -341 127 -341 54 q -304 276 -341 205 q -199 406 -268 348 q -65 485 -140 455 q 72 515 9 515 q 165 486 129 515 q 200 461 201 456 l 313 665 l 59 665 l 73 722 l 344 722 l 470 941 l 708 959 l 570 722 l 749 722 l 730 665 l 538 665 l 239 155 q 208 97 218 120 q 198 61 198 73 q 204 45 198 52 q 215 39 210 39 q 337 123 254 39 q 556 399 420 208 l 597 364 m 89 458 q 40 436 69 458 q -18 374 12 415 q -101 227 -69 304 q -134 109 -134 149 q -122 79 -134 91 q -94 66 -110 66 q -40 95 -73 66 q 36 186 -7 123 q 107 310 84 256 q 130 404 130 364 q 119 445 130 432 q 89 458 109 458 z "},"":{"ha":656,"x_min":-208,"x_max":302,"o":"m -111 359 q 6 356 -41 357 q 92 355 54 355 q 209 357 121 355 q 302 359 245 357 l 209 205 q 147 205 180 205 q 1 208 39 208 q -93 207 -54 208 q -208 205 -132 207 l -111 359 z "},"":{"ha":399,"x_min":-180,"x_max":43,"o":"m -69 472 q 9 439 -24 472 q 43 359 43 406 q 9 281 43 314 q -69 249 -24 249 q -147 282 -114 249 q -180 359 -180 315 q -148 438 -180 405 q -69 472 -115 472 z "}}}
